<svg id="Group_68" data-name="Group 68" xmlns="http://www.w3.org/2000/svg" viewBox="0 0 44.859 35.881">
  <defs>
    <style>
      .cls-1 {
        fill: #fbfbfb;
      }

      .cls-1, .cls-10, .cls-11, .cls-12, .cls-13, .cls-14, .cls-15, .cls-16, .cls-17, .cls-18, .cls-19, .cls-2, .cls-20, .cls-21, .cls-22, .cls-23, .cls-24, .cls-25, .cls-27, .cls-28, .cls-29, .cls-3, .cls-4, .cls-5, .cls-6, .cls-7, .cls-8, .cls-9 {
        fill-rule: evenodd;
      }

      .cls-2 {
        fill: #f7f7f7;
      }

      .cls-3 {
        fill: #f3f3f3;
      }

      .cls-4 {
        fill: #efefef;
      }

      .cls-5 {
        fill: #ebebeb;
      }

      .cls-6 {
        fill: #e7e7e7;
      }

      .cls-7 {
        fill: #e4e4e4;
      }

      .cls-8 {
        fill: #e0e0e0;
      }

      .cls-9 {
        fill: #dcdcdc;
      }

      .cls-10 {
        fill: #d8d8d8;
      }

      .cls-11 {
        fill: #d4d4d4;
      }

      .cls-12 {
        fill: #d0d0d0;
      }

      .cls-13 {
        fill: #ccc;
      }

      .cls-14 {
        fill: #c8c8c8;
      }

      .cls-15 {
        fill: #c4c4c4;
      }

      .cls-16 {
        fill: silver;
      }

      .cls-17 {
        fill: #bcbcbc;
      }

      .cls-18 {
        fill: #b8b8b8;
      }

      .cls-19 {
        fill: #b4b4b4;
      }

      .cls-20 {
        fill: #b1b1b1;
      }

      .cls-21 {
        fill: #adadad;
      }

      .cls-22 {
        fill: #a9a9a9;
      }

      .cls-23 {
        fill: #a5a5a5;
      }

      .cls-24 {
        fill: #a1a1a1;
      }

      .cls-25 {
        fill: #9d9d9d;
      }

      .cls-26 {
        fill: #03358c;
      }

      .cls-27 {
        fill: #ff1612;
      }

      .cls-28 {
        fill: #fff200;
      }

      .cls-29 {
        fill: #0440a8;
      }
    </style>
  </defs>
  <g id="Group_1" data-name="Group 1" transform="translate(0 5.322)">
    <path id="Path_1" data-name="Path 1" class="cls-1" d="M43.435,61.09a1.627,1.627,0,0,1,1.676,1.541V86.9c0,.842-.762,1.334-1.668,1.525C30.473,91.1.26,93.249.26,89.9V65.252C.236,62,21.466,60.812,43.435,61.09Z" transform="translate(-0.26 -61.051)"/>
    <path id="Path_2" data-name="Path 2" class="cls-2" d="M43.558,61.31a1.6,1.6,0,0,1,1.66,1.525V86.8c0,.834-.755,1.318-1.652,1.5C30.715,90.936.78,93.064.78,89.744V65.409c-.024-3.2,21.016-4.368,42.778-4.1Z" transform="translate(-0.367 -61.096)"/>
    <path id="Path_3" data-name="Path 3" class="cls-3" d="M43.679,61.54a1.586,1.586,0,0,1,1.644,1.5V86.694c0,.826-.747,1.3-1.636,1.485-12.732,2.6-42.4,4.7-42.4,1.43V65.591c-.016-3.169,20.825-4.321,42.389-4.051Z" transform="translate(-0.472 -61.144)"/>
    <path id="Path_4" data-name="Path 4" class="cls-4" d="M43.8,61.76a1.564,1.564,0,0,1,1.628,1.485V86.588c0,.81-.747,1.287-1.62,1.461-12.613,2.565-42,4.646-42,1.414V65.755c-.024-3.121,20.627-4.265,41.992-4Z" transform="translate(-0.579 -61.189)"/>
    <path id="Path_5" data-name="Path 5" class="cls-5" d="M43.925,61.981a1.552,1.552,0,0,1,1.612,1.461V86.475c0,.8-.739,1.271-1.6,1.446-12.493,2.534-41.6,4.583-41.6,1.4V65.928c-.024-3.082,20.428-4.209,41.595-3.947Z" transform="translate(-0.686 -61.234)"/>
    <path id="Path_6" data-name="Path 6" class="cls-6" d="M44.045,62.2a1.535,1.535,0,0,1,1.6,1.446V86.37c0,.794-.731,1.255-1.588,1.43C31.679,90.293,2.84,92.327,2.84,89.181V66.1c-.016-3.042,20.237-4.154,41.205-3.9Z" transform="translate(-0.791 -61.28)"/>
    <path id="Path_7" data-name="Path 7" class="cls-7" d="M44.168,62.421a1.512,1.512,0,0,1,1.581,1.422V86.257c0,.778-.723,1.239-1.573,1.406C31.921,90.133,3.36,92.126,3.36,89.029V66.265c-.024-2.994,20.047-4.09,40.808-3.844Z" transform="translate(-0.898 -61.326)"/>
    <path id="Path_8" data-name="Path 8" class="cls-8" d="M44.291,62.651a1.5,1.5,0,0,1,1.565,1.406v22.1c0,.77-.715,1.215-1.557,1.39C32.155,89.981,3.88,91.958,3.88,88.9V66.455c-.024-2.97,19.848-4.059,40.411-3.8Z" transform="translate(-1.005 -61.373)"/>
    <path id="Path_9" data-name="Path 9" class="cls-9" d="M44.414,62.871a1.479,1.479,0,0,1,1.557,1.382V86.047c0,.755-.707,1.2-1.541,1.374C32.405,89.82,4.4,91.766,4.4,88.748V66.612c-.032-2.915,19.65-3.987,40.014-3.741Z" transform="translate(-1.112 -61.418)"/>
    <path id="Path_10" data-name="Path 10" class="cls-10" d="M44.537,63.092a1.473,1.473,0,0,1,1.541,1.366V85.942c0,.747-.7,1.191-1.525,1.35C32.647,89.659,4.92,91.581,4.92,88.6V66.785c-.032-2.875,19.451-3.932,39.617-3.693Z" transform="translate(-1.219 -61.464)"/>
    <path id="Path_11" data-name="Path 11" class="cls-11" d="M44.658,63.312a1.451,1.451,0,0,1,1.525,1.35V85.837c0,.739-.691,1.168-1.517,1.326C32.879,89.49,5.43,91.389,5.43,88.458v-21.5c-.024-2.835,19.268-3.876,39.228-3.646Z" transform="translate(-1.324 -61.51)"/>
    <path id="Path_12" data-name="Path 12" class="cls-12" d="M44.771,63.532a1.433,1.433,0,0,1,1.509,1.326V85.723c0,.723-.683,1.152-1.5,1.311C33.111,89.329,5.94,91.2,5.94,88.312V67.122c-.024-2.788,19.078-3.82,38.831-3.59Z" transform="translate(-1.429 -61.555)"/>
    <path id="Path_13" data-name="Path 13" class="cls-13" d="M44.893,63.752a1.416,1.416,0,0,1,1.493,1.311V85.618c0,.715-.683,1.136-1.485,1.295C33.361,89.168,6.46,91.019,6.46,88.167V67.295c-.024-2.748,18.879-3.765,38.433-3.542Z" transform="translate(-1.536 -61.6)"/>
    <path id="Path_14" data-name="Path 14" class="cls-14" d="M45.016,63.982a1.4,1.4,0,0,1,1.477,1.287V85.514c0,.707-.675,1.12-1.469,1.271C33.6,89.017,6.98,90.828,6.98,88.024V67.461c-.024-2.7,18.681-3.7,38.036-3.479Z" transform="translate(-1.643 -61.648)"/>
    <path id="Path_15" data-name="Path 15" class="cls-15" d="M45.137,64.2A1.376,1.376,0,0,1,46.6,65.473V85.409c0,.691-.667,1.1-1.453,1.255C33.835,88.856,7.49,90.643,7.49,87.887V67.642c-.024-2.669,18.49-3.654,37.647-3.439Z" transform="translate(-1.748 -61.693)"/>
    <path id="Path_16" data-name="Path 16" class="cls-16" d="M45.26,64.423a1.364,1.364,0,0,1,1.446,1.247V85.3c0,.683-.659,1.08-1.438,1.231C34.077,88.687,8.01,90.458,8.01,87.742V67.806c-.024-2.621,18.291-3.6,37.25-3.383Z" transform="translate(-1.855 -61.739)"/>
    <path id="Path_17" data-name="Path 17" class="cls-17" d="M45.381,64.643a1.347,1.347,0,0,1,1.43,1.231V85.19c0,.667-.651,1.064-1.422,1.207C34.317,88.534,8.52,90.273,8.52,87.6V67.979C8.5,65.4,26.629,64.436,45.381,64.643Z" transform="translate(-1.96 -61.784)"/>
    <path id="Path_18" data-name="Path 18" class="cls-18" d="M45.5,64.863a1.324,1.324,0,0,1,1.414,1.207V85.077c0,.659-.643,1.048-1.406,1.2-10.953,2.1-36.472,3.8-36.472,1.175v-19.3C9.016,65.61,26.95,64.665,45.5,64.863Z" transform="translate(-2.067 -61.83)"/>
    <path id="Path_19" data-name="Path 19" class="cls-19" d="M45.625,65.093a1.307,1.307,0,0,1,1.4,1.183v18.7c0,.651-.635,1.033-1.39,1.175C34.8,88.214,9.55,89.9,9.55,87.308V68.318c-.016-2.494,17.72-3.423,36.075-3.225Z" transform="translate(-2.171 -61.877)"/>
    <path id="Path_20" data-name="Path 20" class="cls-20" d="M45.747,65.313a1.29,1.29,0,0,1,1.382,1.168V84.867c0,.635-.635,1.017-1.374,1.152C35.041,88.044,10.07,89.7,10.07,87.163V68.49c-.024-2.462,17.521-3.376,35.677-3.177Z" transform="translate(-2.278 -61.922)"/>
    <path id="Path_21" data-name="Path 21" class="cls-21" d="M45.87,65.534a1.279,1.279,0,0,1,1.366,1.152V84.762c0,.627-.627.993-1.358,1.136-10.6,1.994-35.288,3.63-35.288,1.128V68.663c-.024-2.414,17.322-3.32,35.28-3.129Z" transform="translate(-2.385 -61.968)"/>
    <path id="Path_22" data-name="Path 22" class="cls-22" d="M45.993,65.754a1.256,1.256,0,0,1,1.35,1.128V84.649c0,.62-.62.985-1.342,1.12C35.517,87.731,11.11,89.335,11.11,86.881V68.836c-.024-2.375,17.132-3.264,34.883-3.082Z" transform="translate(-2.492 -62.014)"/>
    <path id="Path_23" data-name="Path 23" class="cls-23" d="M46.116,65.974a1.247,1.247,0,0,1,1.342,1.112V84.544c0,.6-.612.961-1.326,1.1-10.365,1.93-34.5,3.511-34.5,1.088V69c-.032-2.335,16.933-3.2,34.486-3.026Z" transform="translate(-2.599 -62.059)"/>
    <path id="Path_24" data-name="Path 24" class="cls-24" d="M46.239,66.2a1.23,1.23,0,0,1,1.326,1.088V84.44c0,.6-.6.945-1.311,1.072-10.246,1.9-34.1,3.447-34.1,1.08V69.174c-.032-2.3,16.735-3.153,34.089-2.97Z" transform="translate(-2.706 -62.106)"/>
    <path id="Path_25" data-name="Path 25" class="cls-25" d="M46.36,66.424A1.213,1.213,0,0,1,47.67,67.5V84.334c0,.588-.6.929-1.3,1.056C36.241,87.257,12.66,88.782,12.66,86.447v-17.1c-.024-2.256,16.544-3.1,33.7-2.923Z" transform="translate(-2.811 -62.152)"/>
  </g>
  <path id="Path_26" data-name="Path 26" class="cls-26" d="M6.609,89.823c12.859-1.485,25.718,5.091,38.576,3.606a1.988,1.988,0,0,1,1.025.071c-4.337,3.137-37.5.81-40.594-3.026-.008-.008-.016-.389-.016-.405C5.632,90,5.83,89.966,6.609,89.823Z" transform="translate(-1.359 -61.604)"/>
  <g id="Group_2" data-name="Group 2" transform="translate(4.241)">
    <path id="Path_27" data-name="Path 27" class="cls-27" d="M53.214,87.126V58.811A36.081,36.081,0,0,1,39.68,58.66V86.975a36.415,36.415,0,0,0,13.534.151Z" transform="translate(-12.612 -55.237)"/>
    <path id="Path_28" data-name="Path 28" class="cls-28" d="M22.64,83.575V55.26c4.511.755,9.023,1.946,13.534,2.7V86.275c-4.511-.755-9.023-1.938-13.534-2.7Z" transform="translate(-9.106 -54.537)"/>
    <path id="Path_29" data-name="Path 29" class="cls-29" d="M19.134,83.388V55.073A36.414,36.414,0,0,0,5.6,54.922V83.237a36.414,36.414,0,0,1,13.534.151Z" transform="translate(-5.6 -54.35)"/>
  </g>
</svg>
