<svg id="Group_69" data-name="Group 69" xmlns="http://www.w3.org/2000/svg" viewBox="0 0 44.854 35.876">
  <defs>
    <style>
      .cls-1 {
        fill: #fbfbfb;
      }

      .cls-1, .cls-10, .cls-11, .cls-12, .cls-13, .cls-14, .cls-15, .cls-16, .cls-17, .cls-18, .cls-19, .cls-2, .cls-20, .cls-21, .cls-22, .cls-23, .cls-24, .cls-25, .cls-27, .cls-28, .cls-29, .cls-3, .cls-4, .cls-5, .cls-6, .cls-7, .cls-8, .cls-9 {
        fill-rule: evenodd;
      }

      .cls-2 {
        fill: #f7f7f7;
      }

      .cls-3 {
        fill: #f3f3f3;
      }

      .cls-4 {
        fill: #efefef;
      }

      .cls-5 {
        fill: #ebebeb;
      }

      .cls-6 {
        fill: #e7e7e7;
      }

      .cls-7 {
        fill: #e4e4e4;
      }

      .cls-8 {
        fill: #e0e0e0;
      }

      .cls-9 {
        fill: #dcdcdc;
      }

      .cls-10 {
        fill: #d8d8d8;
      }

      .cls-11 {
        fill: #d4d4d4;
      }

      .cls-12 {
        fill: #d0d0d0;
      }

      .cls-13 {
        fill: #ccc;
      }

      .cls-14 {
        fill: #c8c8c8;
      }

      .cls-15 {
        fill: #c4c4c4;
      }

      .cls-16 {
        fill: silver;
      }

      .cls-17 {
        fill: #bcbcbc;
      }

      .cls-18 {
        fill: #b8b8b8;
      }

      .cls-19 {
        fill: #b4b4b4;
      }

      .cls-20 {
        fill: #b1b1b1;
      }

      .cls-21 {
        fill: #adadad;
      }

      .cls-22 {
        fill: #a9a9a9;
      }

      .cls-23 {
        fill: #a5a5a5;
      }

      .cls-24 {
        fill: #a1a1a1;
      }

      .cls-25 {
        fill: #9d9d9d;
      }

      .cls-26 {
        fill: #c40000;
      }

      .cls-27 {
        fill: #47b71d;
      }

      .cls-28 {
        fill: #fff200;
      }

      .cls-29 {
        fill: #f90805;
      }
    </style>
  </defs>
  <g id="Group_5" data-name="Group 5" transform="translate(0 5.317)">
    <path id="Path_31" data-name="Path 31" class="cls-1" d="M215.445,61.09a1.627,1.627,0,0,1,1.676,1.541V86.9c0,.842-.762,1.334-1.668,1.525C202.483,91.1,172.27,93.249,172.27,89.9V65.252c-.032-3.256,21.2-4.44,43.175-4.162Z" transform="translate(-172.27 -61.051)"/>
    <path id="Path_32" data-name="Path 32" class="cls-2" d="M215.558,61.31a1.6,1.6,0,0,1,1.66,1.525V86.8c0,.834-.755,1.318-1.652,1.5-12.851,2.637-42.786,4.765-42.786,1.446V65.409c-.024-3.2,21.016-4.368,42.778-4.1Z" transform="translate(-172.375 -61.096)"/>
    <path id="Path_33" data-name="Path 33" class="cls-3" d="M215.681,61.54a1.586,1.586,0,0,1,1.644,1.5V86.694c0,.826-.747,1.3-1.636,1.485-12.732,2.6-42.389,4.7-42.389,1.43V65.591c-.024-3.169,20.817-4.321,42.381-4.051Z" transform="translate(-172.482 -61.144)"/>
    <path id="Path_34" data-name="Path 34" class="cls-4" d="M215.8,61.76a1.564,1.564,0,0,1,1.628,1.485V86.588c0,.81-.747,1.287-1.62,1.461-12.613,2.565-42,4.646-42,1.414V65.755c-.024-3.121,20.627-4.265,41.992-4Z" transform="translate(-172.587 -61.189)"/>
    <path id="Path_35" data-name="Path 35" class="cls-5" d="M215.925,61.981a1.552,1.552,0,0,1,1.612,1.461V86.475c0,.8-.739,1.271-1.6,1.446-12.493,2.534-41.6,4.583-41.6,1.4V65.928c-.024-3.082,20.428-4.209,41.595-3.947Z" transform="translate(-172.694 -61.234)"/>
    <path id="Path_36" data-name="Path 36" class="cls-6" d="M216.047,62.2a1.535,1.535,0,0,1,1.6,1.446V86.37c0,.794-.731,1.255-1.589,1.43-12.374,2.494-41.205,4.527-41.205,1.382V66.1c-.024-3.042,20.237-4.154,41.2-3.9Z" transform="translate(-172.801 -61.28)"/>
    <path id="Path_37" data-name="Path 37" class="cls-7" d="M216.168,62.421a1.512,1.512,0,0,1,1.581,1.422V86.257c0,.778-.723,1.239-1.573,1.406-12.263,2.47-40.816,4.464-40.816,1.366V66.265c-.024-2.994,20.047-4.09,40.808-3.844Z" transform="translate(-172.906 -61.326)"/>
    <path id="Path_38" data-name="Path 38" class="cls-8" d="M216.291,62.651a1.5,1.5,0,0,1,1.565,1.406v22.1c0,.77-.715,1.215-1.557,1.39-12.144,2.43-40.419,4.408-40.419,1.35V66.455c-.024-2.97,19.848-4.059,40.411-3.8Z" transform="translate(-173.013 -61.373)"/>
    <path id="Path_39" data-name="Path 39" class="cls-9" d="M216.414,62.871a1.479,1.479,0,0,1,1.557,1.382V86.047c0,.755-.707,1.2-1.541,1.374-12.025,2.4-40.03,4.345-40.03,1.326V66.612c-.032-2.915,19.65-3.987,40.014-3.741Z" transform="translate(-173.12 -61.418)"/>
    <path id="Path_40" data-name="Path 40" class="cls-10" d="M216.537,63.092a1.473,1.473,0,0,1,1.541,1.366V85.942c0,.747-.7,1.191-1.525,1.35-11.906,2.367-39.633,4.289-39.633,1.311V66.785c-.032-2.875,19.459-3.932,39.617-3.693Z" transform="translate(-173.227 -61.464)"/>
    <path id="Path_41" data-name="Path 41" class="cls-11" d="M216.658,63.312a1.451,1.451,0,0,1,1.525,1.35V85.837c0,.739-.7,1.168-1.517,1.326-11.787,2.327-39.236,4.225-39.236,1.295v-21.5c-.024-2.835,19.268-3.876,39.228-3.646Z" transform="translate(-173.332 -61.51)"/>
    <path id="Path_42" data-name="Path 42" class="cls-12" d="M216.771,63.532a1.433,1.433,0,0,1,1.509,1.326V85.723c0,.723-.683,1.152-1.5,1.311-11.667,2.3-38.839,4.162-38.839,1.279V67.122c-.024-2.788,19.078-3.82,38.831-3.59Z" transform="translate(-173.437 -61.555)"/>
    <path id="Path_43" data-name="Path 43" class="cls-13" d="M216.9,63.752a1.416,1.416,0,0,1,1.493,1.311V85.618c0,.715-.683,1.136-1.485,1.295-11.548,2.264-38.449,4.106-38.449,1.263V67.3c-.024-2.756,18.879-3.773,38.441-3.55Z" transform="translate(-173.544 -61.601)"/>
    <path id="Path_44" data-name="Path 44" class="cls-14" d="M217.014,63.982a1.4,1.4,0,0,1,1.477,1.287V85.514c0,.707-.675,1.12-1.469,1.271-11.429,2.232-38.052,4.043-38.052,1.247V67.469c-.016-2.708,18.689-3.709,38.044-3.487Z" transform="translate(-173.649 -61.648)"/>
    <path id="Path_45" data-name="Path 45" class="cls-15" d="M217.137,64.2a1.376,1.376,0,0,1,1.461,1.271V85.409c0,.691-.667,1.1-1.453,1.255-11.31,2.2-37.655,3.987-37.655,1.231V67.65c-.024-2.677,18.49-3.661,37.647-3.447Z" transform="translate(-173.756 -61.693)"/>
    <path id="Path_46" data-name="Path 46" class="cls-16" d="M217.26,64.423a1.369,1.369,0,0,1,1.446,1.247V85.3c0,.683-.659,1.08-1.438,1.231-11.191,2.16-37.258,3.932-37.258,1.215V67.806c-.024-2.621,18.291-3.6,37.25-3.383Z" transform="translate(-173.863 -61.739)"/>
    <path id="Path_47" data-name="Path 47" class="cls-17" d="M217.381,64.643a1.347,1.347,0,0,1,1.43,1.231V85.19c0,.667-.651,1.064-1.422,1.207-11.072,2.129-36.869,3.868-36.869,1.191V67.971c-.016-2.573,18.109-3.534,36.861-3.328Z" transform="translate(-173.967 -61.784)"/>
    <path id="Path_48" data-name="Path 48" class="cls-18" d="M217.5,64.863a1.33,1.33,0,0,1,1.414,1.207V85.077c0,.659-.643,1.048-1.406,1.191-10.953,2.1-36.472,3.8-36.472,1.175v-19.3c-.024-2.534,17.91-3.479,36.464-3.28Z" transform="translate(-174.074 -61.83)"/>
    <path id="Path_49" data-name="Path 49" class="cls-19" d="M217.625,65.093a1.307,1.307,0,0,1,1.4,1.183v18.7c0,.651-.635,1.033-1.39,1.175C206.8,88.214,181.55,89.9,181.55,87.308V68.318c-.016-2.494,17.72-3.423,36.075-3.225Z" transform="translate(-174.179 -61.877)"/>
    <path id="Path_50" data-name="Path 50" class="cls-20" d="M217.747,65.313a1.29,1.29,0,0,1,1.382,1.168V84.867c0,.635-.635,1.017-1.374,1.152-10.722,2.025-35.685,3.685-35.685,1.144V68.49c-.016-2.462,17.521-3.376,35.677-3.177Z" transform="translate(-174.286 -61.922)"/>
    <path id="Path_51" data-name="Path 51" class="cls-21" d="M217.87,65.534a1.279,1.279,0,0,1,1.366,1.152V84.762c0,.627-.627.993-1.358,1.136-10.6,1.994-35.288,3.63-35.288,1.128V68.663c-.024-2.414,17.33-3.32,35.28-3.129Z" transform="translate(-174.393 -61.968)"/>
    <path id="Path_52" data-name="Path 52" class="cls-22" d="M218,65.754a1.264,1.264,0,0,1,1.358,1.128V84.649c0,.62-.62.985-1.342,1.12-10.484,1.962-34.891,3.566-34.891,1.112V68.836c-.032-2.375,17.124-3.264,34.875-3.082Z" transform="translate(-174.502 -62.014)"/>
    <path id="Path_53" data-name="Path 53" class="cls-23" d="M218.116,65.974a1.247,1.247,0,0,1,1.342,1.112V84.544c0,.6-.612.961-1.326,1.1-10.365,1.93-34.5,3.511-34.5,1.088V69c-.032-2.335,16.933-3.2,34.486-3.026Z" transform="translate(-174.607 -62.059)"/>
    <path id="Path_54" data-name="Path 54" class="cls-24" d="M218.239,66.2a1.23,1.23,0,0,1,1.326,1.088V84.44c0,.6-.6.945-1.311,1.072-10.246,1.9-34.1,3.447-34.1,1.08V69.174c-.032-2.3,16.735-3.153,34.089-2.97Z" transform="translate(-174.714 -62.106)"/>
    <path id="Path_55" data-name="Path 55" class="cls-25" d="M218.35,66.424A1.213,1.213,0,0,1,219.66,67.5V84.334c0,.588-.6.929-1.3,1.056-10.127,1.866-33.708,3.391-33.708,1.056v-17.1c-.016-2.256,16.552-3.1,33.7-2.923Z" transform="translate(-174.817 -62.152)"/>
  </g>
  <path id="Path_56" data-name="Path 56" class="cls-26" d="M178.617,89.823c12.859-1.485,25.718,5.091,38.576,3.606a2.007,2.007,0,0,1,1.025.071c-4.337,3.137-37.5.81-40.594-3.026-.008-.008-.024-.389-.024-.405C177.64,90,177.83,89.966,178.617,89.823Z" transform="translate(-173.367 -61.609)"/>
  <g id="Group_6" data-name="Group 6" transform="translate(4.233 0)">
    <path id="Path_57" data-name="Path 57" class="cls-27" d="M204.676,57.782c-9.023-1.517-18.053-4.734-27.076-2.851V83.246c9.023-11.318,18.053-17.545,27.076-25.463Z" transform="translate(-177.6 -54.357)"/>
    <path id="Path_58" data-name="Path 58" class="cls-28" d="M177.6,84.141c9.023-11.326,18.053-17.545,27.076-25.471a36.414,36.414,0,0,0,13.534.151c-9.023,11.326-18.053,17.545-27.076,25.471a36.081,36.081,0,0,0-13.534-.151Z" transform="translate(-177.6 -55.244)"/>
    <path id="Path_59" data-name="Path 59" class="cls-29" d="M221.716,58.85V87.165c-9.023,1.89-18.053-1.334-27.076-2.851,9.031-7.911,18.053-14.13,27.076-25.463Z" transform="translate(-181.106 -55.281)"/>
  </g>
</svg>
