<svg id="Group_70" data-name="Group 70" xmlns="http://www.w3.org/2000/svg" viewBox="0 0 45.283 34.626">
  <defs>
    <style>
      .cls-1 {
        fill: #fbfbfb;
      }

      .cls-1, .cls-10, .cls-11, .cls-12, .cls-13, .cls-14, .cls-15, .cls-16, .cls-17, .cls-18, .cls-19, .cls-2, .cls-20, .cls-21, .cls-22, .cls-23, .cls-24, .cls-25, .cls-27, .cls-28, .cls-29, .cls-3, .cls-4, .cls-5, .cls-6, .cls-7, .cls-8, .cls-9 {
        fill-rule: evenodd;
      }

      .cls-2 {
        fill: #f7f7f7;
      }

      .cls-3 {
        fill: #f3f3f3;
      }

      .cls-4 {
        fill: #efefef;
      }

      .cls-5 {
        fill: #ebebeb;
      }

      .cls-6 {
        fill: #e7e7e7;
      }

      .cls-7 {
        fill: #e4e4e4;
      }

      .cls-8 {
        fill: #e0e0e0;
      }

      .cls-9 {
        fill: #dcdcdc;
      }

      .cls-10 {
        fill: #d8d8d8;
      }

      .cls-11 {
        fill: #d4d4d4;
      }

      .cls-12 {
        fill: #d0d0d0;
      }

      .cls-13 {
        fill: #ccc;
      }

      .cls-14 {
        fill: #c8c8c8;
      }

      .cls-15 {
        fill: #c4c4c4;
      }

      .cls-16 {
        fill: silver;
      }

      .cls-17 {
        fill: #bcbcbc;
      }

      .cls-18 {
        fill: #b8b8b8;
      }

      .cls-19 {
        fill: #b4b4b4;
      }

      .cls-20 {
        fill: #b1b1b1;
      }

      .cls-21 {
        fill: #adadad;
      }

      .cls-22 {
        fill: #a9a9a9;
      }

      .cls-23 {
        fill: #a5a5a5;
      }

      .cls-24 {
        fill: #a1a1a1;
      }

      .cls-25 {
        fill: #9d9d9d;
      }

      .cls-26 {
        fill: #1063a0;
      }

      .cls-27 {
        fill: #2489f0;
      }

      .cls-28 {
        fill: #fedf00;
      }

      .cls-29 {
        fill: #f90805;
      }
    </style>
  </defs>
  <g id="Group_9" data-name="Group 9" transform="translate(0 5.141)">
    <path id="Path_61" data-name="Path 61" class="cls-1" d="M367.38,64.22a1.609,1.609,0,0,1,1.692,1.485V89.128c0,.818-.77,1.295-1.684,1.469-13.1,2.573-43.588,4.654-43.588,1.414V68.223c-.024-3.129,21.4-4.273,43.58-4Z" transform="translate(-323.8 -64.182)"/>
    <path id="Path_62" data-name="Path 62" class="cls-2" d="M367.5,64.431a1.6,1.6,0,0,1,1.676,1.469V89.028c0,.8-.763,1.279-1.668,1.453-12.978,2.542-43.191,4.6-43.191,1.4V68.394c-.024-3.1,21.214-4.225,43.183-3.963Z" transform="translate(-323.907 -64.226)"/>
    <path id="Path_63" data-name="Path 63" class="cls-3" d="M367.626,64.641a1.575,1.575,0,0,1,1.66,1.453V88.921c0,.794-.762,1.263-1.652,1.438-12.851,2.51-42.794,4.543-42.794,1.382V68.557c-.024-3.058,21.016-4.17,42.786-3.916Z" transform="translate(-324.014 -64.269)"/>
    <path id="Path_64" data-name="Path 64" class="cls-4" d="M367.749,64.861a1.552,1.552,0,0,1,1.644,1.43V88.823c0,.786-.755,1.239-1.636,1.414-12.732,2.478-42.4,4.48-42.4,1.366V68.721c-.024-3.01,20.825-4.114,42.389-3.86Z" transform="translate(-324.121 -64.314)"/>
    <path id="Path_65" data-name="Path 65" class="cls-5" d="M367.872,65.071a1.541,1.541,0,0,1,1.628,1.414V88.716c0,.77-.747,1.223-1.62,1.4-12.613,2.446-42,4.424-42,1.35V68.892c-.016-2.978,20.626-4.067,41.992-3.82Z" transform="translate(-324.228 -64.358)"/>
    <path id="Path_66" data-name="Path 66" class="cls-6" d="M368,65.291a1.524,1.524,0,0,1,1.612,1.4V88.618c0,.762-.739,1.207-1.6,1.382-12.493,2.407-41.595,4.368-41.595,1.334V69.064c-.024-2.947,20.428-4.019,41.587-3.773Z" transform="translate(-324.337 -64.403)"/>
    <path id="Path_67" data-name="Path 67" class="cls-7" d="M368.12,65.5a1.5,1.5,0,0,1,1.6,1.374V88.5c0,.755-.731,1.191-1.588,1.358-12.374,2.383-41.2,4.313-41.2,1.318V69.211c-.024-2.891,20.229-3.947,41.189-3.709Z" transform="translate(-324.444 -64.447)"/>
    <path id="Path_68" data-name="Path 68" class="cls-8" d="M368.245,65.721a1.492,1.492,0,0,1,1.588,1.358V88.413c0,.739-.723,1.175-1.573,1.342-12.255,2.343-40.8,4.249-40.8,1.3V69.39c-.032-2.859,20.031-3.916,40.784-3.669Z" transform="translate(-324.553 -64.492)"/>
    <path id="Path_69" data-name="Path 69" class="cls-9" d="M368.367,65.932a1.474,1.474,0,0,1,1.573,1.334V88.3c0,.731-.715,1.16-1.557,1.318-12.136,2.311-40.4,4.194-40.4,1.287V69.546c-.032-2.812,19.832-3.844,40.387-3.614Z" transform="translate(-324.66 -64.536)"/>
    <path id="Path_70" data-name="Path 70" class="cls-10" d="M368.49,66.142a1.463,1.463,0,0,1,1.557,1.318V88.19c0,.723-.707,1.144-1.541,1.3-12.017,2.28-40.006,4.138-40.006,1.263V69.7c-.032-2.764,19.642-3.789,39.99-3.558Z" transform="translate(-324.767 -64.579)"/>
    <path id="Path_71" data-name="Path 71" class="cls-11" d="M368.613,66.362a1.446,1.446,0,0,1,1.541,1.3V88.1c0,.715-.7,1.128-1.525,1.287-11.9,2.248-39.609,4.074-39.609,1.255V69.888c-.032-2.748,19.443-3.757,39.593-3.526Z" transform="translate(-324.874 -64.624)"/>
    <path id="Path_72" data-name="Path 72" class="cls-12" d="M368.734,66.572a1.429,1.429,0,0,1,1.525,1.279V87.985c0,.7-.691,1.112-1.517,1.263-11.771,2.216-39.212,4.019-39.212,1.239V70.035c-.024-2.692,19.26-3.685,39.2-3.463Z" transform="translate(-324.979 -64.668)"/>
    <path id="Path_73" data-name="Path 73" class="cls-13" d="M368.859,66.783a1.412,1.412,0,0,1,1.509,1.263v19.84c0,.691-.691,1.1-1.5,1.247-11.659,2.184-38.807,3.963-38.807,1.215V70.2c-.024-2.645,19.054-3.63,38.8-3.415Z" transform="translate(-325.088 -64.711)"/>
    <path id="Path_74" data-name="Path 74" class="cls-14" d="M368.982,67a1.39,1.39,0,0,1,1.493,1.239V87.78c0,.683-.683,1.08-1.485,1.231-11.532,2.152-38.41,3.908-38.41,1.2V70.37c-.032-2.613,18.855-3.582,38.4-3.368Z" transform="translate(-325.195 -64.756)"/>
    <path id="Path_75" data-name="Path 75" class="cls-15" d="M369.1,67.213a1.367,1.367,0,0,1,1.477,1.223V87.673c0,.667-.675,1.056-1.469,1.207C357.691,91,331.1,92.724,331.1,90.063V70.525c-.024-2.565,18.665-3.519,38-3.312Z" transform="translate(-325.302 -64.8)"/>
    <path id="Path_76" data-name="Path 76" class="cls-16" d="M369.227,67.433a1.361,1.361,0,0,1,1.461,1.207V87.583c0,.659-.667,1.04-1.453,1.191-11.294,2.089-37.615,3.789-37.615,1.168V70.705c-.024-2.542,18.466-3.479,37.607-3.272Z" transform="translate(-325.409 -64.845)"/>
    <path id="Path_77" data-name="Path 77" class="cls-17" d="M369.35,67.643a1.339,1.339,0,0,1,1.446,1.183V87.468c0,.643-.659,1.025-1.438,1.168-11.183,2.057-37.218,3.733-37.218,1.152V70.852c-.024-2.478,18.276-3.407,37.21-3.209Z" transform="translate(-325.516 -64.889)"/>
    <path id="Path_78" data-name="Path 78" class="cls-18" d="M369.473,67.863a1.327,1.327,0,0,1,1.43,1.168V87.378c0,.635-.651,1.009-1.422,1.152-11.064,2.025-36.821,3.677-36.821,1.136V71.04c-.024-2.462,18.077-3.376,36.813-3.177Z" transform="translate(-325.623 -64.934)"/>
    <path id="Path_79" data-name="Path 79" class="cls-19" d="M369.6,68.074a1.3,1.3,0,0,1,1.414,1.144V87.263c0,.627-.643.993-1.406,1.136-10.937,1.994-36.416,3.614-36.416,1.12V71.195c-.032-2.415,17.878-3.312,36.408-3.121Z" transform="translate(-325.732 -64.978)"/>
    <path id="Path_80" data-name="Path 80" class="cls-20" d="M369.719,68.284a1.288,1.288,0,0,1,1.4,1.128V87.155c0,.62-.635.977-1.39,1.112-10.818,1.962-36.027,3.558-36.027,1.1V71.35c-.024-2.367,17.688-3.248,36.019-3.066Z" transform="translate(-325.837 -65.021)"/>
    <path id="Path_81" data-name="Path 81" class="cls-21" d="M369.834,68.5a1.277,1.277,0,0,1,1.382,1.112v17.45c0,.6-.627.961-1.374,1.1-10.7,1.93-35.622,3.5-35.622,1.088V71.53c-.024-2.343,17.5-3.209,35.614-3.026Z" transform="translate(-325.944 -65.066)"/>
    <path id="Path_82" data-name="Path 82" class="cls-22" d="M369.957,68.714a1.255,1.255,0,0,1,1.366,1.088V86.95c0,.6-.627.945-1.358,1.08-10.579,1.9-35.225,3.447-35.225,1.072V71.685c-.016-2.287,17.3-3.145,35.217-2.97Z" transform="translate(-326.051 -65.11)"/>
    <path id="Path_83" data-name="Path 83" class="cls-23" d="M370.08,68.934a1.238,1.238,0,0,1,1.35,1.072V86.86c0,.58-.612.929-1.342,1.056-10.46,1.859-34.828,3.383-34.828,1.056V71.865c-.016-2.264,17.1-3.106,34.82-2.931Z" transform="translate(-326.158 -65.155)"/>
    <path id="Path_84" data-name="Path 84" class="cls-24" d="M370.2,69.145a1.222,1.222,0,0,1,1.334,1.048V86.745c0,.572-.612.913-1.326,1.04-10.341,1.835-34.43,3.328-34.43,1.04V72.02c-.016-2.216,16.909-3.042,34.423-2.875Z" transform="translate(-326.265 -65.199)"/>
    <path id="Path_85" data-name="Path 85" class="cls-25" d="M370.325,69.365a1.2,1.2,0,0,1,1.318,1.033v16.25c0,.564-.6.9-1.311,1.017-10.222,1.8-34.033,3.272-34.033,1.025v-16.5c-.016-2.176,16.711-2.986,34.025-2.82Z" transform="translate(-326.372 -65.244)"/>
  </g>
  <path id="Path_86" data-name="Path 86" class="cls-26" d="M330.217,91.945c12.978-1.43,25.956,4.916,38.942,3.479a2.208,2.208,0,0,1,1.033.064c-4.376,3.026-37.846.786-40.975-2.915-.008-.008-.016-.381-.016-.389C329.224,92.112,329.422,92.08,330.217,91.945Z" transform="translate(-324.911 -64.71)"/>
  <g id="Group_10" data-name="Group 10" transform="translate(4.281 0)">
    <path id="Path_87" data-name="Path 87" class="cls-27" d="M370.181,88.487c-13.669,2.732-27.33-5.623-40.991-2.891V58.266c13.669-2.732,27.33,5.623,40.991,2.891Z" transform="translate(-329.19 -57.709)"/>
    <path id="Path_88" data-name="Path 88" class="cls-28" d="M337.955,61q.572,1.811,1.152,3.646c1.247.1,2.5.246,3.749.437q-1.525.87-3.034,1.819.584,1.835,1.167,3.685-1.513-1.287-3.026-2.478c-1.009.683-2.017,1.4-3.026,2.16q.584-1.8,1.168-3.574c-1.009-.739-2.025-1.43-3.034-2.081a34.761,34.761,0,0,1,3.749-.1c.365-1.175.755-2.343,1.136-3.511Z" transform="translate(-329.988 -58.386)"/>
    <path id="Path_89" data-name="Path 89" class="cls-28" d="M329.19,79.658v6.831a25.642,25.642,0,0,1,2.565-.389c12.811-8.173,25.622-7.823,38.433-17.219V62.05a25.644,25.644,0,0,1-2.565.389C354.812,70.62,341.993,70.262,329.19,79.658Z" transform="translate(-329.19 -58.602)"/>
    <path id="Path_90" data-name="Path 90" class="cls-29" d="M370.181,62.05C356.512,72.073,342.851,71,329.19,81.025v5.464h0c13.669-10.015,27.33-8.951,40.991-18.975V62.05Z" transform="translate(-329.19 -58.602)"/>
  </g>
</svg>
