<svg id="Group_78" data-name="Group 78" xmlns="http://www.w3.org/2000/svg" viewBox="0 0 45.28 34.627">
  <defs>
    <style>
      .cls-1 {
        fill: #fbfbfb;
      }

      .cls-1, .cls-10, .cls-11, .cls-12, .cls-13, .cls-14, .cls-15, .cls-16, .cls-17, .cls-18, .cls-19, .cls-2, .cls-20, .cls-21, .cls-22, .cls-23, .cls-24, .cls-25, .cls-27, .cls-3, .cls-4, .cls-5, .cls-6, .cls-7, .cls-8, .cls-9 {
        fill-rule: evenodd;
      }

      .cls-2 {
        fill: #f7f7f7;
      }

      .cls-3 {
        fill: #f3f3f3;
      }

      .cls-4 {
        fill: #efefef;
      }

      .cls-5 {
        fill: #ebebeb;
      }

      .cls-6 {
        fill: #e7e7e7;
      }

      .cls-7 {
        fill: #e4e4e4;
      }

      .cls-8 {
        fill: #e0e0e0;
      }

      .cls-9 {
        fill: #dcdcdc;
      }

      .cls-10 {
        fill: #d8d8d8;
      }

      .cls-11 {
        fill: #d4d4d4;
      }

      .cls-12 {
        fill: #d0d0d0;
      }

      .cls-13 {
        fill: #ccc;
      }

      .cls-14 {
        fill: #c8c8c8;
      }

      .cls-15 {
        fill: #c4c4c4;
      }

      .cls-16 {
        fill: silver;
      }

      .cls-17 {
        fill: #bcbcbc;
      }

      .cls-18 {
        fill: #b8b8b8;
      }

      .cls-19 {
        fill: #b4b4b4;
      }

      .cls-20 {
        fill: #b1b1b1;
      }

      .cls-21 {
        fill: #adadad;
      }

      .cls-22 {
        fill: #a9a9a9;
      }

      .cls-23 {
        fill: #a5a5a5;
      }

      .cls-24 {
        fill: #a1a1a1;
      }

      .cls-25 {
        fill: #9d9d9d;
      }

      .cls-26 {
        fill: #33840d;
      }

      .cls-27 {
        fill: #f0f0f0;
      }

      .cls-28 {
        fill: #0456bd;
      }

      .cls-29 {
        fill: #fedc36;
      }

      .cls-30 {
        fill: #ff1612;
      }

      .cls-31 {
        fill: #47b71d;
      }
    </style>
  </defs>
  <g id="Group_54" data-name="Group 54" transform="translate(0 5.134)">
    <path id="Path_352" data-name="Path 352" class="cls-1" d="M529.41,243.97a1.615,1.615,0,0,1,1.692,1.493v23.422c0,.818-.77,1.287-1.684,1.469-13.089,2.573-43.588,4.654-43.588,1.414V247.981c-.024-3.137,21.4-4.281,43.58-4.011Z" transform="translate(-485.83 -243.932)"/>
    <path id="Path_353" data-name="Path 353" class="cls-2" d="M529.533,244.19a1.592,1.592,0,0,1,1.676,1.469v23.128c0,.8-.763,1.271-1.668,1.453-12.97,2.542-43.191,4.6-43.191,1.4V248.153c-.024-3.1,21.206-4.233,43.183-3.963Z" transform="translate(-485.937 -243.977)"/>
    <path id="Path_354" data-name="Path 354" class="cls-3" d="M529.656,244.4a1.58,1.58,0,0,1,1.66,1.453v22.827c0,.794-.754,1.263-1.652,1.438-12.851,2.51-42.794,4.543-42.794,1.382V248.316c-.024-3.058,21.016-4.178,42.786-3.916Z" transform="translate(-486.044 -244.021)"/>
    <path id="Path_355" data-name="Path 355" class="cls-4" d="M529.779,244.611a1.563,1.563,0,0,1,1.644,1.43v22.533c0,.786-.747,1.239-1.636,1.414-12.732,2.478-42.4,4.488-42.4,1.366V248.479c-.024-3.018,20.817-4.122,42.389-3.868Z" transform="translate(-486.151 -244.064)"/>
    <path id="Path_356" data-name="Path 356" class="cls-5" d="M529.9,244.831a1.541,1.541,0,0,1,1.628,1.414v22.231c0,.77-.747,1.223-1.62,1.4-12.613,2.446-42,4.424-42,1.35V248.651c-.024-2.986,20.627-4.075,41.992-3.82Z" transform="translate(-486.258 -244.109)"/>
    <path id="Path_357" data-name="Path 357" class="cls-6" d="M530.025,245.041a1.523,1.523,0,0,1,1.612,1.39V268.36c0,.762-.739,1.207-1.6,1.374-12.493,2.407-41.6,4.368-41.6,1.334V248.8c-.024-2.923,20.428-4,41.595-3.757Z" transform="translate(-486.365 -244.153)"/>
    <path id="Path_358" data-name="Path 358" class="cls-7" d="M530.149,245.261a1.506,1.506,0,0,1,1.6,1.374v21.627c0,.755-.731,1.191-1.589,1.358-12.374,2.383-41.2,4.313-41.2,1.318V248.97c-.024-2.891,20.229-3.955,41.189-3.709Z" transform="translate(-486.474 -244.198)"/>
    <path id="Path_359" data-name="Path 359" class="cls-8" d="M530.272,245.471a1.484,1.484,0,0,1,1.58,1.358v21.333c0,.739-.723,1.175-1.572,1.334-12.255,2.343-40.8,4.249-40.8,1.3V249.133c-.032-2.851,20.031-3.9,40.792-3.661Z" transform="translate(-486.581 -244.242)"/>
    <path id="Path_360" data-name="Path 360" class="cls-9" d="M530.4,245.682a1.472,1.472,0,0,1,1.565,1.334v21.032c0,.731-.715,1.16-1.557,1.318-12.136,2.311-40.4,4.194-40.4,1.287V249.3c-.024-2.812,19.84-3.844,40.4-3.614Z" transform="translate(-486.688 -244.286)"/>
    <path id="Path_361" data-name="Path 361" class="cls-10" d="M530.52,245.9a1.463,1.463,0,0,1,1.557,1.318v20.738c0,.723-.707,1.144-1.541,1.3-12.017,2.28-40.006,4.138-40.006,1.271V249.476c-.032-2.788,19.634-3.8,39.99-3.574Z" transform="translate(-486.797 -244.331)"/>
    <path id="Path_362" data-name="Path 362" class="cls-11" d="M530.643,246.112a1.446,1.446,0,0,1,1.541,1.3v20.436c0,.707-.7,1.128-1.525,1.287-11.9,2.248-39.609,4.074-39.609,1.255V249.639c-.032-2.74,19.443-3.749,39.593-3.526Z" transform="translate(-486.904 -244.374)"/>
    <path id="Path_363" data-name="Path 363" class="cls-12" d="M530.756,246.332a1.429,1.429,0,0,1,1.525,1.279v20.134c0,.7-.691,1.112-1.509,1.263-11.779,2.216-39.212,4.019-39.212,1.239V249.8c-.024-2.692,19.252-3.685,39.2-3.463Z" transform="translate(-487.009 -244.42)"/>
    <path id="Path_364" data-name="Path 364" class="cls-13" d="M530.881,246.543a1.412,1.412,0,0,1,1.509,1.263v19.84c0,.691-.683,1.1-1.493,1.247-11.659,2.184-38.807,3.963-38.807,1.215v-20.15c-.032-2.653,19.054-3.63,38.791-3.415Z" transform="translate(-487.118 -244.463)"/>
    <path id="Path_365" data-name="Path 365" class="cls-14" d="M531,246.762A1.389,1.389,0,0,1,532.495,248V267.54c0,.683-.683,1.08-1.485,1.231-11.532,2.152-38.41,3.908-38.41,1.2V250.13c-.024-2.621,18.863-3.582,38.4-3.368Z" transform="translate(-487.223 -244.508)"/>
    <path id="Path_366" data-name="Path 366" class="cls-15" d="M531.125,246.973A1.373,1.373,0,0,1,532.6,248.2v19.237c0,.667-.675,1.056-1.469,1.207-11.421,2.121-38.013,3.844-38.013,1.183V250.285c-.024-2.565,18.665-3.518,38-3.312Z" transform="translate(-487.33 -244.552)"/>
    <path id="Path_367" data-name="Path 367" class="cls-16" d="M531.248,247.183a1.367,1.367,0,0,1,1.461,1.207v18.943c0,.659-.667,1.04-1.453,1.191-11.294,2.089-37.615,3.789-37.615,1.168V250.456c-.016-2.534,18.474-3.471,37.608-3.272Z" transform="translate(-487.437 -244.596)"/>
    <path id="Path_368" data-name="Path 368" class="cls-17" d="M531.37,247.4a1.344,1.344,0,0,1,1.445,1.183v18.649c0,.651-.659,1.025-1.438,1.168-11.175,2.057-37.218,3.733-37.218,1.152V250.62c-.016-2.494,18.276-3.415,37.21-3.217Z" transform="translate(-487.544 -244.641)"/>
    <path id="Path_369" data-name="Path 369" class="cls-18" d="M531.493,247.614a1.327,1.327,0,0,1,1.43,1.168v18.347c0,.635-.651,1.009-1.422,1.152-11.064,2.025-36.821,3.677-36.821,1.136V250.783c-.016-2.454,18.085-3.36,36.813-3.169Z" transform="translate(-487.651 -244.684)"/>
    <path id="Path_370" data-name="Path 370" class="cls-19" d="M531.616,247.834a1.3,1.3,0,0,1,1.414,1.144v18.045c0,.627-.643.993-1.406,1.136-10.937,1.993-36.424,3.614-36.424,1.12V250.955c-.016-2.422,17.886-3.312,36.416-3.121Z" transform="translate(-487.758 -244.73)"/>
    <path id="Path_371" data-name="Path 371" class="cls-20" d="M531.739,248.044a1.288,1.288,0,0,1,1.4,1.128v17.743c0,.612-.635.977-1.39,1.112-10.818,1.962-36.027,3.558-36.027,1.1V251.109c-.016-2.367,17.7-3.256,36.019-3.066Z" transform="translate(-487.865 -244.773)"/>
    <path id="Path_372" data-name="Path 372" class="cls-21" d="M531.864,248.254a1.277,1.277,0,0,1,1.382,1.112v17.45c0,.6-.627.961-1.374,1.1-10.7,1.93-35.622,3.5-35.622,1.088V251.28c-.024-2.335,17.489-3.209,35.614-3.026Z" transform="translate(-487.974 -244.816)"/>
    <path id="Path_373" data-name="Path 373" class="cls-22" d="M531.987,248.474a1.255,1.255,0,0,1,1.366,1.088V266.71c0,.6-.62.945-1.358,1.08-10.579,1.89-35.225,3.447-35.225,1.072V251.445c-.024-2.3,17.3-3.145,35.217-2.97Z" transform="translate(-488.081 -244.862)"/>
    <path id="Path_374" data-name="Path 374" class="cls-23" d="M532.11,248.684a1.238,1.238,0,0,1,1.35,1.072V266.61c0,.58-.612.929-1.342,1.056-10.46,1.859-34.828,3.383-34.828,1.056V251.615c-.024-2.264,17.1-3.105,34.82-2.931Z" transform="translate(-488.188 -244.905)"/>
    <path id="Path_375" data-name="Path 375" class="cls-24" d="M532.233,248.9a1.222,1.222,0,0,1,1.334,1.048V266.5c0,.58-.612.913-1.326,1.04-10.341,1.835-34.43,3.328-34.43,1.04V251.779c-.024-2.216,16.909-3.05,34.422-2.875Z" transform="translate(-488.295 -244.95)"/>
    <path id="Path_376" data-name="Path 376" class="cls-25" d="M532.355,249.115a1.2,1.2,0,0,1,1.318,1.033V266.4c0,.564-.6.9-1.31,1.017-10.222,1.8-34.034,3.272-34.034,1.017v-16.5c-.016-2.16,16.711-2.978,34.026-2.812Z" transform="translate(-488.402 -244.994)"/>
  </g>
  <path id="Path_377" data-name="Path 377" class="cls-26" d="M492.237,271.7c12.978-1.43,25.964,4.908,38.942,3.479a2.207,2.207,0,0,1,1.032.064c-4.376,3.026-37.846.786-40.975-2.923-.008-.008-.016-.381-.016-.389C491.252,271.87,491.442,271.838,492.237,271.7Z" transform="translate(-486.939 -244.467)"/>
  <g id="Group_55" data-name="Group 55" transform="translate(4.273 0)">
    <path id="Path_378" data-name="Path 378" class="cls-27" d="M532.209,253.28v9.11c-13.669,5.766-27.33.445-41,6.219h0c13.669-8.808,27.33-6.521,41-15.329Z" transform="translate(-491.21 -240.722)"/>
    <path id="Path_379" data-name="Path 379" class="cls-28" d="M491.21,238.026a38.2,38.2,0,0,1,13.669.143c-4.559,8.379-9.11,17.164-13.669,27.187v-27.33Z" transform="translate(-491.21 -237.468)"/>
    <path id="Path_380" data-name="Path 380" class="cls-29" d="M504.879,238.35c4.551.731,9.11,1.874,13.661,2.605-9.11,7.649-18.22,13.653-27.33,24.582,4.559-10.023,9.11-18.808,13.669-27.187Z" transform="translate(-491.21 -237.65)"/>
    <path id="Path_381" data-name="Path 381" class="cls-30" d="M518.54,241.63a38.379,38.379,0,0,0,13.669.143v9.11c-13.669,8.808-27.33,6.521-41,15.329,9.11-10.929,18.22-16.933,27.33-24.582Z" transform="translate(-491.21 -238.325)"/>
    <path id="Path_382" data-name="Path 382" class="cls-31" d="M532.209,264.75v9.11c-13.669,2.732-27.33-5.623-41-2.891,13.669-5.774,27.33-.453,41-6.219Z" transform="translate(-491.21 -243.082)"/>
  </g>
</svg>
