<svg id="Group_71" data-name="Group 71" xmlns="http://www.w3.org/2000/svg" viewBox="0 0 45.283 34.618">
  <defs>
    <style>
      .cls-1 {
        fill: #fbfbfb;
      }

      .cls-1, .cls-10, .cls-11, .cls-12, .cls-13, .cls-14, .cls-15, .cls-16, .cls-17, .cls-18, .cls-19, .cls-2, .cls-20, .cls-21, .cls-22, .cls-23, .cls-24, .cls-25, .cls-27, .cls-28, .cls-29, .cls-3, .cls-4, .cls-5, .cls-6, .cls-7, .cls-8, .cls-9 {
        fill-rule: evenodd;
      }

      .cls-2 {
        fill: #f7f7f7;
      }

      .cls-3 {
        fill: #f3f3f3;
      }

      .cls-4 {
        fill: #efefef;
      }

      .cls-5 {
        fill: #ebebeb;
      }

      .cls-6 {
        fill: #e7e7e7;
      }

      .cls-7 {
        fill: #e4e4e4;
      }

      .cls-8 {
        fill: #e0e0e0;
      }

      .cls-9 {
        fill: #dcdcdc;
      }

      .cls-10 {
        fill: #d8d8d8;
      }

      .cls-11 {
        fill: #d4d4d4;
      }

      .cls-12 {
        fill: #d0d0d0;
      }

      .cls-13 {
        fill: #ccc;
      }

      .cls-14 {
        fill: #c8c8c8;
      }

      .cls-15 {
        fill: #c4c4c4;
      }

      .cls-16 {
        fill: silver;
      }

      .cls-17 {
        fill: #bcbcbc;
      }

      .cls-18 {
        fill: #b8b8b8;
      }

      .cls-19 {
        fill: #b4b4b4;
      }

      .cls-20 {
        fill: #b1b1b1;
      }

      .cls-21 {
        fill: #adadad;
      }

      .cls-22 {
        fill: #a9a9a9;
      }

      .cls-23 {
        fill: #a5a5a5;
      }

      .cls-24 {
        fill: #a1a1a1;
      }

      .cls-25 {
        fill: #9d9d9d;
      }

      .cls-26 {
        fill: #065ebf;
      }

      .cls-27 {
        fill: #ffde27;
      }

      .cls-28 {
        fill: #2489f0;
      }

      .cls-29 {
        fill: #47b71d;
      }
    </style>
  </defs>
  <g id="Group_13" data-name="Group 13" transform="translate(0 5.133)">
    <path id="Path_92" data-name="Path 92" class="cls-1" d="M529.376,64.22a1.6,1.6,0,0,1,1.692,1.485V89.128c0,.818-.77,1.295-1.684,1.469C516.3,93.17,485.82,95.251,485.82,92.011V68.223c-.016-3.129,21.4-4.273,43.556-4Z" transform="translate(-485.82 -64.182)"/>
    <path id="Path_93" data-name="Path 93" class="cls-2" d="M529.5,64.431a1.592,1.592,0,0,1,1.676,1.469V89.028c0,.8-.762,1.279-1.668,1.453-12.962,2.542-43.167,4.6-43.167,1.4V68.394c-.016-3.1,21.206-4.225,43.159-3.963Z" transform="translate(-485.927 -64.226)"/>
    <path id="Path_94" data-name="Path 94" class="cls-3" d="M529.624,64.641a1.58,1.58,0,0,1,1.66,1.453V88.921c0,.794-.754,1.263-1.652,1.438-12.843,2.51-42.762,4.543-42.762,1.382V68.557c-.024-3.058,21-4.17,42.754-3.916Z" transform="translate(-486.036 -64.269)"/>
    <path id="Path_95" data-name="Path 95" class="cls-4" d="M529.747,64.861a1.563,1.563,0,0,1,1.644,1.43V88.823c0,.786-.747,1.239-1.636,1.414-12.724,2.478-42.365,4.48-42.365,1.366V68.729c-.024-3.018,20.8-4.122,42.357-3.868Z" transform="translate(-486.143 -64.314)"/>
    <path id="Path_96" data-name="Path 96" class="cls-5" d="M529.87,65.071a1.541,1.541,0,0,1,1.628,1.414V88.716c0,.77-.746,1.231-1.62,1.4-12.6,2.446-41.968,4.424-41.968,1.35V68.892c-.024-2.978,20.611-4.067,41.96-3.82Z" transform="translate(-486.25 -64.358)"/>
    <path id="Path_97" data-name="Path 97" class="cls-6" d="M529.993,65.291a1.529,1.529,0,0,1,1.612,1.4V88.618c0,.762-.739,1.207-1.6,1.374C517.515,92.4,488.43,94.36,488.43,91.326V69.055c-.024-2.939,20.412-4.019,41.563-3.765Z" transform="translate(-486.357 -64.403)"/>
    <path id="Path_98" data-name="Path 98" class="cls-7" d="M530.116,65.5a1.5,1.5,0,0,1,1.6,1.374V88.5c0,.755-.731,1.191-1.589,1.358-12.366,2.383-41.174,4.3-41.174,1.318V69.211c-.024-2.891,20.221-3.947,41.166-3.709Z" transform="translate(-486.464 -64.447)"/>
    <path id="Path_99" data-name="Path 99" class="cls-8" d="M530.239,65.712a1.484,1.484,0,0,1,1.581,1.358V88.4c0,.739-.723,1.175-1.573,1.342C518,92.089,489.47,94,489.47,91.048V69.381c-.024-2.851,20.023-3.9,40.769-3.669Z" transform="translate(-486.571 -64.49)"/>
    <path id="Path_100" data-name="Path 100" class="cls-9" d="M530.362,65.931a1.466,1.466,0,0,1,1.565,1.334V88.3c0,.731-.715,1.16-1.557,1.318-12.128,2.311-40.379,4.194-40.379,1.287V69.545c-.024-2.812,19.832-3.852,40.372-3.614Z" transform="translate(-486.678 -64.535)"/>
    <path id="Path_101" data-name="Path 101" class="cls-10" d="M530.484,66.142a1.455,1.455,0,0,1,1.549,1.318V88.19c0,.723-.707,1.144-1.541,1.3-12.009,2.279-39.982,4.138-39.982,1.271V69.708c-.024-2.772,19.634-3.8,39.974-3.566Z" transform="translate(-486.785 -64.579)"/>
    <path id="Path_102" data-name="Path 102" class="cls-11" d="M530.609,66.362a1.438,1.438,0,0,1,1.533,1.3V88.1c0,.707-.7,1.128-1.525,1.287-11.89,2.248-39.577,4.074-39.577,1.255V69.889c-.024-2.748,19.435-3.749,39.569-3.526Z" transform="translate(-486.894 -64.624)"/>
    <path id="Path_103" data-name="Path 103" class="cls-12" d="M530.734,66.572a1.429,1.429,0,0,1,1.525,1.279V87.985c0,.7-.691,1.112-1.509,1.263-11.771,2.216-39.18,4.019-39.18,1.231V70.027c-.032-2.685,19.229-3.677,39.164-3.455Z" transform="translate(-487.003 -64.668)"/>
    <path id="Path_104" data-name="Path 104" class="cls-13" d="M530.857,66.783a1.412,1.412,0,0,1,1.509,1.263v19.84c0,.691-.683,1.1-1.493,1.247-11.651,2.184-38.783,3.963-38.783,1.215V70.2c-.032-2.645,19.038-3.63,38.767-3.415Z" transform="translate(-487.11 -64.711)"/>
    <path id="Path_105" data-name="Path 105" class="cls-14" d="M530.978,67a1.382,1.382,0,0,1,1.485,1.239V87.78c0,.683-.683,1.08-1.477,1.231-11.532,2.152-38.386,3.908-38.386,1.2V70.37c-.024-2.613,18.847-3.582,38.378-3.368Z" transform="translate(-487.215 -64.756)"/>
    <path id="Path_106" data-name="Path 106" class="cls-15" d="M531.1,67.213a1.373,1.373,0,0,1,1.477,1.223V87.673c0,.667-.675,1.056-1.461,1.207C519.705,91,493.13,92.724,493.13,90.063V70.525c-.032-2.565,18.641-3.519,37.973-3.312Z" transform="translate(-487.324 -64.8)"/>
    <path id="Path_107" data-name="Path 107" class="cls-16" d="M531.224,67.433a1.356,1.356,0,0,1,1.461,1.207V87.583c0,.659-.667,1.04-1.453,1.191-11.286,2.089-37.592,3.789-37.592,1.168V70.705c-.024-2.542,18.458-3.479,37.584-3.272Z" transform="translate(-487.429 -64.845)"/>
    <path id="Path_108" data-name="Path 108" class="cls-17" d="M531.346,67.643a1.339,1.339,0,0,1,1.446,1.183V87.468c0,.643-.659,1.025-1.438,1.168-11.175,2.057-37.195,3.733-37.195,1.152V70.852c-.024-2.478,18.26-3.407,37.187-3.209Z" transform="translate(-487.536 -64.889)"/>
    <path id="Path_109" data-name="Path 109" class="cls-18" d="M531.459,67.863a1.327,1.327,0,0,1,1.43,1.168V87.378c0,.635-.651,1.009-1.422,1.152-11.056,2.025-36.8,3.677-36.8,1.136V71.04c-.016-2.462,18.077-3.376,36.79-3.177Z" transform="translate(-487.641 -64.934)"/>
    <path id="Path_110" data-name="Path 110" class="cls-19" d="M531.584,68.074A1.3,1.3,0,0,1,533,69.217V87.263c0,.627-.643.993-1.406,1.136-10.929,1.994-36.392,3.614-36.392,1.12V71.195c-.024-2.415,17.871-3.312,36.384-3.121Z" transform="translate(-487.75 -64.978)"/>
    <path id="Path_111" data-name="Path 111" class="cls-20" d="M531.707,68.294a1.288,1.288,0,0,1,1.4,1.128V87.173c0,.62-.635.977-1.39,1.112-10.81,1.954-36,3.558-36,1.1V71.367c-.024-2.383,17.68-3.264,35.987-3.074Z" transform="translate(-487.857 -65.023)"/>
    <path id="Path_112" data-name="Path 112" class="cls-21" d="M531.83,68.5a1.277,1.277,0,0,1,1.382,1.112v17.45c0,.6-.627.961-1.374,1.1-10.69,1.93-35.6,3.5-35.6,1.088V71.53c-.024-2.343,17.481-3.209,35.59-3.026Z" transform="translate(-487.964 -65.066)"/>
    <path id="Path_113" data-name="Path 113" class="cls-22" d="M531.953,68.714a1.255,1.255,0,0,1,1.366,1.088V86.95c0,.6-.619.945-1.358,1.08-10.571,1.89-35.2,3.447-35.2,1.072V71.685c-.024-2.287,17.291-3.145,35.193-2.97Z" transform="translate(-488.071 -65.11)"/>
    <path id="Path_114" data-name="Path 114" class="cls-23" d="M532.076,68.934a1.238,1.238,0,0,1,1.35,1.072V86.852c0,.588-.612.929-1.342,1.056-10.452,1.859-34.8,3.383-34.8,1.056V71.857c-.016-2.256,17.092-3.1,34.8-2.923Z" transform="translate(-488.178 -65.155)"/>
    <path id="Path_115" data-name="Path 115" class="cls-24" d="M532.2,69.145a1.222,1.222,0,0,1,1.334,1.048V86.745c0,.572-.612.913-1.326,1.04-10.333,1.827-34.407,3.328-34.407,1.04V72.02c-.016-2.216,16.9-3.042,34.4-2.875Z" transform="translate(-488.285 -65.199)"/>
    <path id="Path_116" data-name="Path 116" class="cls-25" d="M532.322,69.365A1.205,1.205,0,0,1,533.64,70.4v16.25c0,.564-.6.9-1.311,1.025-10.214,1.795-34.01,3.272-34.01,1.025v-16.5c-.016-2.184,16.7-2.994,34-2.828Z" transform="translate(-488.392 -65.244)"/>
  </g>
  <path id="Path_117" data-name="Path 117" class="cls-26" d="M492.237,91.945c12.978-1.43,25.964,4.916,38.942,3.479a2.208,2.208,0,0,1,1.032.064c-4.376,3.026-37.846.786-40.975-2.915-.008-.008-.016-.381-.016-.389C491.252,92.112,491.442,92.08,492.237,91.945Z" transform="translate(-486.931 -64.718)"/>
  <g id="Group_14" data-name="Group 14" transform="translate(4.281)">
    <path id="Path_118" data-name="Path 118" class="cls-27" d="M532.209,81.747v-9.11c-13.669,2.732-27.33-5.623-41-2.891v9.11c13.669-2.732,27.33,5.623,41,2.891Z" transform="translate(-491.21 -60.079)"/>
    <path id="Path_119" data-name="Path 119" class="cls-28" d="M491.21,90.326c13.661-2.732,27.33,5.623,41,2.891v-9.11c-13.669,2.732-27.33-5.623-41-2.891q0,4.551,0,9.11Z" transform="translate(-491.21 -62.439)"/>
    <path id="Path_120" data-name="Path 120" class="cls-29" d="M491.21,67.386c13.661-2.732,27.33,5.623,41,2.891v-9.11c-13.669,2.732-27.33-5.623-41-2.891q0,4.551,0,9.11Z" transform="translate(-491.21 -57.719)"/>
  </g>
</svg>
