<svg id="Group_72" data-name="Group 72" xmlns="http://www.w3.org/2000/svg" viewBox="0 0 45.28 34.626">
  <defs>
    <style>
      .cls-1 {
        fill: #fbfbfb;
      }

      .cls-1, .cls-10, .cls-11, .cls-12, .cls-13, .cls-14, .cls-15, .cls-16, .cls-17, .cls-18, .cls-19, .cls-2, .cls-20, .cls-21, .cls-22, .cls-23, .cls-24, .cls-25, .cls-3, .cls-31, .cls-32, .cls-33, .cls-34, .cls-4, .cls-5, .cls-6, .cls-7, .cls-8, .cls-9 {
        fill-rule: evenodd;
      }

      .cls-2 {
        fill: #f7f7f7;
      }

      .cls-3 {
        fill: #f3f3f3;
      }

      .cls-4 {
        fill: #efefef;
      }

      .cls-5 {
        fill: #ebebeb;
      }

      .cls-6 {
        fill: #e7e7e7;
      }

      .cls-7 {
        fill: #e4e4e4;
      }

      .cls-8 {
        fill: #e0e0e0;
      }

      .cls-9 {
        fill: #dcdcdc;
      }

      .cls-10 {
        fill: #d8d8d8;
      }

      .cls-11 {
        fill: #d4d4d4;
      }

      .cls-12 {
        fill: #d0d0d0;
      }

      .cls-13 {
        fill: #ccc;
      }

      .cls-14 {
        fill: #c8c8c8;
      }

      .cls-15 {
        fill: #c4c4c4;
      }

      .cls-16 {
        fill: silver;
      }

      .cls-17 {
        fill: #bcbcbc;
      }

      .cls-18 {
        fill: #b8b8b8;
      }

      .cls-19 {
        fill: #b4b4b4;
      }

      .cls-20 {
        fill: #b1b1b1;
      }

      .cls-21 {
        fill: #adadad;
      }

      .cls-22 {
        fill: #a9a9a9;
      }

      .cls-23 {
        fill: #a5a5a5;
      }

      .cls-24 {
        fill: #a1a1a1;
      }

      .cls-25 {
        fill: #9d9d9d;
      }

      .cls-26 {
        fill: #02660a;
      }

      .cls-27, .cls-31, .cls-33 {
        fill: #f4f4f4;
      }

      .cls-28 {
        fill: #030303;
      }

      .cls-29 {
        fill: #00840f;
      }

      .cls-30, .cls-32 {
        fill: #d20714;
      }

      .cls-31 {
        stroke: #000;
        stroke-miterlimit: 2.414;
        stroke-width: 0.029px;
      }
    </style>
  </defs>
  <g id="Group_17" data-name="Group 17" transform="translate(0 5.141)">
    <path id="Path_122" data-name="Path 122" class="cls-1" d="M689.98,64.22a1.614,1.614,0,0,1,1.692,1.485V89.128c0,.81-.77,1.287-1.684,1.469C676.9,93.17,646.4,95.251,646.4,92.011V68.223c-.024-3.129,21.4-4.273,43.58-4Z" transform="translate(-646.4 -64.182)"/>
    <path id="Path_123" data-name="Path 123" class="cls-2" d="M690.1,64.431a1.592,1.592,0,0,1,1.676,1.469V89.028c0,.8-.762,1.279-1.668,1.453-12.97,2.542-43.191,4.6-43.191,1.4V68.394c-.024-3.1,21.214-4.225,43.183-3.963Z" transform="translate(-646.507 -64.226)"/>
    <path id="Path_124" data-name="Path 124" class="cls-3" d="M690.226,64.641a1.58,1.58,0,0,1,1.66,1.453V88.921c0,.794-.763,1.263-1.652,1.438-12.851,2.51-42.794,4.543-42.794,1.382V68.557c-.024-3.058,21.016-4.17,42.786-3.916Z" transform="translate(-646.614 -64.269)"/>
    <path id="Path_125" data-name="Path 125" class="cls-4" d="M690.349,64.861a1.557,1.557,0,0,1,1.644,1.43V88.823c0,.786-.747,1.239-1.636,1.414-12.732,2.478-42.4,4.487-42.4,1.366V68.721c-.024-3.01,20.825-4.114,42.389-3.86Z" transform="translate(-646.721 -64.314)"/>
    <path id="Path_126" data-name="Path 126" class="cls-5" d="M690.472,65.071a1.541,1.541,0,0,1,1.628,1.414V88.716c0,.77-.747,1.223-1.62,1.4-12.613,2.446-42,4.424-42,1.35V68.892c-.024-2.978,20.627-4.067,41.992-3.82Z" transform="translate(-646.828 -64.358)"/>
    <path id="Path_127" data-name="Path 127" class="cls-6" d="M690.594,65.291a1.524,1.524,0,0,1,1.612,1.4V88.618c0,.762-.739,1.207-1.6,1.374C678.109,92.4,649,94.36,649,91.326V69.055c-.016-2.939,20.436-4.019,41.594-3.765Z" transform="translate(-646.935 -64.403)"/>
    <path id="Path_128" data-name="Path 128" class="cls-7" d="M690.719,65.5a1.5,1.5,0,0,1,1.6,1.374V88.5c0,.755-.731,1.191-1.589,1.358-12.374,2.383-41.2,4.3-41.2,1.318V69.211c-.024-2.891,20.229-3.947,41.189-3.709Z" transform="translate(-647.044 -64.447)"/>
    <path id="Path_129" data-name="Path 129" class="cls-8" d="M690.842,65.721a1.484,1.484,0,0,1,1.581,1.358V88.413c0,.739-.723,1.175-1.573,1.342-12.255,2.343-40.8,4.249-40.8,1.3V69.39c-.024-2.859,20.039-3.916,40.792-3.669Z" transform="translate(-647.151 -64.492)"/>
    <path id="Path_130" data-name="Path 130" class="cls-9" d="M690.965,65.931a1.467,1.467,0,0,1,1.565,1.334V88.3c0,.731-.715,1.16-1.557,1.318-12.136,2.311-40.4,4.194-40.4,1.279V69.537c-.024-2.8,19.84-3.844,40.4-3.606Z" transform="translate(-647.258 -64.535)"/>
    <path id="Path_131" data-name="Path 131" class="cls-10" d="M691.09,66.142a1.463,1.463,0,0,1,1.557,1.318V88.19c0,.723-.707,1.144-1.541,1.3-12.017,2.28-40.006,4.138-40.006,1.263V69.7c-.032-2.764,19.642-3.789,39.99-3.558Z" transform="translate(-647.367 -64.579)"/>
    <path id="Path_132" data-name="Path 132" class="cls-11" d="M691.213,66.362a1.441,1.441,0,0,1,1.541,1.3V88.1c0,.707-.7,1.128-1.525,1.279-11.9,2.248-39.609,4.074-39.609,1.255V69.88c-.032-2.74,19.443-3.749,39.593-3.519Z" transform="translate(-647.474 -64.624)"/>
    <path id="Path_133" data-name="Path 133" class="cls-12" d="M691.334,66.572a1.423,1.423,0,0,1,1.525,1.279V87.985c0,.7-.691,1.112-1.517,1.263-11.771,2.216-39.212,4.019-39.212,1.239V70.035c-.024-2.692,19.253-3.685,39.2-3.463Z" transform="translate(-647.579 -64.668)"/>
    <path id="Path_134" data-name="Path 134" class="cls-13" d="M691.459,66.792a1.412,1.412,0,0,1,1.509,1.263V87.9c0,.691-.691,1.1-1.5,1.247-11.66,2.184-38.807,3.963-38.807,1.215V70.207c-.032-2.653,19.054-3.638,38.8-3.415Z" transform="translate(-647.688 -64.713)"/>
    <path id="Path_135" data-name="Path 135" class="cls-14" d="M691.584,67a1.39,1.39,0,0,1,1.493,1.239V87.78c0,.675-.683,1.08-1.477,1.231-11.541,2.152-38.41,3.908-38.41,1.2V70.37c-.04-2.613,18.847-3.582,38.394-3.368Z" transform="translate(-647.797 -64.756)"/>
    <path id="Path_136" data-name="Path 136" class="cls-15" d="M691.7,67.213a1.373,1.373,0,0,1,1.477,1.223V87.673c0,.667-.675,1.056-1.461,1.207C680.291,91,653.7,92.724,653.7,90.063V70.525c-.024-2.565,18.665-3.519,38-3.312Z" transform="translate(-647.902 -64.8)"/>
    <path id="Path_137" data-name="Path 137" class="cls-16" d="M691.828,67.433a1.361,1.361,0,0,1,1.461,1.207V87.583c0,.659-.667,1.04-1.453,1.191-11.294,2.089-37.615,3.789-37.615,1.168V70.705c-.024-2.542,18.466-3.479,37.607-3.272Z" transform="translate(-648.009 -64.845)"/>
    <path id="Path_138" data-name="Path 138" class="cls-17" d="M691.95,67.643a1.333,1.333,0,0,1,1.446,1.183V87.468c0,.643-.659,1.025-1.437,1.168-11.175,2.057-37.218,3.733-37.218,1.152V70.852c-.024-2.478,18.276-3.407,37.21-3.209Z" transform="translate(-648.116 -64.889)"/>
    <path id="Path_139" data-name="Path 139" class="cls-18" d="M692.063,67.863a1.327,1.327,0,0,1,1.43,1.168V87.378c0,.635-.651,1.009-1.422,1.152-11.064,2.017-36.821,3.677-36.821,1.136V71.032c-.016-2.454,18.085-3.368,36.813-3.169Z" transform="translate(-648.221 -64.934)"/>
    <path id="Path_140" data-name="Path 140" class="cls-19" d="M692.188,68.074a1.3,1.3,0,0,1,1.414,1.144V87.263c0,.627-.643.993-1.406,1.136-10.937,1.994-36.416,3.614-36.416,1.12V71.195c-.024-2.415,17.886-3.312,36.408-3.121Z" transform="translate(-648.33 -64.978)"/>
    <path id="Path_141" data-name="Path 141" class="cls-20" d="M692.311,68.294a1.288,1.288,0,0,1,1.4,1.128V87.165c0,.62-.635.977-1.39,1.112-10.818,1.962-36.019,3.558-36.019,1.1V71.359c-.024-2.375,17.688-3.256,36.011-3.066Z" transform="translate(-648.437 -65.023)"/>
    <path id="Path_142" data-name="Path 142" class="cls-21" d="M692.434,68.5a1.277,1.277,0,0,1,1.382,1.112v17.45c0,.6-.627.961-1.374,1.1-10.7,1.922-35.622,3.5-35.622,1.088V71.53c-.024-2.343,17.5-3.209,35.614-3.026Z" transform="translate(-648.544 -65.066)"/>
    <path id="Path_143" data-name="Path 143" class="cls-22" d="M692.557,68.714a1.255,1.255,0,0,1,1.366,1.088V86.95c0,.6-.619.945-1.358,1.08-10.579,1.89-35.225,3.447-35.225,1.072V71.685c-.024-2.287,17.3-3.145,35.217-2.97Z" transform="translate(-648.651 -65.11)"/>
    <path id="Path_144" data-name="Path 144" class="cls-23" d="M692.68,68.934a1.238,1.238,0,0,1,1.35,1.072V86.852c0,.58-.62.929-1.342,1.056-10.46,1.859-34.828,3.383-34.828,1.056V71.857c-.016-2.256,17.1-3.1,34.82-2.923Z" transform="translate(-648.758 -65.155)"/>
    <path id="Path_145" data-name="Path 145" class="cls-24" d="M692.8,69.145a1.222,1.222,0,0,1,1.334,1.048V86.745c0,.572-.612.913-1.326,1.04-10.341,1.835-34.43,3.328-34.43,1.04V72.02c-.016-2.216,16.909-3.042,34.422-2.875Z" transform="translate(-648.865 -65.199)"/>
    <path id="Path_146" data-name="Path 146" class="cls-25" d="M692.925,69.365a1.2,1.2,0,0,1,1.319,1.033v16.25c0,.564-.6.9-1.311,1.025C682.711,89.467,658.9,90.944,658.9,88.7v-16.5c-.016-2.184,16.711-2.994,34.026-2.828Z" transform="translate(-648.972 -65.244)"/>
  </g>
  <path id="Path_147" data-name="Path 147" class="cls-26" d="M652.807,91.945c12.978-1.43,25.964,4.908,38.942,3.479a2.207,2.207,0,0,1,1.032.064c-4.376,3.026-37.846.778-40.975-2.923-.008-.008-.016-.381-.016-.389C651.822,92.112,652.02,92.08,652.807,91.945Z" transform="translate(-647.509 -64.71)"/>
  <g id="Group_19" data-name="Group 19" transform="translate(4.273 0)">
    <path id="Path_148" data-name="Path 148" class="cls-27" d="M651.78,58.266c13.661-2.732,27.33,5.623,40.991,2.891v27.33c-13.669,2.732-27.33-5.623-40.991-2.891V58.266Z" transform="translate(-651.78 -57.709)"/>
    <path id="Path_149" data-name="Path 149" class="cls-28" d="M651.78,58.266c13.661-2.732,27.33,5.623,40.991,2.891v8.2c-13.669,2.732-27.33-5.623-40.991-2.891v-8.2Z" transform="translate(-651.78 -57.709)"/>
    <path id="Path_150" data-name="Path 150" class="cls-29" d="M651.78,82.356c13.661-2.732,27.33,5.623,40.991,2.891v8.2c-13.669,2.732-27.33-5.623-40.991-2.891v-8.2Z" transform="translate(-651.78 -62.666)"/>
    <path id="Path_151" data-name="Path 151" class="cls-30" d="M651.78,70.34v8.2c17.188-2.375,23.8,5.266,40.991,2.891v-8.2C675.52,75.6,669.039,67.965,651.78,70.34Z" transform="translate(-651.78 -60.212)"/>
    <g id="Group_18" data-name="Group 18" transform="translate(15.011 5.711)">
      <path id="Path_152" data-name="Path 152" class="cls-31" d="M670.68,64.9c0-.008,2.883,3.28,2.446,4.329,2.645,5.083,5.29,10.222,7.934,15.265-.119.048-.238.1-.357.151-2.645-5.059-5.282-10.214-7.919-15.305,0,0-1.033-.1-2.1-4.44Z" transform="translate(-670.68 -64.9)"/>
      <path id="Path_153" data-name="Path 153" class="cls-31" d="M681.811,67.61c0,.008-2.883,2.208-2.446,3.407-2.645,4.043-5.29,8.014-7.935,12.1.119.1.238.191.358.278,2.645-4.082,5.282-8.07,7.919-12.128,0,0,1.041.31,2.1-3.654Z" transform="translate(-670.834 -65.458)"/>
      <path id="Path_154" data-name="Path 154" class="cls-32" d="M676.549,84.239s.445.167,1.247-.6a9.576,9.576,0,0,0,2.812-6.68c0-4.019-2.931-8.729-4.059-8.967s-4.059,3.3-4.059,7.339a14.492,14.492,0,0,0,2.812,7.8c.8,1.088,1.247,1.1,1.247,1.1Z" transform="translate(-671.052 -65.535)"/>
      <path id="Path_155" data-name="Path 155" class="cls-33" d="M677.82,68.12v7.021a6.81,6.81,0,0,0,.667-3.383,8.731,8.731,0,0,0-.667-3.638Z" transform="translate(-672.149 -65.563)"/>
      <path id="Path_156" data-name="Path 156" class="cls-33" d="M677.82,79.55v7.021a6.809,6.809,0,0,0,.667-3.383,8.731,8.731,0,0,0-.667-3.638Z" transform="translate(-672.149 -67.914)"/>
      <path id="Path_157" data-name="Path 157" class="cls-33" d="M677.424,76.967c.9.175.9,2.208,0,2.017s-.906-2.208,0-2.017Z" transform="translate(-671.928 -67.38)"/>
      <path id="Path_158" data-name="Path 158" class="cls-34" d="M681.42,82.054a9.266,9.266,0,0,0,.85-3.836,12.217,12.217,0,0,0-.85-4.178,9.632,9.632,0,0,0-.85,3.844,11.924,11.924,0,0,0,.85,4.17Z" transform="translate(-672.715 -66.781)"/>
      <path id="Path_159" data-name="Path 159" class="cls-33" d="M677.207,68.03v7.021a8.812,8.812,0,0,1-.667-3.654,6.738,6.738,0,0,1,.667-3.368Z" transform="translate(-671.886 -65.544)"/>
      <path id="Path_160" data-name="Path 160" class="cls-33" d="M677.207,79.46v7.021a8.812,8.812,0,0,1-.667-3.654,6.738,6.738,0,0,1,.667-3.368Z" transform="translate(-671.886 -67.896)"/>
      <path id="Path_161" data-name="Path 161" class="cls-34" d="M673.33,80.422a11.58,11.58,0,0,1-.85-4.17,9.673,9.673,0,0,1,.85-3.852,12.213,12.213,0,0,1,.85,4.178,9.15,9.15,0,0,1-.85,3.844Z" transform="translate(-671.05 -66.443)"/>
    </g>
  </g>
</svg>
