<svg id="Group_73" data-name="Group 73" xmlns="http://www.w3.org/2000/svg" viewBox="0 0 45.274 34.633">
  <defs>
    <style>
      .cls-1 {
        fill: #fbfbfb;
      }

      .cls-1, .cls-10, .cls-11, .cls-12, .cls-13, .cls-14, .cls-15, .cls-16, .cls-17, .cls-18, .cls-19, .cls-2, .cls-20, .cls-21, .cls-22, .cls-23, .cls-24, .cls-25, .cls-27, .cls-28, .cls-29, .cls-3, .cls-4, .cls-5, .cls-6, .cls-7, .cls-8, .cls-9 {
        fill-rule: evenodd;
      }

      .cls-2 {
        fill: #f7f7f7;
      }

      .cls-3 {
        fill: #f3f3f3;
      }

      .cls-4 {
        fill: #efefef;
      }

      .cls-5 {
        fill: #ebebeb;
      }

      .cls-6 {
        fill: #e7e7e7;
      }

      .cls-7 {
        fill: #e4e4e4;
      }

      .cls-8 {
        fill: #e0e0e0;
      }

      .cls-9 {
        fill: #dcdcdc;
      }

      .cls-10 {
        fill: #d8d8d8;
      }

      .cls-11 {
        fill: #d4d4d4;
      }

      .cls-12 {
        fill: #d0d0d0;
      }

      .cls-13 {
        fill: #ccc;
      }

      .cls-14 {
        fill: #c8c8c8;
      }

      .cls-15 {
        fill: #c4c4c4;
      }

      .cls-16 {
        fill: silver;
      }

      .cls-17 {
        fill: #bcbcbc;
      }

      .cls-18 {
        fill: #b8b8b8;
      }

      .cls-19 {
        fill: #b4b4b4;
      }

      .cls-20 {
        fill: #b1b1b1;
      }

      .cls-21 {
        fill: #adadad;
      }

      .cls-22 {
        fill: #a9a9a9;
      }

      .cls-23 {
        fill: #a5a5a5;
      }

      .cls-24 {
        fill: #a1a1a1;
      }

      .cls-25 {
        fill: #9d9d9d;
      }

      .cls-26 {
        fill: #319109;
      }

      .cls-27 {
        fill: #f4f4f4;
      }

      .cls-28 {
        fill: #47b71d;
      }

      .cls-29 {
        fill: #fb2f05;
      }
    </style>
  </defs>
  <g id="Group_21" data-name="Group 21" transform="translate(0 5.14)">
    <path id="Path_163" data-name="Path 163" class="cls-1" d="M869.16,64.22a1.61,1.61,0,0,1,1.692,1.493V89.136c0,.818-.77,1.287-1.684,1.469-13.089,2.573-43.588,4.654-43.588,1.414V68.231c-.032-3.137,21.4-4.281,43.58-4.011Z" transform="translate(-825.58 -64.182)"/>
    <path id="Path_164" data-name="Path 164" class="cls-2" d="M869.283,64.431a1.592,1.592,0,0,1,1.676,1.469V89.028c0,.8-.763,1.279-1.668,1.453-12.97,2.542-43.191,4.6-43.191,1.4V68.394c-.024-3.1,21.206-4.225,43.183-3.963Z" transform="translate(-825.687 -64.226)"/>
    <path id="Path_165" data-name="Path 165" class="cls-3" d="M869.406,64.641a1.58,1.58,0,0,1,1.66,1.453V88.921c0,.794-.755,1.263-1.652,1.438-12.851,2.51-42.794,4.535-42.794,1.382V68.557c-.024-3.058,21.016-4.17,42.786-3.916Z" transform="translate(-825.794 -64.269)"/>
    <path id="Path_166" data-name="Path 166" class="cls-4" d="M869.529,64.861a1.563,1.563,0,0,1,1.644,1.43V88.815c0,.786-.747,1.239-1.636,1.414-12.732,2.478-42.4,4.487-42.4,1.366V68.713c-.024-3,20.817-4.106,42.389-3.852Z" transform="translate(-825.901 -64.314)"/>
    <path id="Path_167" data-name="Path 167" class="cls-5" d="M869.652,65.071a1.535,1.535,0,0,1,1.628,1.414V88.716c0,.77-.747,1.223-1.62,1.4-12.613,2.446-42,4.424-42,1.35V68.884c-.024-2.97,20.627-4.059,41.992-3.812Z" transform="translate(-826.008 -64.358)"/>
    <path id="Path_168" data-name="Path 168" class="cls-6" d="M869.775,65.291a1.524,1.524,0,0,1,1.612,1.4V88.618c0,.762-.739,1.207-1.6,1.374-12.494,2.407-41.6,4.368-41.6,1.334V69.055c-.024-2.939,20.428-4.019,41.595-3.765Z" transform="translate(-826.115 -64.403)"/>
    <path id="Path_169" data-name="Path 169" class="cls-7" d="M869.9,65.5a1.506,1.506,0,0,1,1.6,1.374V88.5c0,.755-.731,1.191-1.589,1.358-12.374,2.383-41.2,4.313-41.2,1.318V69.211c-.032-2.891,20.221-3.947,41.19-3.709Z" transform="translate(-826.224 -64.447)"/>
    <path id="Path_170" data-name="Path 170" class="cls-8" d="M870.023,65.721a1.484,1.484,0,0,1,1.58,1.358V88.413c0,.739-.723,1.175-1.573,1.334-12.255,2.351-40.8,4.249-40.8,1.3V69.383c-.032-2.851,20.031-3.908,40.792-3.661Z" transform="translate(-826.331 -64.492)"/>
    <path id="Path_171" data-name="Path 171" class="cls-9" d="M870.135,65.931a1.467,1.467,0,0,1,1.565,1.334V88.3c0,.731-.715,1.16-1.557,1.318-12.136,2.311-40.4,4.194-40.4,1.287V69.545c-.016-2.812,19.84-3.852,40.4-3.614Z" transform="translate(-826.436 -64.535)"/>
    <path id="Path_172" data-name="Path 172" class="cls-10" d="M870.26,66.142a1.463,1.463,0,0,1,1.557,1.318V88.2c0,.723-.707,1.144-1.541,1.3-12.017,2.279-40.006,4.138-40.006,1.263V69.708c-.024-2.772,19.642-3.8,39.99-3.566Z" transform="translate(-826.545 -64.579)"/>
    <path id="Path_173" data-name="Path 173" class="cls-11" d="M870.383,66.362a1.441,1.441,0,0,1,1.541,1.3V88.1c0,.707-.7,1.128-1.525,1.287-11.9,2.248-39.609,4.074-39.609,1.255V69.888c-.024-2.748,19.443-3.757,39.593-3.526Z" transform="translate(-826.652 -64.624)"/>
    <path id="Path_174" data-name="Path 174" class="cls-12" d="M870.506,66.572a1.429,1.429,0,0,1,1.525,1.279V87.985c0,.7-.691,1.112-1.509,1.263-11.779,2.216-39.212,4.019-39.212,1.239V70.035c-.024-2.692,19.253-3.685,39.2-3.463Z" transform="translate(-826.759 -64.668)"/>
    <path id="Path_175" data-name="Path 175" class="cls-13" d="M870.629,66.792a1.412,1.412,0,0,1,1.509,1.263V87.9c0,.691-.683,1.1-1.5,1.247-11.659,2.184-38.807,3.963-38.807,1.223V70.215c-.024-2.661,19.054-3.646,38.8-3.423Z" transform="translate(-826.866 -64.713)"/>
    <path id="Path_176" data-name="Path 176" class="cls-14" d="M870.752,67a1.39,1.39,0,0,1,1.493,1.239V87.78c0,.683-.683,1.08-1.485,1.223-11.54,2.152-38.409,3.908-38.409,1.207V70.37c-.024-2.613,18.863-3.582,38.4-3.368Z" transform="translate(-826.973 -64.756)"/>
    <path id="Path_177" data-name="Path 177" class="cls-15" d="M870.877,67.213a1.373,1.373,0,0,1,1.477,1.223V87.673c0,.667-.675,1.056-1.461,1.207C859.471,91,832.88,92.724,832.88,90.063V70.525c-.032-2.565,18.657-3.519,38-3.312Z" transform="translate(-827.082 -64.8)"/>
    <path id="Path_178" data-name="Path 178" class="cls-16" d="M871,67.433a1.356,1.356,0,0,1,1.461,1.207V87.583c0,.659-.667,1.04-1.453,1.191-11.294,2.089-37.615,3.789-37.615,1.168V70.705c-.024-2.542,18.474-3.479,37.607-3.272Z" transform="translate(-827.187 -64.845)"/>
    <path id="Path_179" data-name="Path 179" class="cls-17" d="M871.12,67.643a1.339,1.339,0,0,1,1.445,1.183V87.476c0,.643-.659,1.025-1.438,1.168-11.175,2.057-37.218,3.733-37.218,1.152V70.86c-.024-2.486,18.276-3.415,37.21-3.217Z" transform="translate(-827.294 -64.889)"/>
    <path id="Path_180" data-name="Path 180" class="cls-18" d="M871.243,67.863a1.327,1.327,0,0,1,1.43,1.168V87.378c0,.635-.651,1.009-1.422,1.152-11.056,2.025-36.821,3.677-36.821,1.136V71.032c-.016-2.454,18.085-3.368,36.813-3.169Z" transform="translate(-827.401 -64.934)"/>
    <path id="Path_181" data-name="Path 181" class="cls-19" d="M871.368,68.074a1.3,1.3,0,0,1,1.414,1.144V87.263c0,.627-.643.993-1.406,1.136-10.937,1.994-36.416,3.614-36.416,1.12V71.195c-.024-2.415,17.878-3.312,36.408-3.121Z" transform="translate(-827.51 -64.978)"/>
    <path id="Path_182" data-name="Path 182" class="cls-20" d="M871.491,68.294a1.288,1.288,0,0,1,1.4,1.128V87.173c0,.612-.635.977-1.39,1.112-10.818,1.962-36.019,3.558-36.019,1.1V71.367c-.024-2.383,17.688-3.264,36.011-3.074Z" transform="translate(-827.617 -65.023)"/>
    <path id="Path_183" data-name="Path 183" class="cls-21" d="M871.614,68.5A1.277,1.277,0,0,1,873,69.616v17.45c0,.6-.628.961-1.374,1.1C860.923,90.083,836,91.656,836,89.242V71.522c-.024-2.335,17.489-3.2,35.614-3.018Z" transform="translate(-827.724 -65.066)"/>
    <path id="Path_184" data-name="Path 184" class="cls-22" d="M871.737,68.714A1.255,1.255,0,0,1,873.1,69.8V86.95c0,.6-.627.945-1.358,1.08-10.579,1.89-35.225,3.439-35.225,1.072V71.685c-.024-2.287,17.3-3.145,35.217-2.97Z" transform="translate(-827.831 -65.11)"/>
    <path id="Path_185" data-name="Path 185" class="cls-23" d="M871.86,68.934a1.238,1.238,0,0,1,1.35,1.072V86.86c0,.58-.612.929-1.342,1.056-10.46,1.859-34.828,3.383-34.828,1.048V71.857c-.024-2.256,17.1-3.1,34.82-2.923Z" transform="translate(-827.938 -65.155)"/>
    <path id="Path_186" data-name="Path 186" class="cls-24" d="M871.983,69.145a1.222,1.222,0,0,1,1.334,1.056V86.753c0,.572-.612.913-1.326,1.04-10.341,1.827-34.43,3.328-34.43,1.04V72.028c-.024-2.224,16.9-3.05,34.422-2.883Z" transform="translate(-828.045 -65.199)"/>
    <path id="Path_187" data-name="Path 187" class="cls-25" d="M872.105,69.365a1.2,1.2,0,0,1,1.318,1.033v16.25c0,.564-.6.9-1.31,1.017-10.222,1.795-34.033,3.272-34.033,1.017v-16.5c-.024-2.168,16.711-2.978,34.025-2.812Z" transform="translate(-828.152 -65.244)"/>
  </g>
  <path id="Path_188" data-name="Path 188" class="cls-26" d="M831.987,91.945c12.978-1.43,25.956,4.908,38.942,3.479a2.029,2.029,0,0,1,1.032.071c-4.376,3.026-37.846.778-40.975-2.923-.008-.008-.016-.381-.016-.389C831,92.112,831.192,92.08,831.987,91.945Z" transform="translate(-826.689 -64.711)"/>
  <g id="Group_22" data-name="Group 22" transform="translate(4.265)">
    <path id="Path_189" data-name="Path 189" class="cls-27" d="M830.95,58.266a36.94,36.94,0,0,1,12.644-.016V85.588a36.94,36.94,0,0,0-12.644.016V58.266Z" transform="translate(-830.95 -57.711)"/>
    <path id="Path_190" data-name="Path 190" class="cls-28" d="M846.87,75.6c9.451,1.382,18.9,4.8,28.362,2.907V92.176c-9.451,1.89-18.911-1.525-28.362-2.907V75.6Z" transform="translate(-834.226 -61.391)"/>
    <path id="Path_191" data-name="Path 191" class="cls-29" d="M846.87,58.39c9.451,1.382,18.9,4.8,28.362,2.907V74.966c-9.451,1.89-18.911-1.525-28.362-2.907V58.39Z" transform="translate(-834.226 -57.85)"/>
  </g>
</svg>
