<svg id="Group_74" data-name="Group 74" xmlns="http://www.w3.org/2000/svg" viewBox="0 0 45.462 34.094">
  <defs>
    <style>
      .cls-1 {
        fill: #fbfbfb;
      }

      .cls-1, .cls-10, .cls-11, .cls-12, .cls-13, .cls-14, .cls-15, .cls-16, .cls-17, .cls-18, .cls-19, .cls-2, .cls-20, .cls-21, .cls-22, .cls-23, .cls-24, .cls-25, .cls-27, .cls-28, .cls-29, .cls-3, .cls-4, .cls-5, .cls-6, .cls-7, .cls-8, .cls-9 {
        fill-rule: evenodd;
      }

      .cls-2 {
        fill: #f7f7f7;
      }

      .cls-3 {
        fill: #f3f3f3;
      }

      .cls-4 {
        fill: #efefef;
      }

      .cls-5 {
        fill: #ebebeb;
      }

      .cls-6 {
        fill: #e7e7e7;
      }

      .cls-7 {
        fill: #e4e4e4;
      }

      .cls-8 {
        fill: #e0e0e0;
      }

      .cls-9 {
        fill: #dcdcdc;
      }

      .cls-10 {
        fill: #d8d8d8;
      }

      .cls-11 {
        fill: #d4d4d4;
      }

      .cls-12 {
        fill: #d0d0d0;
      }

      .cls-13 {
        fill: #ccc;
      }

      .cls-14 {
        fill: #c8c8c8;
      }

      .cls-15 {
        fill: #c4c4c4;
      }

      .cls-16 {
        fill: silver;
      }

      .cls-17 {
        fill: #bcbcbc;
      }

      .cls-18 {
        fill: #b8b8b8;
      }

      .cls-19 {
        fill: #b4b4b4;
      }

      .cls-20 {
        fill: #b1b1b1;
      }

      .cls-21 {
        fill: #adadad;
      }

      .cls-22 {
        fill: #a9a9a9;
      }

      .cls-23 {
        fill: #a5a5a5;
      }

      .cls-24 {
        fill: #a1a1a1;
      }

      .cls-25 {
        fill: #9d9d9d;
      }

      .cls-26 {
        fill: #348c10;
      }

      .cls-27 {
        fill: #47b71d;
      }

      .cls-29 {
        fill: #ff1612;
      }
    </style>
  </defs>
  <g id="Group_25" data-name="Group 25" transform="translate(0 5.061)">
    <path id="Path_193" data-name="Path 193" class="cls-1" d="M1047.785,63.57a1.6,1.6,0,0,1,1.7,1.469V88.1c0,.8-.77,1.271-1.692,1.446-13.145,2.534-43.763,4.583-43.763,1.39V67.517c-.024-3.09,21.492-4.217,43.755-3.947Z" transform="translate(-1004.03 -63.531)"/>
    <path id="Path_194" data-name="Path 194" class="cls-2" d="M1047.91,63.78a1.582,1.582,0,0,1,1.684,1.446V87.989c0,.794-.771,1.255-1.668,1.43-13.025,2.5-43.366,4.527-43.366,1.374V67.68c-.024-3.05,21.294-4.162,43.35-3.9Z" transform="translate(-1004.139 -63.575)"/>
    <path id="Path_195" data-name="Path 195" class="cls-3" d="M1048.035,63.991a1.57,1.57,0,0,1,1.668,1.43V87.89c0,.778-.762,1.239-1.652,1.414-12.906,2.47-42.961,4.464-42.961,1.358V67.843c-.032-3.01,21.087-4.106,42.945-3.852Z" transform="translate(-1004.248 -63.619)"/>
    <path id="Path_196" data-name="Path 196" class="cls-4" d="M1048.156,64.2a1.553,1.553,0,0,1,1.652,1.406V87.782c0,.77-.754,1.223-1.644,1.39-12.779,2.438-42.564,4.416-42.564,1.342V68c-.016-2.963,20.9-4.051,42.556-3.8Z" transform="translate(-1004.353 -63.662)"/>
    <path id="Path_197" data-name="Path 197" class="cls-5" d="M1048.28,64.411a1.536,1.536,0,0,1,1.636,1.39V87.683c0,.762-.747,1.207-1.628,1.374-12.66,2.407-42.158,4.36-42.158,1.326V68.16c-.024-2.923,20.7-4,42.15-3.749Z" transform="translate(-1004.462 -63.705)"/>
    <path id="Path_198" data-name="Path 198" class="cls-6" d="M1048.4,64.621a1.519,1.519,0,0,1,1.62,1.374V87.583c0,.747-.739,1.191-1.612,1.358-12.541,2.375-41.762,4.3-41.762,1.31V68.33c-.024-2.891,20.508-3.955,41.754-3.709Z" transform="translate(-1004.569 -63.749)"/>
    <path id="Path_199" data-name="Path 199" class="cls-7" d="M1048.528,64.832a1.5,1.5,0,0,1,1.6,1.35V87.475c0,.739-.731,1.175-1.6,1.334-12.422,2.343-41.356,4.241-41.356,1.295V68.485c-.032-2.843,20.309-3.892,41.348-3.654Z" transform="translate(-1004.678 -63.792)"/>
    <path id="Path_200" data-name="Path 200" class="cls-8" d="M1048.651,65.042a1.48,1.48,0,0,1,1.588,1.334v21c0,.731-.723,1.16-1.58,1.318-12.3,2.311-40.959,4.186-40.959,1.279V68.648c-.024-2.8,20.11-3.836,40.951-3.606Z" transform="translate(-1004.785 -63.836)"/>
    <path id="Path_201" data-name="Path 201" class="cls-9" d="M1048.774,65.252a1.468,1.468,0,0,1,1.573,1.318V87.276c0,.715-.715,1.144-1.565,1.3-12.184,2.279-40.562,4.13-40.562,1.263V68.818c-.024-2.772,19.92-3.8,40.554-3.566Z" transform="translate(-1004.892 -63.879)"/>
    <path id="Path_202" data-name="Path 202" class="cls-10" d="M1048.9,65.462a1.451,1.451,0,0,1,1.557,1.295V87.169c0,.715-.707,1.128-1.549,1.279-12.064,2.248-40.165,4.074-40.165,1.247V68.965c-.024-2.724,19.729-3.725,40.157-3.5Z" transform="translate(-1004.999 -63.922)"/>
    <path id="Path_203" data-name="Path 203" class="cls-11" d="M1049.022,65.673a1.44,1.44,0,0,1,1.541,1.279v20.11c0,.7-.707,1.1-1.533,1.263-11.945,2.216-39.76,4.011-39.76,1.231V69.128c-.024-2.685,19.523-3.669,39.752-3.455Z" transform="translate(-1005.108 -63.966)"/>
    <path id="Path_204" data-name="Path 204" class="cls-12" d="M1049.147,65.892a1.415,1.415,0,0,1,1.533,1.263V86.971c0,.691-.7,1.1-1.517,1.247-11.826,2.184-39.362,3.955-39.362,1.215V69.307c-.032-2.661,19.324-3.638,39.347-3.415Z" transform="translate(-1005.217 -64.011)"/>
    <path id="Path_205" data-name="Path 205" class="cls-13" d="M1049.268,66.1a1.4,1.4,0,0,1,1.509,1.239v19.53c0,.675-.691,1.08-1.5,1.223-11.707,2.152-38.966,3.9-38.966,1.2V69.462c-.024-2.613,19.134-3.574,38.958-3.36Z" transform="translate(-1005.322 -64.054)"/>
    <path id="Path_206" data-name="Path 206" class="cls-14" d="M1049.393,66.312a1.384,1.384,0,0,1,1.493,1.223V86.764c0,.667-.683,1.064-1.485,1.207-11.58,2.121-38.561,3.844-38.561,1.183V69.624c-.024-2.573,18.935-3.526,38.553-3.312Z" transform="translate(-1005.431 -64.098)"/>
    <path id="Path_207" data-name="Path 207" class="cls-15" d="M1049.516,66.523a1.367,1.367,0,0,1,1.477,1.207V86.665c0,.659-.675,1.04-1.469,1.191-11.461,2.089-38.164,3.789-38.164,1.168V69.787c-.024-2.534,18.736-3.471,38.156-3.264Z" transform="translate(-1005.538 -64.141)"/>
    <path id="Path_208" data-name="Path 208" class="cls-16" d="M1049.641,66.733a1.35,1.35,0,0,1,1.461,1.183V86.558c0,.651-.667,1.025-1.453,1.168-11.342,2.057-37.758,3.733-37.758,1.152V69.942c-.032-2.486,18.538-3.407,37.751-3.209Z" transform="translate(-1005.647 -64.185)"/>
    <path id="Path_209" data-name="Path 209" class="cls-17" d="M1049.763,66.943a1.333,1.333,0,0,1,1.446,1.168V86.466c0,.635-.659,1.009-1.437,1.152-11.223,2.025-37.361,3.677-37.361,1.136V70.12c-.024-2.462,18.339-3.376,37.353-3.177Z" transform="translate(-1005.754 -64.228)"/>
    <path id="Path_210" data-name="Path 210" class="cls-18" d="M1049.876,67.154a1.325,1.325,0,0,1,1.438,1.144V86.35c0,.627-.651.993-1.429,1.136-11.1,1.986-36.964,3.614-36.964,1.12V70.267c-.016-2.407,18.156-3.3,36.956-3.113Z" transform="translate(-1005.859 -64.272)"/>
    <path id="Path_211" data-name="Path 211" class="cls-19" d="M1050,67.364a1.3,1.3,0,0,1,1.422,1.128V86.251c0,.62-.651.977-1.414,1.12-10.984,1.962-36.559,3.558-36.559,1.1V70.437c-.024-2.375,17.95-3.264,36.551-3.074Z" transform="translate(-1005.968 -64.315)"/>
    <path id="Path_212" data-name="Path 212" class="cls-20" d="M1050.124,67.574a1.286,1.286,0,0,1,1.406,1.112V86.151c0,.6-.643.961-1.4,1.1-10.865,1.93-36.162,3.5-36.162,1.088V70.592c-.016-2.335,17.759-3.2,36.154-3.018Z" transform="translate(-1006.075 -64.358)"/>
    <path id="Path_213" data-name="Path 213" class="cls-21" d="M1050.259,67.784a1.28,1.28,0,0,1,1.39,1.088V86.044c0,.6-.635.945-1.374,1.08-10.746,1.9-35.765,3.447-35.765,1.072V70.755c-.032-2.3,17.553-3.145,35.749-2.97Z" transform="translate(-1006.186 -64.402)"/>
    <path id="Path_214" data-name="Path 214" class="cls-22" d="M1050.372,67.994a1.253,1.253,0,0,1,1.374,1.072V85.944c0,.588-.628.929-1.366,1.064-10.619,1.866-35.36,3.391-35.36,1.056V70.925c-.024-2.264,17.362-3.105,35.352-2.931Z" transform="translate(-1006.291 -64.445)"/>
    <path id="Path_215" data-name="Path 215" class="cls-23" d="M1050.495,68.2a1.236,1.236,0,0,1,1.358,1.056V85.845c0,.572-.62.913-1.35,1.04-10.5,1.835-34.963,3.336-34.963,1.04V71.088c-.016-2.224,17.172-3.05,34.955-2.883Z" transform="translate(-1006.398 -64.489)"/>
    <path id="Path_216" data-name="Path 216" class="cls-24" d="M1050.617,68.424a1.225,1.225,0,0,1,1.342,1.033v16.29c0,.564-.612.9-1.334,1.025-10.381,1.8-34.565,3.28-34.565,1.025V71.252c-.016-2.184,16.973-3,34.557-2.828Z" transform="translate(-1006.505 -64.533)"/>
    <path id="Path_217" data-name="Path 217" class="cls-25" d="M1050.74,68.625a1.214,1.214,0,0,1,1.326,1.017v16c0,.556-.6.882-1.318,1.009-10.262,1.771-34.168,3.217-34.168,1V71.4c-.016-2.137,16.782-2.939,34.16-2.78Z" transform="translate(-1006.612 -64.575)"/>
  </g>
  <path id="Path_218" data-name="Path 218" class="cls-26" d="M1010.465,90.856c13.034-1.414,26.059,4.837,39.093,3.423a2.051,2.051,0,0,1,1.041.071c-4.392,2.978-38,.77-41.142-2.875-.008-.008-.016-.373-.016-.381C1009.48,91.022,1009.67,90.991,1010.465,90.856Z" transform="translate(-1005.143 -64.049)"/>
  <g id="Group_28" data-name="Group 28" transform="translate(4.289)">
    <path id="Path_219" data-name="Path 219" class="cls-27" d="M1009.43,89.265c13.725-2.692,27.441,5.536,41.166,2.843V83.141c-13.724,2.692-27.441-5.536-41.166-2.843v8.967Z" transform="translate(-1009.43 -61.807)"/>
    <path id="Path_220" data-name="Path 220" class="cls-28" d="M1009.43,66.675c13.725-2.692,27.441,5.536,41.166,2.843V60.551c-13.724,2.692-27.441-5.536-41.166-2.843v8.967Z" transform="translate(-1009.43 -57.159)"/>
    <path id="Path_221" data-name="Path 221" class="cls-29" d="M1009.43,77.975c13.725-2.692,27.441,5.536,41.166,2.843V71.851c-13.724,2.692-27.441-5.536-41.166-2.843v8.967Z" transform="translate(-1009.43 -59.484)"/>
    <g id="Group_27" data-name="Group 27" transform="translate(11.694 3.083)">
      <g id="Group_26" data-name="Group 26">
        <path id="Path_222" data-name="Path 222" class="cls-29" d="M1032.522,64.392a7.118,7.118,0,0,1,5.163,4.527c-3.439-.6-6.886-1.366-10.325-1.97a4.385,4.385,0,0,1,5.163-2.557Zm-5.973,2.629c-.246-.183-2.232-1.509-2.391-1.009-.127.492,2.113.945,2.391,1.009Zm.167-.477c-.23-.2-2.121-1.684-2.327-1.207-.175.469,2.049,1.112,2.327,1.207Zm.214-.461c-.222-.214-1.994-1.843-2.24-1.4-.222.453,1.962,1.279,2.24,1.4Zm.254-.429c-.207-.23-1.851-1.994-2.136-1.573-.262.421,1.874,1.43,2.136,1.573Zm.294-.389c-.191-.238-1.7-2.121-2.025-1.739-.3.389,1.764,1.581,2.025,1.739Zm.334-.365c-.167-.254-1.533-2.232-1.891-1.89-.342.357,1.636,1.708,1.891,1.89Zm.365-.326c-.151-.262-1.35-2.335-1.747-2.025-.373.318,1.509,1.827,1.747,2.025Zm.4-.286c-.127-.27-1.167-2.407-1.589-2.152-.405.286,1.366,1.946,1.589,2.152Zm.429-.238c-.1-.278-.969-2.47-1.422-2.248-.437.238,1.215,2.025,1.422,2.248Zm.469-.2c-.079-.278-.755-2.5-1.239-2.335-.469.183,1.048,2.089,1.239,2.335Zm.476-.151c-.055-.278-.548-2.526-1.048-2.4-.492.143.874,2.144,1.048,2.4Zm.5-.111c-.032-.278-.334-2.518-.85-2.446-.5.1.7,2.184.85,2.446Zm.532-.056c-.008-.278-.111-2.494-.643-2.47-.524.04.508,2.192.643,2.47Zm.516-.016c.016-.27.1-2.454-.437-2.478-.532,0,.325,2.208.437,2.478Zm.516.032c.04-.262.31-2.391-.231-2.462-.54-.048.143,2.184.231,2.462Zm6.56,5.734c.246-.079,2.232-.8,2.391-.278.135.54-2.1.326-2.391.278Zm-.167-.54c.23-.1,2.121-1,2.327-.492.175.548-2.049.516-2.327.492Zm-.215-.524c.222-.127,1.993-1.191,2.24-.691.222.524-1.962.683-2.24.691Zm-.254-.524c.206-.151,1.85-1.374,2.136-.882.262.508-1.867.858-2.136.882Zm-.294-.492c.191-.167,1.7-1.541,2.025-1.072.3.5-1.763,1.025-2.025,1.072Zm-.334-.477c.167-.191,1.533-1.7,1.89-1.247.35.469-1.636,1.168-1.89,1.247Zm-.365-.461c.151-.206,1.35-1.851,1.747-1.422.374.453-1.509,1.326-1.747,1.422Zm-.4-.429c.127-.222,1.167-1.986,1.588-1.581.413.429-1.366,1.461-1.588,1.581Zm-.429-.4c.1-.238.969-2.1,1.422-1.731.445.4-1.207,1.588-1.422,1.731Zm-.461-.381c.079-.246.755-2.216,1.239-1.874.461.365-1.048,1.716-1.239,1.874Zm-.476-.334c.063-.254.548-2.311,1.048-2,.484.334-.882,1.819-1.048,2Zm-.508-.3c.032-.27.334-2.391.85-2.121.5.294-.7,1.922-.85,2.121Zm-.524-.262c.008-.27.111-2.454.643-2.224.516.254-.516,2-.643,2.224Zm-.516-.214c-.016-.278-.1-2.494.437-2.3.532.207-.334,2.065-.437,2.3Zm-.524-.175c-.04-.278-.31-2.518.23-2.375.54.167-.143,2.129-.23,2.375Zm-.588-.143c-.063-.278-.548-2.526,0-2.43.548.119.064,2.176,0,2.43Z" transform="translate(-1024.153 -61.04)"/>
      </g>
    </g>
  </g>
</svg>
