<svg id="Group_75" data-name="Group 75" xmlns="http://www.w3.org/2000/svg" viewBox="0 0 45.28 34.626">
  <defs>
    <style>
      .cls-1 {
        fill: #fbfbfb;
      }

      .cls-1, .cls-10, .cls-11, .cls-12, .cls-13, .cls-14, .cls-15, .cls-16, .cls-17, .cls-18, .cls-19, .cls-2, .cls-20, .cls-21, .cls-22, .cls-23, .cls-24, .cls-25, .cls-27, .cls-28, .cls-29, .cls-3, .cls-4, .cls-5, .cls-6, .cls-7, .cls-8, .cls-9 {
        fill-rule: evenodd;
      }

      .cls-2 {
        fill: #f7f7f7;
      }

      .cls-3 {
        fill: #f3f3f3;
      }

      .cls-4 {
        fill: #efefef;
      }

      .cls-5 {
        fill: #ebebeb;
      }

      .cls-6 {
        fill: #e7e7e7;
      }

      .cls-7 {
        fill: #e4e4e4;
      }

      .cls-8 {
        fill: #e0e0e0;
      }

      .cls-9 {
        fill: #dcdcdc;
      }

      .cls-10 {
        fill: #d8d8d8;
      }

      .cls-11 {
        fill: #d4d4d4;
      }

      .cls-12 {
        fill: #d0d0d0;
      }

      .cls-13 {
        fill: #ccc;
      }

      .cls-14 {
        fill: #c8c8c8;
      }

      .cls-15 {
        fill: #c4c4c4;
      }

      .cls-16 {
        fill: silver;
      }

      .cls-17 {
        fill: #bcbcbc;
      }

      .cls-18 {
        fill: #b8b8b8;
      }

      .cls-19 {
        fill: #b4b4b4;
      }

      .cls-20 {
        fill: #b1b1b1;
      }

      .cls-21 {
        fill: #adadad;
      }

      .cls-22 {
        fill: #a9a9a9;
      }

      .cls-23 {
        fill: #a5a5a5;
      }

      .cls-24 {
        fill: #a1a1a1;
      }

      .cls-25 {
        fill: #9d9d9d;
      }

      .cls-26 {
        fill: #2d7c08;
      }

      .cls-27 {
        fill: #f0f0f0;
      }

      .cls-28 {
        fill: #47b71d;
      }

      .cls-29 {
        fill: #f39229;
      }
    </style>
  </defs>
  <g id="Group_31" data-name="Group 31" transform="translate(0 5.133)">
    <path id="Path_224" data-name="Path 224" class="cls-1" d="M43.58,243.97a1.614,1.614,0,0,1,1.692,1.485v23.422c0,.818-.77,1.295-1.684,1.469C30.5,272.928,0,275.009,0,271.769V247.981c-.024-3.137,21.4-4.281,43.58-4.011Z" transform="translate(0 -243.932)"/>
    <path id="Path_225" data-name="Path 225" class="cls-2" d="M43.7,244.19a1.6,1.6,0,0,1,1.676,1.469v23.128c0,.8-.762,1.271-1.668,1.453-12.97,2.542-43.191,4.6-43.191,1.4V248.153c-.024-3.1,21.206-4.233,43.183-3.963Z" transform="translate(-0.107 -243.977)"/>
    <path id="Path_226" data-name="Path 226" class="cls-3" d="M43.826,244.4a1.575,1.575,0,0,1,1.66,1.453v22.827c0,.794-.755,1.255-1.652,1.43-12.851,2.51-42.794,4.543-42.794,1.382V248.308c-.024-3.05,21.016-4.17,42.786-3.908Z" transform="translate(-0.214 -244.021)"/>
    <path id="Path_227" data-name="Path 227" class="cls-4" d="M43.949,244.611a1.557,1.557,0,0,1,1.644,1.43v22.533c0,.786-.755,1.239-1.636,1.414-12.732,2.478-42.4,4.488-42.4,1.366V248.479c-.024-3.018,20.817-4.122,42.389-3.868Z" transform="translate(-0.321 -244.064)"/>
    <path id="Path_228" data-name="Path 228" class="cls-5" d="M44.072,244.831a1.541,1.541,0,0,1,1.628,1.414v22.231c0,.77-.747,1.223-1.62,1.4-12.613,2.446-42,4.424-42,1.35V248.651c-.024-2.986,20.627-4.075,41.992-3.82Z" transform="translate(-0.428 -244.109)"/>
    <path id="Path_229" data-name="Path 229" class="cls-6" d="M44.195,245.041a1.524,1.524,0,0,1,1.612,1.4v21.929c0,.762-.739,1.207-1.6,1.374-12.493,2.415-41.6,4.368-41.6,1.334V248.806c-.024-2.931,20.428-4.011,41.595-3.765Z" transform="translate(-0.535 -244.153)"/>
    <path id="Path_230" data-name="Path 230" class="cls-7" d="M44.32,245.261a1.5,1.5,0,0,1,1.6,1.374v21.627c0,.755-.731,1.191-1.588,1.358-12.374,2.383-41.2,4.313-41.2,1.318V248.97c-.032-2.891,20.229-3.955,41.19-3.709Z" transform="translate(-0.644 -244.198)"/>
    <path id="Path_231" data-name="Path 231" class="cls-8" d="M44.442,245.471a1.483,1.483,0,0,1,1.581,1.35v21.333c0,.739-.723,1.175-1.573,1.334-12.255,2.351-40.8,4.249-40.8,1.3V249.125c-.032-2.843,20.031-3.892,40.792-3.654Z" transform="translate(-0.751 -244.242)"/>
    <path id="Path_232" data-name="Path 232" class="cls-9" d="M44.565,245.682a1.472,1.472,0,0,1,1.565,1.334v21.032c0,.731-.715,1.16-1.557,1.318-12.136,2.311-40.4,4.194-40.4,1.287V249.3c-.024-2.812,19.84-3.844,40.4-3.614Z" transform="translate(-0.858 -244.286)"/>
    <path id="Path_233" data-name="Path 233" class="cls-10" d="M44.69,245.9a1.463,1.463,0,0,1,1.557,1.318v20.73c0,.723-.707,1.144-1.541,1.3C32.689,271.532,4.7,273.391,4.7,270.516V249.46c-.032-2.772,19.634-3.789,39.99-3.558Z" transform="translate(-0.967 -244.331)"/>
    <path id="Path_234" data-name="Path 234" class="cls-11" d="M44.8,246.112a1.446,1.446,0,0,1,1.541,1.3v20.436c0,.715-.7,1.128-1.525,1.287-11.9,2.248-39.609,4.074-39.609,1.255V249.639c-.024-2.74,19.451-3.749,39.593-3.526Z" transform="translate(-1.072 -244.374)"/>
    <path id="Path_235" data-name="Path 235" class="cls-12" d="M44.924,246.332a1.429,1.429,0,0,1,1.525,1.279v20.134c0,.7-.691,1.112-1.517,1.263-11.779,2.216-39.212,4.019-39.212,1.239V249.8c-.016-2.692,19.26-3.685,39.2-3.463Z" transform="translate(-1.177 -244.42)"/>
    <path id="Path_236" data-name="Path 236" class="cls-13" d="M45.051,246.543a1.412,1.412,0,0,1,1.509,1.263v19.84c0,.691-.691,1.1-1.493,1.247-11.66,2.184-38.807,3.963-38.807,1.215v-20.15c-.032-2.653,19.054-3.63,38.791-3.415Z" transform="translate(-1.288 -244.463)"/>
    <path id="Path_237" data-name="Path 237" class="cls-14" d="M45.172,246.762A1.389,1.389,0,0,1,46.665,248V267.54c0,.683-.683,1.08-1.485,1.231-11.54,2.152-38.41,3.908-38.41,1.2V250.13c-.024-2.621,18.863-3.582,38.4-3.368Z" transform="translate(-1.393 -244.508)"/>
    <path id="Path_238" data-name="Path 238" class="cls-15" d="M45.295,246.973a1.373,1.373,0,0,1,1.477,1.223v19.237c0,.667-.675,1.064-1.469,1.207-11.421,2.121-38.013,3.844-38.013,1.183V250.285c-.024-2.565,18.665-3.518,38-3.312Z" transform="translate(-1.5 -244.552)"/>
    <path id="Path_239" data-name="Path 239" class="cls-16" d="M45.417,247.183a1.356,1.356,0,0,1,1.461,1.207v18.943c0,.659-.667,1.04-1.453,1.191-11.294,2.089-37.615,3.789-37.615,1.168V250.456c-.024-2.534,18.474-3.471,37.607-3.272Z" transform="translate(-1.607 -244.596)"/>
    <path id="Path_240" data-name="Path 240" class="cls-17" d="M45.54,247.4a1.339,1.339,0,0,1,1.446,1.183v18.641c0,.643-.659,1.025-1.438,1.168-11.175,2.057-37.218,3.733-37.218,1.152V250.612c-.016-2.486,18.276-3.407,37.21-3.209Z" transform="translate(-1.714 -244.641)"/>
    <path id="Path_241" data-name="Path 241" class="cls-18" d="M45.663,247.614a1.327,1.327,0,0,1,1.43,1.168v18.347c0,.635-.651,1.009-1.422,1.152-11.056,2.025-36.821,3.677-36.821,1.136V250.791c-.016-2.462,18.085-3.368,36.813-3.177Z" transform="translate(-1.821 -244.684)"/>
    <path id="Path_242" data-name="Path 242" class="cls-19" d="M45.788,247.834a1.3,1.3,0,0,1,1.414,1.144v18.045c0,.627-.643.993-1.406,1.136-10.937,1.993-36.416,3.614-36.416,1.12V250.947c-.024-2.415,17.878-3.3,36.408-3.113Z" transform="translate(-1.93 -244.73)"/>
    <path id="Path_243" data-name="Path 243" class="cls-20" d="M45.911,248.044a1.288,1.288,0,0,1,1.4,1.128v17.743c0,.62-.635.977-1.39,1.12C35.1,269.988,9.9,271.593,9.9,269.139V251.117c-.024-2.375,17.688-3.264,36.011-3.074Z" transform="translate(-2.037 -244.773)"/>
    <path id="Path_244" data-name="Path 244" class="cls-21" d="M46.034,248.254a1.277,1.277,0,0,1,1.382,1.112v17.45c0,.6-.627.961-1.374,1.1-10.7,1.93-35.622,3.5-35.622,1.088V251.28c-.024-2.335,17.489-3.2,35.614-3.026Z" transform="translate(-2.144 -244.817)"/>
    <path id="Path_245" data-name="Path 245" class="cls-22" d="M46.157,248.474a1.255,1.255,0,0,1,1.366,1.088V266.71c0,.6-.62.945-1.358,1.08-10.579,1.89-35.225,3.447-35.225,1.072V251.444c-.024-2.3,17.3-3.153,35.217-2.97Z" transform="translate(-2.251 -244.862)"/>
    <path id="Path_246" data-name="Path 246" class="cls-23" d="M46.28,248.684a1.238,1.238,0,0,1,1.35,1.072V266.61c0,.588-.62.929-1.342,1.056-10.46,1.859-34.828,3.383-34.828,1.056V251.607c-.024-2.256,17.1-3.1,34.82-2.923Z" transform="translate(-2.358 -244.905)"/>
    <path id="Path_247" data-name="Path 247" class="cls-24" d="M46.4,248.9a1.222,1.222,0,0,1,1.334,1.048V266.5c0,.572-.612.913-1.326,1.04-10.341,1.827-34.43,3.328-34.43,1.04V251.779c-.024-2.216,16.909-3.05,34.423-2.875Z" transform="translate(-2.465 -244.95)"/>
    <path id="Path_248" data-name="Path 248" class="cls-25" d="M46.525,249.115a1.2,1.2,0,0,1,1.318,1.033V266.4c0,.564-.6.9-1.311,1.017-10.222,1.8-34.033,3.272-34.033,1.025v-16.5c-.016-2.168,16.711-2.986,34.025-2.82Z" transform="translate(-2.572 -244.994)"/>
  </g>
  <path id="Path_249" data-name="Path 249" class="cls-26" d="M6.407,271.7c12.978-1.43,25.964,4.908,38.942,3.479a2.208,2.208,0,0,1,1.033.064c-4.376,3.026-37.846.786-40.975-2.915-.008-.008-.016-.381-.016-.389C5.422,271.87,5.612,271.838,6.407,271.7Z" transform="translate(-1.109 -244.468)"/>
  <g id="Group_32" data-name="Group 32" transform="translate(4.273)">
    <path id="Path_250" data-name="Path 250" class="cls-27" d="M46.381,261.5v-9.11c-13.669,2.732-27.33-5.623-40.991-2.891v9.11c13.661-2.732,27.322,5.623,40.991,2.891Z" transform="translate(-5.382 -239.829)"/>
    <path id="Path_251" data-name="Path 251" class="cls-28" d="M5.38,270.076c13.661-2.732,27.33,5.623,40.991,2.891v-9.11c-13.669,2.732-27.33-5.623-40.991-2.891,0,3.034,0,6.076,0,9.11Z" transform="translate(-5.38 -242.189)"/>
    <path id="Path_252" data-name="Path 252" class="cls-29" d="M34.054,256.943a5,5,0,0,0-3.868-4.654,3.074,3.074,0,0,0-3.876,3.1,5,5,0,0,0,3.876,4.654,3.068,3.068,0,0,0,3.868-3.1Z" transform="translate(-9.686 -240.501)"/>
    <path id="Path_253" data-name="Path 253" class="cls-29" d="M5.38,247.136c13.669-2.732,27.33,5.623,41,2.891v-9.11c-13.669,2.732-27.33-5.623-41-2.891,0,3.034,0,6.076,0,9.11Z" transform="translate(-5.38 -237.469)"/>
  </g>
</svg>
