<svg id="Group_77" data-name="Group 77" xmlns="http://www.w3.org/2000/svg" viewBox="0 0 45.272 34.618">
  <defs>
    <style>
      .cls-1 {
        fill: #fbfbfb;
      }

      .cls-1, .cls-10, .cls-11, .cls-12, .cls-13, .cls-14, .cls-15, .cls-16, .cls-17, .cls-18, .cls-19, .cls-2, .cls-20, .cls-21, .cls-22, .cls-23, .cls-24, .cls-25, .cls-3, .cls-4, .cls-5, .cls-6, .cls-7, .cls-8, .cls-9 {
        fill-rule: evenodd;
      }

      .cls-2 {
        fill: #f7f7f7;
      }

      .cls-3 {
        fill: #f3f3f3;
      }

      .cls-4 {
        fill: #efefef;
      }

      .cls-5 {
        fill: #ebebeb;
      }

      .cls-6 {
        fill: #e7e7e7;
      }

      .cls-7 {
        fill: #e4e4e4;
      }

      .cls-8 {
        fill: #e0e0e0;
      }

      .cls-9 {
        fill: #dcdcdc;
      }

      .cls-10 {
        fill: #d8d8d8;
      }

      .cls-11 {
        fill: #d4d4d4;
      }

      .cls-12 {
        fill: #d0d0d0;
      }

      .cls-13 {
        fill: #ccc;
      }

      .cls-14 {
        fill: #c8c8c8;
      }

      .cls-15 {
        fill: #c4c4c4;
      }

      .cls-16 {
        fill: silver;
      }

      .cls-17 {
        fill: #bcbcbc;
      }

      .cls-18 {
        fill: #b8b8b8;
      }

      .cls-19 {
        fill: #b4b4b4;
      }

      .cls-20 {
        fill: #b1b1b1;
      }

      .cls-21 {
        fill: #adadad;
      }

      .cls-22 {
        fill: #a9a9a9;
      }

      .cls-23 {
        fill: #a5a5a5;
      }

      .cls-24 {
        fill: #a1a1a1;
      }

      .cls-25 {
        fill: #9d9d9d;
      }

      .cls-26 {
        fill: #026005;
      }

      .cls-27 {
        fill: #49a9f6;
      }

      .cls-28 {
        fill: #00840f;
      }

      .cls-29 {
        fill: #fedc36;
      }
    </style>
  </defs>
  <g id="Group_49" data-name="Group 49" transform="translate(0 5.133)">
    <path id="Path_321" data-name="Path 321" class="cls-1" d="M367.39,243.97a1.614,1.614,0,0,1,1.692,1.485v23.422c0,.818-.77,1.287-1.684,1.469-13.089,2.573-43.588,4.654-43.588,1.414V247.973c-.032-3.129,21.4-4.273,43.58-4Z" transform="translate(-323.81 -243.932)"/>
    <path id="Path_322" data-name="Path 322" class="cls-2" d="M367.5,244.19a1.587,1.587,0,0,1,1.676,1.469v23.128c0,.8-.763,1.279-1.668,1.453-12.978,2.542-43.191,4.6-43.191,1.4V248.153c-.024-3.1,21.214-4.233,43.183-3.963Z" transform="translate(-323.915 -243.977)"/>
    <path id="Path_323" data-name="Path 323" class="cls-3" d="M367.626,244.4a1.58,1.58,0,0,1,1.66,1.453v22.827c0,.794-.755,1.255-1.652,1.438-12.851,2.51-42.794,4.535-42.794,1.382V248.316c-.024-3.058,21.016-4.178,42.786-3.916Z" transform="translate(-324.022 -244.021)"/>
    <path id="Path_324" data-name="Path 324" class="cls-4" d="M367.749,244.611a1.557,1.557,0,0,1,1.644,1.43v22.525c0,.786-.747,1.239-1.636,1.414-12.732,2.478-42.4,4.487-42.4,1.366V248.471c-.016-3.01,20.825-4.114,42.389-3.86Z" transform="translate(-324.129 -244.064)"/>
    <path id="Path_325" data-name="Path 325" class="cls-5" d="M367.872,244.831a1.541,1.541,0,0,1,1.628,1.414v22.231c0,.77-.747,1.223-1.62,1.4-12.613,2.446-42,4.424-42,1.35v-22.58c-.024-2.978,20.626-4.067,41.992-3.812Z" transform="translate(-324.236 -244.109)"/>
    <path id="Path_326" data-name="Path 326" class="cls-6" d="M367.995,245.041a1.524,1.524,0,0,1,1.612,1.4v21.929c0,.762-.739,1.207-1.6,1.374-12.493,2.407-41.6,4.368-41.6,1.334V248.806c-.016-2.939,20.436-4.011,41.595-3.765Z" transform="translate(-324.343 -244.153)"/>
    <path id="Path_327" data-name="Path 327" class="cls-7" d="M368.12,245.261a1.506,1.506,0,0,1,1.6,1.374v21.627c0,.755-.731,1.191-1.588,1.358-12.374,2.383-41.2,4.313-41.2,1.318V248.97c-.024-2.891,20.229-3.955,41.189-3.709Z" transform="translate(-324.452 -244.198)"/>
    <path id="Path_328" data-name="Path 328" class="cls-8" d="M368.242,245.471a1.483,1.483,0,0,1,1.581,1.35v21.333c0,.739-.723,1.175-1.573,1.334-12.255,2.343-40.8,4.249-40.8,1.3V249.125c-.024-2.843,20.039-3.892,40.792-3.654Z" transform="translate(-324.559 -244.242)"/>
    <path id="Path_329" data-name="Path 329" class="cls-9" d="M368.367,245.682a1.474,1.474,0,0,1,1.573,1.334v21.032c0,.731-.715,1.16-1.557,1.318-12.136,2.311-40.4,4.194-40.4,1.287V249.3c-.032-2.812,19.832-3.844,40.387-3.614Z" transform="translate(-324.668 -244.286)"/>
    <path id="Path_330" data-name="Path 330" class="cls-10" d="M368.49,245.9a1.463,1.463,0,0,1,1.557,1.318v20.738c0,.723-.707,1.144-1.541,1.3-12.017,2.28-40.006,4.138-40.006,1.263V249.468c-.032-2.78,19.642-3.8,39.99-3.566Z" transform="translate(-324.775 -244.331)"/>
    <path id="Path_331" data-name="Path 331" class="cls-11" d="M368.613,246.112a1.441,1.441,0,0,1,1.541,1.3v20.436c0,.707-.7,1.128-1.525,1.279-11.9,2.248-39.609,4.082-39.609,1.255V249.631c-.032-2.732,19.443-3.741,39.593-3.518Z" transform="translate(-324.882 -244.374)"/>
    <path id="Path_332" data-name="Path 332" class="cls-12" d="M368.734,246.332a1.429,1.429,0,0,1,1.525,1.279v20.134c0,.7-.691,1.112-1.517,1.263-11.779,2.216-39.212,4.019-39.212,1.239V249.8c-.024-2.692,19.252-3.685,39.2-3.463Z" transform="translate(-324.987 -244.42)"/>
    <path id="Path_333" data-name="Path 333" class="cls-13" d="M368.861,246.543a1.412,1.412,0,0,1,1.509,1.263v19.84c0,.691-.691,1.1-1.493,1.247-11.66,2.184-38.807,3.963-38.807,1.223v-20.15c-.032-2.661,19.046-3.638,38.791-3.423Z" transform="translate(-325.098 -244.463)"/>
    <path id="Path_334" data-name="Path 334" class="cls-14" d="M368.982,246.762A1.389,1.389,0,0,1,370.475,248V267.54c0,.683-.683,1.08-1.485,1.223-11.532,2.152-38.41,3.908-38.41,1.2v-19.84c-.024-2.613,18.855-3.574,38.4-3.36Z" transform="translate(-325.203 -244.508)"/>
    <path id="Path_335" data-name="Path 335" class="cls-15" d="M369.1,246.973a1.373,1.373,0,0,1,1.477,1.223v19.237c0,.667-.675,1.056-1.469,1.207-11.421,2.121-38.013,3.844-38.013,1.183V250.285c-.024-2.565,18.665-3.518,38-3.312Z" transform="translate(-325.31 -244.552)"/>
    <path id="Path_336" data-name="Path 336" class="cls-16" d="M369.227,247.183a1.361,1.361,0,0,1,1.461,1.207v18.943c0,.659-.667,1.04-1.453,1.191-11.294,2.089-37.615,3.789-37.615,1.168V250.456c-.024-2.534,18.466-3.471,37.607-3.272Z" transform="translate(-325.417 -244.596)"/>
    <path id="Path_337" data-name="Path 337" class="cls-17" d="M369.35,247.4a1.339,1.339,0,0,1,1.446,1.183v18.649c0,.643-.659,1.025-1.438,1.167-11.175,2.057-37.218,3.733-37.218,1.152V250.619c-.024-2.494,18.276-3.423,37.21-3.217Z" transform="translate(-325.524 -244.64)"/>
    <path id="Path_338" data-name="Path 338" class="cls-18" d="M369.463,247.614a1.327,1.327,0,0,1,1.43,1.168v18.347c0,.635-.651,1.009-1.422,1.152-11.056,2.025-36.821,3.677-36.821,1.136V250.783c-.016-2.454,18.085-3.36,36.813-3.169Z" transform="translate(-325.629 -244.684)"/>
    <path id="Path_339" data-name="Path 339" class="cls-19" d="M369.586,247.834A1.3,1.3,0,0,1,371,248.977v18.045c0,.627-.643.993-1.406,1.136-10.937,1.993-36.424,3.614-36.424,1.12V250.955c-.016-2.422,17.894-3.312,36.416-3.121Z" transform="translate(-325.736 -244.73)"/>
    <path id="Path_340" data-name="Path 340" class="cls-20" d="M369.721,248.044a1.288,1.288,0,0,1,1.4,1.128v17.751c0,.612-.635.977-1.39,1.112-10.818,1.962-36.019,3.558-36.019,1.1V251.117c-.032-2.375,17.68-3.264,36.011-3.074Z" transform="translate(-325.847 -244.773)"/>
    <path id="Path_341" data-name="Path 341" class="cls-21" d="M369.834,248.254a1.277,1.277,0,0,1,1.382,1.1v17.45c0,.6-.627.961-1.374,1.1-10.7,1.93-35.622,3.5-35.622,1.088v-17.72c-.016-2.327,17.5-3.2,35.614-3.018Z" transform="translate(-325.952 -244.816)"/>
    <path id="Path_342" data-name="Path 342" class="cls-22" d="M369.957,248.474a1.26,1.26,0,0,1,1.366,1.088V266.71c0,.6-.619.945-1.358,1.08-10.579,1.89-35.225,3.439-35.225,1.072V251.444c-.016-2.3,17.3-3.153,35.217-2.97Z" transform="translate(-326.059 -244.862)"/>
    <path id="Path_343" data-name="Path 343" class="cls-23" d="M370.08,248.684a1.238,1.238,0,0,1,1.35,1.072V266.61c0,.58-.612.929-1.342,1.056-10.46,1.859-34.828,3.383-34.828,1.048V251.607c-.016-2.256,17.108-3.1,34.82-2.923Z" transform="translate(-326.166 -244.905)"/>
    <path id="Path_344" data-name="Path 344" class="cls-24" d="M370.2,248.9a1.222,1.222,0,0,1,1.334,1.048V266.5c0,.572-.612.913-1.326,1.04-10.341,1.827-34.43,3.328-34.43,1.04V251.771c-.016-2.208,16.909-3.042,34.423-2.867Z" transform="translate(-326.273 -244.95)"/>
    <path id="Path_345" data-name="Path 345" class="cls-25" d="M370.325,249.115a1.211,1.211,0,0,1,1.318,1.033V266.4c0,.564-.6.9-1.311,1.025-10.222,1.8-34.033,3.272-34.033,1.017v-16.5c-.016-2.168,16.719-2.986,34.025-2.82Z" transform="translate(-326.38 -244.994)"/>
  </g>
  <path id="Path_346" data-name="Path 346" class="cls-26" d="M330.207,271.695c12.978-1.438,25.964,4.908,38.942,3.479a2.029,2.029,0,0,1,1.032.072c-4.376,3.026-37.846.786-40.975-2.915-.008-.008-.016-.381-.016-.389C329.222,271.869,329.42,271.83,330.207,271.695Z" transform="translate(-324.917 -244.467)"/>
  <g id="Group_50" data-name="Group 50" transform="translate(4.265)">
    <path id="Path_347" data-name="Path 347" class="cls-27" d="M329.18,238.026c13.669-2.732,27.33,5.623,41,2.891v13.661c-13.661,2.732-27.33-5.623-41-2.891V238.026Z" transform="translate(-329.18 -237.469)"/>
    <path id="Path_348" data-name="Path 348" class="cls-28" d="M329.18,263.836c13.669-2.732,27.33,5.623,41,2.891v6.83c-13.661,2.732-27.33-5.623-41-2.891v-6.83Z" transform="translate(-329.18 -242.78)"/>
    <path id="Path_349" data-name="Path 349" class="cls-29" d="M370.179,264.957c-13.669,2.732-27.33-5.623-41-2.891v-6.831c13.669-2.732,27.33,5.623,41,2.891Z" transform="translate(-329.18 -241.01)"/>
    <path id="Path_350" data-name="Path 350" class="cls-29" d="M370.95,251.644c.2.993.4,1.978.6,2.963q-.477-1.43-.953-2.883l-.191,3c-.056-1.009-.119-2.009-.175-3.018-.318.937-.643,1.874-.961,2.8.207-.969.405-1.946.612-2.915-.556.81-1.112,1.6-1.668,2.391.453-.858.9-1.724,1.35-2.589-.755.62-1.509,1.215-2.264,1.795q1-1.013,2-2.073c-.9.389-1.8.747-2.7,1.08.842-.445,1.676-.921,2.518-1.414-.985.127-1.97.222-2.955.294.953-.191,1.906-.413,2.859-.659-1-.135-2-.31-3.01-.5,1,.071,2.009.119,3.01.135-.953-.389-1.906-.81-2.859-1.255.985.326,1.97.635,2.955.905-.834-.612-1.676-1.255-2.51-1.914.9.564,1.795,1.1,2.692,1.6-.667-.8-1.326-1.612-1.994-2.438.755.747,1.5,1.477,2.256,2.192-.445-.929-.89-1.859-1.334-2.8.556.89,1.1,1.771,1.66,2.637-.2-.993-.4-1.994-.6-2.986.318.977.635,1.946.953,2.915l.191-3c.056,1,.119,2.009.175,3.018.318-.937.643-1.89.961-2.835-.207.985-.405,1.962-.612,2.939.556-.826,1.112-1.66,1.668-2.51-.453.905-.9,1.811-1.35,2.7q1.132-.977,2.264-2.025c-.667.786-1.334,1.549-2,2.3.9-.437,1.8-.913,2.7-1.422-.842.612-1.676,1.191-2.518,1.739q1.477-.286,2.955-.715-1.43.6-2.859,1.072c1,.064,2,.087,3.01.056-1,.151-2.009.246-3.01.31.953.318,1.906.6,2.859.842-.985-.119-1.97-.286-2.955-.492.834.564,1.676,1.088,2.51,1.588-.9-.389-1.8-.81-2.692-1.271.667.762,1.326,1.5,1.994,2.224-.755-.627-1.5-1.287-2.256-1.97.445.905.89,1.811,1.334,2.7-.556-.818-1.112-1.66-1.66-2.51Zm-.54-2.708a1.326,1.326,0,0,0-.969.349,1.275,1.275,0,0,0-.4.937,1.448,1.448,0,0,0,.4.993,1.413,1.413,0,0,0,.969.453,1.281,1.281,0,0,0,.969-.373,1.357,1.357,0,0,0,.4-.961,1.376,1.376,0,0,0-.4-.969,1.424,1.424,0,0,0-.969-.429Zm.874.516a1.256,1.256,0,0,1,.365.882,1.2,1.2,0,0,1-.365.874,1.149,1.149,0,0,1-.874.334,1.242,1.242,0,0,1-.874-.405,1.323,1.323,0,0,1-.365-.9,1.125,1.125,0,0,1,.365-.85,1.2,1.2,0,0,1,.874-.318,1.219,1.219,0,0,1,.874.381Z" transform="translate(-336.758 -239.206)"/>
  </g>
</svg>
