<svg id="Group_80" data-name="Group 80" xmlns="http://www.w3.org/2000/svg" viewBox="0 0 45.28 34.634">
  <defs>
    <style>
      .cls-1 {
        fill: #fbfbfb;
      }

      .cls-1, .cls-10, .cls-11, .cls-12, .cls-13, .cls-14, .cls-15, .cls-16, .cls-17, .cls-18, .cls-19, .cls-2, .cls-20, .cls-21, .cls-22, .cls-23, .cls-24, .cls-25, .cls-27, .cls-28, .cls-3, .cls-4, .cls-5, .cls-6, .cls-7, .cls-8, .cls-9 {
        fill-rule: evenodd;
      }

      .cls-2 {
        fill: #f7f7f7;
      }

      .cls-3 {
        fill: #f3f3f3;
      }

      .cls-4 {
        fill: #efefef;
      }

      .cls-5 {
        fill: #ebebeb;
      }

      .cls-6 {
        fill: #e7e7e7;
      }

      .cls-7 {
        fill: #e4e4e4;
      }

      .cls-8 {
        fill: #e0e0e0;
      }

      .cls-9 {
        fill: #dcdcdc;
      }

      .cls-10 {
        fill: #d8d8d8;
      }

      .cls-11 {
        fill: #d4d4d4;
      }

      .cls-12 {
        fill: #d0d0d0;
      }

      .cls-13 {
        fill: #ccc;
      }

      .cls-14 {
        fill: #c8c8c8;
      }

      .cls-15 {
        fill: #c4c4c4;
      }

      .cls-16 {
        fill: silver;
      }

      .cls-17 {
        fill: #bcbcbc;
      }

      .cls-18 {
        fill: #b8b8b8;
      }

      .cls-19 {
        fill: #b4b4b4;
      }

      .cls-20 {
        fill: #b1b1b1;
      }

      .cls-21 {
        fill: #adadad;
      }

      .cls-22 {
        fill: #a9a9a9;
      }

      .cls-23 {
        fill: #a5a5a5;
      }

      .cls-24 {
        fill: #a1a1a1;
      }

      .cls-25 {
        fill: #9d9d9d;
      }

      .cls-26 {
        fill: #1d7fb5;
      }

      .cls-27 {
        fill: #47b71d;
      }

      .cls-28 {
        fill: #49a9f6;
      }

      .cls-29 {
        fill: #ffd80f;
      }
    </style>
  </defs>
  <g id="Group_59" data-name="Group 59" transform="translate(0 5.148)">
    <path id="Path_384" data-name="Path 384" class="cls-1" d="M869.16,243.97a1.614,1.614,0,0,1,1.692,1.485v23.422c0,.818-.77,1.287-1.684,1.469-13.089,2.573-43.588,4.654-43.588,1.414V247.973c-.024-3.129,21.4-4.273,43.58-4Z" transform="translate(-825.58 -243.932)"/>
    <path id="Path_385" data-name="Path 385" class="cls-2" d="M869.283,244.19a1.587,1.587,0,0,1,1.676,1.469v23.128c0,.8-.763,1.279-1.668,1.453-12.978,2.542-43.191,4.6-43.191,1.4V248.153c-.024-3.1,21.206-4.233,43.183-3.963Z" transform="translate(-825.687 -243.977)"/>
    <path id="Path_386" data-name="Path 386" class="cls-3" d="M869.406,244.4a1.58,1.58,0,0,1,1.66,1.453v22.827c0,.794-.755,1.263-1.652,1.438-12.851,2.51-42.794,4.535-42.794,1.382V248.316c-.024-3.058,21.016-4.178,42.786-3.916Z" transform="translate(-825.794 -244.021)"/>
    <path id="Path_387" data-name="Path 387" class="cls-4" d="M869.529,244.611a1.563,1.563,0,0,1,1.644,1.43v22.533c0,.786-.747,1.239-1.636,1.414-12.732,2.478-42.4,4.48-42.4,1.366V248.479c-.024-3.018,20.817-4.122,42.389-3.868Z" transform="translate(-825.901 -244.064)"/>
    <path id="Path_388" data-name="Path 388" class="cls-5" d="M869.652,244.831a1.541,1.541,0,0,1,1.628,1.414v22.231c0,.77-.747,1.223-1.62,1.4-12.613,2.446-42,4.424-42,1.35V248.651c-.024-2.986,20.627-4.075,41.992-3.82Z" transform="translate(-826.008 -244.109)"/>
    <path id="Path_389" data-name="Path 389" class="cls-6" d="M869.775,245.041a1.523,1.523,0,0,1,1.612,1.39V268.36c0,.762-.739,1.207-1.6,1.374-12.494,2.414-41.6,4.368-41.6,1.334V248.8c-.024-2.923,20.428-4,41.595-3.757Z" transform="translate(-826.115 -244.153)"/>
    <path id="Path_390" data-name="Path 390" class="cls-7" d="M869.9,245.261a1.506,1.506,0,0,1,1.6,1.374v21.627c0,.755-.731,1.191-1.589,1.358-12.374,2.383-41.2,4.313-41.2,1.318V248.97c-.032-2.891,20.229-3.955,41.19-3.709Z" transform="translate(-826.224 -244.198)"/>
    <path id="Path_391" data-name="Path 391" class="cls-8" d="M870.023,245.471a1.484,1.484,0,0,1,1.58,1.358v21.333c0,.739-.723,1.175-1.573,1.334-12.255,2.343-40.8,4.249-40.8,1.3V249.133c-.032-2.851,20.031-3.9,40.792-3.661Z" transform="translate(-826.331 -244.242)"/>
    <path id="Path_392" data-name="Path 392" class="cls-9" d="M870.147,245.682a1.48,1.48,0,0,1,1.573,1.334v21.032c0,.731-.715,1.16-1.557,1.318-12.136,2.311-40.4,4.194-40.4,1.287V249.3c-.032-2.812,19.832-3.844,40.387-3.614Z" transform="translate(-826.44 -244.286)"/>
    <path id="Path_393" data-name="Path 393" class="cls-10" d="M870.27,245.9a1.463,1.463,0,0,1,1.557,1.318v20.73c0,.723-.707,1.144-1.541,1.3-12.017,2.279-40.006,4.138-40.006,1.263V249.46c-.032-2.772,19.634-3.789,39.99-3.558Z" transform="translate(-826.547 -244.331)"/>
    <path id="Path_394" data-name="Path 394" class="cls-11" d="M870.393,246.112a1.446,1.446,0,0,1,1.541,1.3v20.436c0,.715-.7,1.128-1.525,1.287-11.9,2.248-39.609,4.074-39.609,1.255V249.639c-.032-2.74,19.443-3.749,39.593-3.526Z" transform="translate(-826.654 -244.374)"/>
    <path id="Path_395" data-name="Path 395" class="cls-12" d="M870.5,246.332a1.429,1.429,0,0,1,1.525,1.279v20.134c0,.7-.691,1.112-1.517,1.263-11.779,2.216-39.212,4.019-39.212,1.239V249.8c-.016-2.692,19.26-3.685,39.2-3.463Z" transform="translate(-826.757 -244.42)"/>
    <path id="Path_396" data-name="Path 396" class="cls-13" d="M870.631,246.543a1.412,1.412,0,0,1,1.509,1.263v19.84c0,.691-.691,1.1-1.493,1.247-11.66,2.184-38.807,3.963-38.807,1.223v-20.15c-.032-2.661,19.054-3.638,38.791-3.423Z" transform="translate(-826.868 -244.463)"/>
    <path id="Path_397" data-name="Path 397" class="cls-14" d="M870.752,246.762A1.39,1.39,0,0,1,872.245,248V267.54c0,.683-.683,1.08-1.485,1.231-11.532,2.152-38.409,3.908-38.409,1.2V250.13c-.024-2.621,18.863-3.582,38.4-3.368Z" transform="translate(-826.973 -244.508)"/>
    <path id="Path_398" data-name="Path 398" class="cls-15" d="M870.875,246.973a1.373,1.373,0,0,1,1.477,1.223v19.237c0,.667-.675,1.056-1.469,1.207-11.421,2.121-38.013,3.844-38.013,1.183V250.285c-.024-2.565,18.665-3.518,38-3.312Z" transform="translate(-827.08 -244.552)"/>
    <path id="Path_399" data-name="Path 399" class="cls-16" d="M871,247.183a1.367,1.367,0,0,1,1.461,1.207v18.943c0,.659-.667,1.04-1.453,1.191-11.294,2.089-37.615,3.789-37.615,1.168V250.456c-.016-2.534,18.474-3.471,37.607-3.272Z" transform="translate(-827.187 -244.596)"/>
    <path id="Path_400" data-name="Path 400" class="cls-17" d="M871.12,247.4a1.344,1.344,0,0,1,1.445,1.183v18.641c0,.643-.659,1.025-1.438,1.168-11.175,2.057-37.218,3.733-37.218,1.152V250.612c-.016-2.486,18.276-3.407,37.21-3.209Z" transform="translate(-827.294 -244.641)"/>
    <path id="Path_401" data-name="Path 401" class="cls-18" d="M871.243,247.614a1.327,1.327,0,0,1,1.43,1.168v18.347c0,.635-.651,1.009-1.422,1.152-11.056,2.025-36.821,3.677-36.821,1.136V250.783c-.016-2.454,18.085-3.36,36.813-3.169Z" transform="translate(-827.401 -244.684)"/>
    <path id="Path_402" data-name="Path 402" class="cls-19" d="M871.366,247.834a1.3,1.3,0,0,1,1.414,1.144v18.045c0,.627-.643.993-1.406,1.136-10.937,1.993-36.424,3.614-36.424,1.12V250.947c-.016-2.415,17.886-3.3,36.416-3.113Z" transform="translate(-827.508 -244.73)"/>
    <path id="Path_403" data-name="Path 403" class="cls-20" d="M871.491,248.044a1.288,1.288,0,0,1,1.4,1.128v17.743c0,.612-.635.977-1.39,1.112-10.818,1.962-36.019,3.558-36.019,1.1V251.109c-.024-2.367,17.688-3.256,36.011-3.066Z" transform="translate(-827.617 -244.773)"/>
    <path id="Path_404" data-name="Path 404" class="cls-21" d="M871.614,248.254A1.277,1.277,0,0,1,873,249.366v17.45c0,.6-.628.961-1.374,1.1C860.923,269.834,836,271.414,836,269V251.28c-.024-2.335,17.489-3.209,35.614-3.026Z" transform="translate(-827.724 -244.816)"/>
    <path id="Path_405" data-name="Path 405" class="cls-22" d="M871.737,248.474a1.255,1.255,0,0,1,1.366,1.088V266.71c0,.6-.62.945-1.358,1.08-10.579,1.89-35.225,3.439-35.225,1.072V251.445c-.024-2.3,17.3-3.145,35.217-2.97Z" transform="translate(-827.831 -244.862)"/>
    <path id="Path_406" data-name="Path 406" class="cls-23" d="M871.86,248.684a1.238,1.238,0,0,1,1.35,1.072V266.61c0,.58-.612.929-1.342,1.056-10.46,1.859-34.828,3.383-34.828,1.048V251.607c-.024-2.256,17.1-3.1,34.82-2.923Z" transform="translate(-827.938 -244.905)"/>
    <path id="Path_407" data-name="Path 407" class="cls-24" d="M871.983,248.9a1.227,1.227,0,0,1,1.334,1.048V266.5c0,.572-.612.913-1.326,1.04-10.341,1.835-34.43,3.328-34.43,1.04V251.779c-.024-2.216,16.909-3.05,34.422-2.875Z" transform="translate(-828.045 -244.95)"/>
    <path id="Path_408" data-name="Path 408" class="cls-25" d="M872.105,249.115a1.211,1.211,0,0,1,1.318,1.033V266.4c0,.564-.6.9-1.31,1.017-10.222,1.8-34.033,3.272-34.033,1.025v-16.5c-.016-2.168,16.711-2.986,34.026-2.82Z" transform="translate(-828.152 -244.994)"/>
  </g>
  <path id="Path_409" data-name="Path 409" class="cls-26" d="M831.987,271.7c12.978-1.43,25.964,4.908,38.942,3.479a2.028,2.028,0,0,1,1.032.072c-4.376,3.026-37.846.786-40.975-2.923-.008-.008-.016-.381-.016-.389C831,271.87,831.192,271.83,831.987,271.7Z" transform="translate(-826.689 -244.452)"/>
  <g id="Group_60" data-name="Group 60" transform="translate(4.257)">
    <path id="Path_410" data-name="Path 410" class="cls-27" d="M861.606,241.207c-10.222-1.088-20.444-5.242-30.666-3.2V258.45c10.222-8.856,20.444-11.509,30.666-17.243Z" transform="translate(-830.94 -237.45)"/>
    <path id="Path_411" data-name="Path 411" class="cls-28" d="M843.97,267.723c10.222,1.088,20.444,5.242,30.658,3.2V250.48c-10.214,8.864-20.436,11.517-30.658,17.243Z" transform="translate(-833.621 -240.131)"/>
    <path id="Path_412" data-name="Path 412" class="cls-29" d="M830.94,259.423c10.222-8.856,20.444-11.517,30.666-17.243.985.1,1.97.183,2.955.222-11.207,7.029-22.414,9.277-33.62,18.99v-1.97ZM871.955,246.8v1.97c-10.222,8.856-20.444,11.517-30.658,17.243-.985-.1-1.97-.183-2.955-.222,11.2-7.021,22.406-9.277,33.612-18.99Z" transform="translate(-830.94 -238.423)"/>
    <path id="Path_413" data-name="Path 413" d="M830.94,261.315c11.207-9.714,22.414-11.969,33.62-18.99a31.351,31.351,0,0,0,7.394-.524v4.924c-11.207,9.714-22.414,11.969-33.62,19a30.931,30.931,0,0,0-7.394.524v-4.932Z" transform="translate(-830.94 -238.345)"/>
  </g>
</svg>
