<svg id="Group_79" data-name="Group 79" xmlns="http://www.w3.org/2000/svg" viewBox="0 0 45.272 34.618">
  <defs>
    <style>
      .cls-1 {
        fill: #fbfbfb;
      }

      .cls-1, .cls-10, .cls-11, .cls-12, .cls-13, .cls-14, .cls-15, .cls-16, .cls-17, .cls-18, .cls-19, .cls-2, .cls-20, .cls-21, .cls-22, .cls-23, .cls-24, .cls-25, .cls-29, .cls-3, .cls-30, .cls-31, .cls-32, .cls-33, .cls-4, .cls-5, .cls-6, .cls-7, .cls-8, .cls-9 {
        fill-rule: evenodd;
      }

      .cls-2 {
        fill: #f7f7f7;
      }

      .cls-3 {
        fill: #f3f3f3;
      }

      .cls-4 {
        fill: #efefef;
      }

      .cls-5 {
        fill: #ebebeb;
      }

      .cls-6 {
        fill: #e7e7e7;
      }

      .cls-7 {
        fill: #e4e4e4;
      }

      .cls-8 {
        fill: #e0e0e0;
      }

      .cls-9 {
        fill: #dcdcdc;
      }

      .cls-10 {
        fill: #d8d8d8;
      }

      .cls-11 {
        fill: #d4d4d4;
      }

      .cls-12 {
        fill: #d0d0d0;
      }

      .cls-13 {
        fill: #ccc;
      }

      .cls-14 {
        fill: #c8c8c8;
      }

      .cls-15 {
        fill: #c4c4c4;
      }

      .cls-16 {
        fill: silver;
      }

      .cls-17 {
        fill: #bcbcbc;
      }

      .cls-18 {
        fill: #b8b8b8;
      }

      .cls-19 {
        fill: #b4b4b4;
      }

      .cls-20 {
        fill: #b1b1b1;
      }

      .cls-21 {
        fill: #adadad;
      }

      .cls-22 {
        fill: #a9a9a9;
      }

      .cls-23 {
        fill: #a5a5a5;
      }

      .cls-24 {
        fill: #a1a1a1;
      }

      .cls-25 {
        fill: #9d9d9d;
      }

      .cls-26 {
        fill: #c40000;
      }

      .cls-27 {
        fill: #f90805;
      }

      .cls-28 {
        fill: #fedc36;
      }

      .cls-29 {
        fill: #fff;
      }

      .cls-31 {
        fill: #ffd80f;
      }

      .cls-32 {
        fill: #ff1612;
      }

      .cls-33 {
        fill: #9ca69c;
      }
    </style>
  </defs>
  <g id="Group_42" data-name="Group 42" transform="translate(0 5.133)">
    <path id="Path_285" data-name="Path 285" class="cls-1" d="M689.99,243.97a1.609,1.609,0,0,1,1.692,1.485v23.422c0,.818-.77,1.295-1.684,1.469-13.089,2.573-43.588,4.654-43.588,1.414V247.973c-.032-3.129,21.4-4.273,43.58-4Z" transform="translate(-646.41 -243.932)"/>
    <path id="Path_286" data-name="Path 286" class="cls-2" d="M690.1,244.19a1.592,1.592,0,0,1,1.676,1.469v23.128c0,.8-.762,1.271-1.668,1.453-12.97,2.542-43.191,4.6-43.191,1.4V248.153c-.024-3.1,21.214-4.233,43.183-3.963Z" transform="translate(-646.515 -243.977)"/>
    <path id="Path_287" data-name="Path 287" class="cls-3" d="M690.226,244.4a1.575,1.575,0,0,1,1.66,1.453v22.827c0,.794-.755,1.263-1.652,1.438-12.851,2.51-42.794,4.543-42.794,1.382V248.316c-.024-3.058,21.016-4.178,42.786-3.916Z" transform="translate(-646.622 -244.021)"/>
    <path id="Path_288" data-name="Path 288" class="cls-4" d="M690.349,244.611a1.557,1.557,0,0,1,1.644,1.43v22.533c0,.786-.747,1.239-1.636,1.414-12.732,2.478-42.4,4.488-42.4,1.366V248.479c-.016-3.018,20.825-4.122,42.389-3.868Z" transform="translate(-646.729 -244.064)"/>
    <path id="Path_289" data-name="Path 289" class="cls-5" d="M690.472,244.831a1.541,1.541,0,0,1,1.628,1.414v22.231c0,.77-.747,1.223-1.62,1.4-12.613,2.446-42,4.424-42,1.35V248.651c-.016-2.986,20.627-4.075,41.992-3.82Z" transform="translate(-646.836 -244.109)"/>
    <path id="Path_290" data-name="Path 290" class="cls-6" d="M690.594,245.041a1.523,1.523,0,0,1,1.612,1.39V268.36c0,.762-.739,1.207-1.6,1.374-12.493,2.414-41.6,4.368-41.6,1.334V248.8c-.016-2.923,20.436-4,41.594-3.757Z" transform="translate(-646.943 -244.153)"/>
    <path id="Path_291" data-name="Path 291" class="cls-7" d="M690.719,245.261a1.506,1.506,0,0,1,1.6,1.374v21.627c0,.755-.731,1.191-1.589,1.358-12.374,2.383-41.2,4.313-41.2,1.318V248.97c-.024-2.891,20.229-3.955,41.189-3.709Z" transform="translate(-647.052 -244.198)"/>
    <path id="Path_292" data-name="Path 292" class="cls-8" d="M690.842,245.471a1.483,1.483,0,0,1,1.581,1.35v21.333c0,.747-.723,1.175-1.573,1.334-12.255,2.351-40.8,4.249-40.8,1.3V249.125c-.024-2.843,20.039-3.892,40.792-3.654Z" transform="translate(-647.159 -244.242)"/>
    <path id="Path_293" data-name="Path 293" class="cls-9" d="M690.965,245.682a1.472,1.472,0,0,1,1.565,1.334v21.032c0,.731-.715,1.16-1.557,1.318-12.136,2.311-40.4,4.194-40.4,1.279V249.288c-.024-2.8,19.84-3.836,40.4-3.606Z" transform="translate(-647.266 -244.286)"/>
    <path id="Path_294" data-name="Path 294" class="cls-10" d="M691.09,245.9a1.463,1.463,0,0,1,1.557,1.318v20.73c0,.723-.707,1.144-1.541,1.3-12.017,2.279-40.006,4.138-40.006,1.271V249.468c-.032-2.78,19.642-3.8,39.99-3.566Z" transform="translate(-647.375 -244.331)"/>
    <path id="Path_295" data-name="Path 295" class="cls-11" d="M691.213,246.112a1.446,1.446,0,0,1,1.541,1.3v20.436c0,.715-.7,1.128-1.525,1.287-11.9,2.248-39.609,4.074-39.609,1.255V249.639c-.032-2.74,19.443-3.749,39.593-3.526Z" transform="translate(-647.482 -244.374)"/>
    <path id="Path_296" data-name="Path 296" class="cls-12" d="M691.336,246.332a1.429,1.429,0,0,1,1.525,1.279v20.134c0,.7-.691,1.112-1.509,1.271-11.779,2.216-39.212,4.019-39.212,1.231V249.8c-.032-2.692,19.253-3.685,39.2-3.463Z" transform="translate(-647.589 -244.42)"/>
    <path id="Path_297" data-name="Path 297" class="cls-13" d="M691.459,246.543a1.412,1.412,0,0,1,1.509,1.263v19.84c0,.691-.683,1.1-1.5,1.247-11.66,2.184-38.807,3.963-38.807,1.223v-20.15c-.024-2.661,19.054-3.638,38.8-3.423Z" transform="translate(-647.696 -244.463)"/>
    <path id="Path_298" data-name="Path 298" class="cls-14" d="M691.582,246.762A1.389,1.389,0,0,1,693.075,248V267.54c0,.683-.683,1.08-1.485,1.231-11.532,2.152-38.41,3.908-38.41,1.2V250.13c-.024-2.621,18.855-3.582,38.4-3.368Z" transform="translate(-647.803 -244.508)"/>
    <path id="Path_299" data-name="Path 299" class="cls-15" d="M691.707,246.973a1.373,1.373,0,0,1,1.477,1.223v19.237c0,.667-.675,1.056-1.461,1.207-11.421,2.121-38.012,3.844-38.012,1.183V250.285c-.032-2.565,18.657-3.518,38-3.312Z" transform="translate(-647.912 -244.552)"/>
    <path id="Path_300" data-name="Path 300" class="cls-16" d="M691.828,247.183a1.356,1.356,0,0,1,1.461,1.207v18.943c0,.659-.667,1.04-1.453,1.191-11.294,2.089-37.615,3.789-37.615,1.168V250.456c-.024-2.534,18.466-3.471,37.607-3.272Z" transform="translate(-648.017 -244.596)"/>
    <path id="Path_301" data-name="Path 301" class="cls-17" d="M691.95,247.4a1.339,1.339,0,0,1,1.446,1.183v18.641c0,.643-.659,1.025-1.437,1.168-11.175,2.057-37.218,3.733-37.218,1.152V250.612c-.024-2.486,18.276-3.407,37.21-3.209Z" transform="translate(-648.124 -244.641)"/>
    <path id="Path_302" data-name="Path 302" class="cls-18" d="M692.073,247.614a1.327,1.327,0,0,1,1.43,1.168v18.347c0,.635-.651,1.009-1.422,1.152-11.064,2.025-36.821,3.677-36.821,1.136V250.783c-.024-2.454,18.077-3.36,36.813-3.169Z" transform="translate(-648.231 -244.684)"/>
    <path id="Path_303" data-name="Path 303" class="cls-19" d="M692.2,247.834a1.305,1.305,0,0,1,1.414,1.144v18.045c0,.627-.643,1-1.406,1.136-10.937,1.993-36.416,3.614-36.416,1.12V250.947c-.032-2.415,17.878-3.3,36.408-3.113Z" transform="translate(-648.34 -244.73)"/>
    <path id="Path_304" data-name="Path 304" class="cls-20" d="M692.321,248.044a1.288,1.288,0,0,1,1.4,1.128v17.743c0,.612-.635.977-1.39,1.12-10.818,1.954-36.019,3.558-36.019,1.1V251.117c-.032-2.375,17.68-3.264,36.011-3.074Z" transform="translate(-648.447 -244.773)"/>
    <path id="Path_305" data-name="Path 305" class="cls-21" d="M692.434,248.254a1.277,1.277,0,0,1,1.382,1.112v17.45c0,.6-.627.961-1.374,1.1-10.7,1.922-35.622,3.5-35.622,1.088V251.28c-.016-2.335,17.5-3.209,35.614-3.026Z" transform="translate(-648.552 -244.816)"/>
    <path id="Path_306" data-name="Path 306" class="cls-22" d="M692.557,248.474a1.255,1.255,0,0,1,1.366,1.088V266.71c0,.6-.619.945-1.358,1.08-10.579,1.89-35.225,3.447-35.225,1.072V251.444c-.016-2.3,17.3-3.153,35.217-2.97Z" transform="translate(-648.659 -244.862)"/>
    <path id="Path_307" data-name="Path 307" class="cls-23" d="M692.68,248.684a1.238,1.238,0,0,1,1.35,1.072V266.6c0,.588-.612.929-1.342,1.056-10.46,1.859-34.828,3.384-34.828,1.048V251.6c-.016-2.248,17.108-3.09,34.82-2.915Z" transform="translate(-648.766 -244.905)"/>
    <path id="Path_308" data-name="Path 308" class="cls-24" d="M692.8,248.9a1.227,1.227,0,0,1,1.334,1.048V266.5c0,.572-.612.913-1.326,1.04-10.341,1.835-34.43,3.328-34.43,1.04V251.779c-.016-2.216,16.909-3.05,34.422-2.875Z" transform="translate(-648.873 -244.95)"/>
    <path id="Path_309" data-name="Path 309" class="cls-25" d="M692.925,249.115a1.2,1.2,0,0,1,1.319,1.033V266.4c0,.564-.6.9-1.311,1.017-10.222,1.8-34.033,3.272-34.033,1.025v-16.5c-.016-2.168,16.719-2.986,34.026-2.82Z" transform="translate(-648.98 -244.994)"/>
  </g>
  <path id="Path_310" data-name="Path 310" class="cls-26" d="M652.807,271.7c12.978-1.43,25.964,4.908,38.942,3.479a2.206,2.206,0,0,1,1.032.064c-4.376,3.026-37.846.786-40.975-2.923-.008-.008-.016-.381-.016-.389C651.822,271.87,652.02,271.83,652.807,271.7Z" transform="translate(-647.517 -244.468)"/>
  <g id="Group_45" data-name="Group 45" transform="translate(4.265)">
    <path id="Path_311" data-name="Path 311" d="M651.78,251.687c13.669-2.732,27.33,5.623,41,2.891v4.551c-13.669,2.732-27.33-5.623-41-2.891v-4.551Zm0-13.661c13.669-2.732,27.33,5.623,41,2.891v4.551c-13.669,2.732-27.33-5.623-41-2.891v-4.551Z" transform="translate(-651.78 -237.469)"/>
    <path id="Path_312" data-name="Path 312" class="cls-27" d="M651.78,263.165c13.669-2.732,27.33,5.623,41,2.891v4.551c-13.669,2.732-27.33-5.623-41-2.891v-4.551Zm0-13.669c13.669-2.732,27.33,5.623,41,2.891v4.551c-13.669,2.732-27.33-5.623-41-2.891V249.5Z" transform="translate(-651.78 -239.829)"/>
    <path id="Path_313" data-name="Path 313" class="cls-28" d="M651.78,257.425c13.669-2.732,27.33,5.623,41,2.891v4.559c-13.669,2.732-27.33-5.623-41-2.891v-4.559Zm0-13.669c13.669-2.732,27.33,5.623,41,2.891v4.559c-13.669,2.732-27.33-5.623-41-2.891v-4.559Z" transform="translate(-651.78 -238.648)"/>
    <g id="Group_44" data-name="Group 44" transform="translate(16.226 11.307)">
      <path id="Path_314" data-name="Path 314" class="cls-29" d="M676.483,251.8a5.5,5.5,0,0,1,4.273,5.123,3.386,3.386,0,0,1-4.273,3.415,5.5,5.5,0,0,1-4.273-5.123A3.392,3.392,0,0,1,676.483,251.8Z" transform="translate(-672.21 -251.705)"/>
      <g id="Group_43" data-name="Group 43" transform="translate(2.527 0.253)">
        <path id="Path_315" data-name="Path 315" class="cls-30" d="M675.66,253.355c-.016-.087.119-.111.23-.135s.381-.04.381-.04a.456.456,0,0,1,.1-.477c-.1-.191-.183-.389-.278-.58a.709.709,0,0,1,.62-.071,1.419,1.419,0,0,1,.882.524,1.219,1.219,0,0,1,.294.651c-.143,0-.294,0-.437.008a.672.672,0,0,1-.143.461c-.167.191-.3.222-.357.4a2,2,0,0,0-.04.969s.079-.016.262.119.675.461.778.54.54.357.651.437a.869.869,0,0,1,.214.167,2.951,2.951,0,0,1,.667.508,1.385,1.385,0,0,1,.421,1.08,1.405,1.405,0,0,1-.413.89c-.127.135-.532.381-.62.278,0,0-.032-.056.151-.222a.4.4,0,0,1-.119.024.106.106,0,0,1-.079-.032.131.131,0,0,1,.04-.1,1.624,1.624,0,0,1-.23.04c-.056,0-.079-.008-.087-.032s.024-.048.048-.064a.28.28,0,0,0,.04-.032.507.507,0,0,1-.1-.087.631.631,0,0,0,.469-.731.362.362,0,0,1-.254.31.912.912,0,0,0,.04-.262s-.024.04-.048,0a1.156,1.156,0,0,0-.119-.222,3.228,3.228,0,0,0-.469-.175c-.167-.056-.3-.087-.27.064a1.714,1.714,0,0,0,.159.4c.063.1.191.278.127.4s-.119.111-.246.064a3.219,3.219,0,0,0-.373-.1c-.1-.024-.151-.04-.167.119s.016.461.024.6.048.477.048.477a1.009,1.009,0,0,1,.683.413s-1.025-.389-1.6.159c0,0-.159-.207.183-.437a1.936,1.936,0,0,0-.58-.143s.079-.31,1.041-.024a5.383,5.383,0,0,0-.04-.659c-.032-.254-.064-.564-.064-.564s-.278-.056-.429-.1-.381-.143-.469-.056a.952.952,0,0,0-.191.326c-.024.056-.079.079-.111-.008a2.207,2.207,0,0,1-.064-.278s-.087.071-.079.453a.421.421,0,0,1-.143-.349,2.893,2.893,0,0,0-.167.326,1.524,1.524,0,0,1-.016-.484.339.339,0,0,1,.286-.31,1.908,1.908,0,0,1,.477.008,9.188,9.188,0,0,1,.921.23,2.359,2.359,0,0,0-.016-.683s-.262-.294-.318-.381a2.023,2.023,0,0,1-.755-.7l-.048.024a1.787,1.787,0,0,1-.421-.993,1.536,1.536,0,0,1,.4-1.025,2.864,2.864,0,0,1,.342-.326s-.175-.111-.119-.254a.3.3,0,0,1,.127-.175,2.1,2.1,0,0,1-.6-.1s.167,0,.326-.008a1.252,1.252,0,0,1,.278.016.061.061,0,0,0,.008-.048,2.006,2.006,0,0,0-.27-.024,2.76,2.76,0,0,0-.341.008c-.016-.016-.016-.016-.024,0Z" transform="translate(-675.392 -252.023)"/>
        <path id="Path_316" data-name="Path 316" class="cls-31" d="M677.062,252.11c-.008.167-.024.334-.032.492a.871.871,0,0,1,.6.318c.087-.111.167-.222.254-.334a1.447,1.447,0,0,0-.826-.477Z" transform="translate(-675.729 -252.041)"/>
        <path id="Path_317" data-name="Path 317" class="cls-32" d="M676.549,253.5c.071.079.183.159.191.23s-.024.111-.135.127-.191-.008-.206-.111.151-.246.151-.246Zm1.6,3.169a.78.78,0,0,1,.286.087.467.467,0,0,0-.143-.207,2.453,2.453,0,0,1,.453.191,1.33,1.33,0,0,0-.191-.326s.421.27.588.381a2.461,2.461,0,0,0-.437-.58,4.461,4.461,0,0,1,.556.318,2.229,2.229,0,0,1,.643.683,1.265,1.265,0,0,1,.111.921,1.614,1.614,0,0,1-.4.667.793.793,0,0,1-.413.246c-.064.016-.1.016-.056-.032s.151-.175.183-.207a.609.609,0,0,0,.056-.048c-.008-.016-.024-.024-.032-.04a.874.874,0,0,1-.206.111c-.072.016-.1.016-.064-.024a.483.483,0,0,1,.1-.1c-.008-.016-.016-.024-.024-.04l-.254.056c-.072.016-.119.024-.088,0s.072-.032.072-.071-.064-.048-.079-.056-.016-.016.016-.024a.749.749,0,0,0,.254-.175.788.788,0,0,0,.159-.445,1.44,1.44,0,0,0-.063-.4.071.071,0,0,1-.04.008.542.542,0,0,1-.143.508.662.662,0,0,0,.008-.318,1.756,1.756,0,0,0-.333-.564,4,4,0,0,0-.524-.532Zm-.619-3.709.238-.334a1.275,1.275,0,0,1,.27.556c-.135.008-.262.008-.4.008a.539.539,0,0,0-.111-.23Zm-.929-.278c-.079-.175-.167-.341-.254-.516,0,0,.111-.143.516-.071-.008.167-.024.342-.032.508a.422.422,0,0,0-.23.079Z" transform="translate(-675.589 -252.034)"/>
        <path id="Path_318" data-name="Path 318" class="cls-33" d="M677.182,253.13a.448.448,0,0,1,.2.461.344.344,0,0,1-.365.294.146.146,0,0,1-.127-.191c.1-.167.357.056.294-.564Zm1.454,3.344c-.04-.048-.072-.1-.111-.143.1.048.191.087.286.135,0,0-.294-.191-.413-.27s-.508-.349-.691-.477-.54-.4-.635-.381-.143.151-.143.278a1.3,1.3,0,0,0,.207.731,1.387,1.387,0,0,0,.635.469,2.113,2.113,0,0,1,.707.564,2.507,2.507,0,0,1,.421.635.387.387,0,0,1,.008-.1,1.961,1.961,0,0,0-.262-.429,4.144,4.144,0,0,0-.548-.564.121.121,0,0,1-.056-.1,4.783,4.783,0,0,0-.357-.381,1.518,1.518,0,0,1-.357-.286.289.289,0,0,1-.024-.35c.072-.071.27.008.334.04s.326.214.453.3a3.421,3.421,0,0,0,.548.318Zm-1.525.048a1.1,1.1,0,0,0-.04.318.9.9,0,0,0,.056.246.493.493,0,0,1,.429.056l.024-.024a3.873,3.873,0,0,1-.469-.6Zm-.326-1.04a1.116,1.116,0,0,1-.143-.659,2.685,2.685,0,0,1,.238-.747s-.032-.04-.056-.024a2.4,2.4,0,0,0-.6.921,1.22,1.22,0,0,0,.048.993s.024-.024.04-.191c0,0,.087.1.111.079s-.024-.183-.024-.183c.048.024.1.04.143.064a1.718,1.718,0,0,0-.079-.175c.064.024.127.04.183.064-.016-.064-.04-.135-.056-.2.072.024.127.04.191.056Z" transform="translate(-675.548 -252.251)"/>
        <path id="Path_319" data-name="Path 319" class="cls-29" d="M678.218,256.884a1.2,1.2,0,0,1,.238.064,1.853,1.853,0,0,0-.214-.207.061.061,0,0,0,.016-.032s.389.159.492.222a1.551,1.551,0,0,0-.262-.357.331.331,0,0,1,.143.056c.1.056.484.318.484.318-.087-.111-.167-.222-.254-.326,0,0-.286-.143-.437-.222s-.365-.222-.453-.278-.286-.214-.389-.214-.167.048-.127.183a.421.421,0,0,0,.191.246,1.894,1.894,0,0,1,.286.23c.1.111.246.262.286.318ZM676.9,253.39a.1.1,0,0,1,.079.1.064.064,0,0,1-.079.064.094.094,0,0,1-.079-.1c-.008-.048.032-.072.079-.064Z" transform="translate(-675.685 -252.304)"/>
      </g>
    </g>
  </g>
</svg>
