<svg id="Group_81" data-name="Group 81" xmlns="http://www.w3.org/2000/svg" viewBox="0 0 45.275 34.618">
  <defs>
    <style>
      .cls-1 {
        fill: #fbfbfb;
      }

      .cls-1, .cls-10, .cls-11, .cls-12, .cls-13, .cls-14, .cls-15, .cls-16, .cls-17, .cls-18, .cls-19, .cls-2, .cls-20, .cls-21, .cls-22, .cls-23, .cls-24, .cls-25, .cls-27, .cls-28, .cls-29, .cls-3, .cls-30, .cls-31, .cls-4, .cls-5, .cls-6, .cls-7, .cls-8, .cls-9 {
        fill-rule: evenodd;
      }

      .cls-2 {
        fill: #f7f7f7;
      }

      .cls-3 {
        fill: #f3f3f3;
      }

      .cls-4 {
        fill: #efefef;
      }

      .cls-5 {
        fill: #ebebeb;
      }

      .cls-6 {
        fill: #e7e7e7;
      }

      .cls-7 {
        fill: #e4e4e4;
      }

      .cls-8 {
        fill: #e0e0e0;
      }

      .cls-9 {
        fill: #dcdcdc;
      }

      .cls-10 {
        fill: #d8d8d8;
      }

      .cls-11 {
        fill: #d4d4d4;
      }

      .cls-12 {
        fill: #d0d0d0;
      }

      .cls-13 {
        fill: #ccc;
      }

      .cls-14 {
        fill: #c8c8c8;
      }

      .cls-15 {
        fill: #c4c4c4;
      }

      .cls-16 {
        fill: silver;
      }

      .cls-17 {
        fill: #bcbcbc;
      }

      .cls-18 {
        fill: #b8b8b8;
      }

      .cls-19 {
        fill: #b4b4b4;
      }

      .cls-20 {
        fill: #b1b1b1;
      }

      .cls-21 {
        fill: #adadad;
      }

      .cls-22 {
        fill: #a9a9a9;
      }

      .cls-23 {
        fill: #a5a5a5;
      }

      .cls-24 {
        fill: #a1a1a1;
      }

      .cls-25 {
        fill: #9d9d9d;
      }

      .cls-26 {
        fill: #005b02;
      }

      .cls-27 {
        fill: #00840f;
      }

      .cls-28, .cls-31 {
        fill: #ef7d00;
      }

      .cls-30 {
        fill: #ff1612;
      }

      .cls-31 {
        stroke: #000;
        stroke-miterlimit: 2.414;
        stroke-width: 0.014px;
      }
    </style>
  </defs>
  <g id="Group_64" data-name="Group 64" transform="translate(0 5.133)">
    <path id="Path_415" data-name="Path 415" class="cls-1" d="M1050.22,243.97a1.609,1.609,0,0,1,1.692,1.485v23.422c0,.818-.77,1.287-1.684,1.469-13.089,2.573-43.588,4.654-43.588,1.414V247.973c-.032-3.129,21.4-4.273,43.58-4Z" transform="translate(-1006.64 -243.932)"/>
    <path id="Path_416" data-name="Path 416" class="cls-2" d="M1050.343,244.19a1.587,1.587,0,0,1,1.676,1.469v23.128c0,.8-.762,1.279-1.668,1.453-12.978,2.542-43.191,4.6-43.191,1.4V248.153c-.024-3.1,21.206-4.233,43.183-3.963Z" transform="translate(-1006.747 -243.977)"/>
    <path id="Path_417" data-name="Path 417" class="cls-3" d="M1050.466,244.4a1.58,1.58,0,0,1,1.66,1.453v22.827c0,.794-.755,1.263-1.652,1.438-12.851,2.51-42.794,4.535-42.794,1.382V248.316c-.024-3.058,21.016-4.178,42.786-3.916Z" transform="translate(-1006.854 -244.021)"/>
    <path id="Path_418" data-name="Path 418" class="cls-4" d="M1050.589,244.611a1.552,1.552,0,0,1,1.644,1.43v22.533c0,.786-.746,1.239-1.636,1.414-12.732,2.478-42.4,4.488-42.4,1.366V248.479c-.024-3.018,20.817-4.122,42.389-3.868Z" transform="translate(-1006.961 -244.064)"/>
    <path id="Path_419" data-name="Path 419" class="cls-5" d="M1050.712,244.831a1.541,1.541,0,0,1,1.628,1.414v22.231c0,.77-.747,1.223-1.62,1.4-12.613,2.446-42,4.424-42,1.35V248.651c-.024-2.986,20.626-4.075,41.992-3.82Z" transform="translate(-1007.068 -244.109)"/>
    <path id="Path_420" data-name="Path 420" class="cls-6" d="M1050.834,245.041a1.523,1.523,0,0,1,1.613,1.39V268.36c0,.762-.739,1.207-1.6,1.374-12.493,2.414-41.6,4.368-41.6,1.334V248.8c-.024-2.923,20.428-4,41.594-3.757Z" transform="translate(-1007.175 -244.153)"/>
    <path id="Path_421" data-name="Path 421" class="cls-7" d="M1050.959,245.261a1.506,1.506,0,0,1,1.6,1.374v21.627c0,.755-.73,1.191-1.588,1.358-12.375,2.383-41.2,4.313-41.2,1.318V248.97c-.032-2.891,20.229-3.955,41.189-3.709Z" transform="translate(-1007.284 -244.198)"/>
    <path id="Path_422" data-name="Path 422" class="cls-8" d="M1051.083,245.471a1.483,1.483,0,0,1,1.58,1.35v21.333c0,.739-.723,1.175-1.573,1.334-12.255,2.351-40.8,4.249-40.8,1.3V249.125c-.032-2.843,20.031-3.892,40.793-3.654Z" transform="translate(-1007.391 -244.242)"/>
    <path id="Path_423" data-name="Path 423" class="cls-9" d="M1051.2,245.682a1.48,1.48,0,0,1,1.573,1.334v21.032c0,.731-.715,1.16-1.557,1.318-12.136,2.311-40.4,4.194-40.4,1.279V249.288c-.032-2.8,19.84-3.836,40.387-3.606Z" transform="translate(-1007.498 -244.286)"/>
    <path id="Path_424" data-name="Path 424" class="cls-10" d="M1051.32,245.9a1.463,1.463,0,0,1,1.557,1.318v20.738c0,.723-.707,1.144-1.541,1.3-12.017,2.28-40.006,4.138-40.006,1.271V249.476c-.024-2.788,19.642-3.8,39.99-3.574Z" transform="translate(-1007.605 -244.331)"/>
    <path id="Path_425" data-name="Path 425" class="cls-11" d="M1051.443,246.112a1.446,1.446,0,0,1,1.541,1.3v20.436c0,.715-.7,1.128-1.525,1.287-11.9,2.248-39.609,4.074-39.609,1.255V249.639c-.024-2.74,19.443-3.749,39.593-3.526Z" transform="translate(-1007.712 -244.374)"/>
    <path id="Path_426" data-name="Path 426" class="cls-12" d="M1051.566,246.332a1.429,1.429,0,0,1,1.525,1.279v20.134c0,.7-.691,1.112-1.509,1.263-11.779,2.216-39.212,4.019-39.212,1.239V249.8c-.024-2.692,19.252-3.685,39.2-3.463Z" transform="translate(-1007.819 -244.42)"/>
    <path id="Path_427" data-name="Path 427" class="cls-13" d="M1051.689,246.543a1.412,1.412,0,0,1,1.509,1.263v19.84c0,.691-.683,1.1-1.5,1.247-11.66,2.184-38.807,3.963-38.807,1.223v-20.15c-.024-2.661,19.054-3.638,38.8-3.423Z" transform="translate(-1007.926 -244.463)"/>
    <path id="Path_428" data-name="Path 428" class="cls-14" d="M1051.812,246.762A1.39,1.39,0,0,1,1053.3,248V267.54c0,.683-.683,1.08-1.485,1.231-11.533,2.152-38.41,3.908-38.41,1.2V250.13c-.024-2.621,18.863-3.582,38.4-3.368Z" transform="translate(-1008.033 -244.508)"/>
    <path id="Path_429" data-name="Path 429" class="cls-15" d="M1051.935,246.973a1.373,1.373,0,0,1,1.477,1.223v19.237c0,.667-.675,1.056-1.469,1.207-11.421,2.121-38.012,3.844-38.012,1.183V250.285c-.024-2.565,18.665-3.518,38-3.312Z" transform="translate(-1008.14 -244.552)"/>
    <path id="Path_430" data-name="Path 430" class="cls-16" d="M1052.057,247.183a1.355,1.355,0,0,1,1.461,1.207v18.943c0,.659-.667,1.04-1.453,1.191-11.294,2.089-37.615,3.789-37.615,1.168V250.456c-.024-2.534,18.474-3.471,37.607-3.272Z" transform="translate(-1008.247 -244.596)"/>
    <path id="Path_431" data-name="Path 431" class="cls-17" d="M1052.18,247.4a1.339,1.339,0,0,1,1.446,1.183v18.649c0,.643-.659,1.025-1.437,1.168-11.175,2.057-37.218,3.733-37.218,1.152V250.62c-.016-2.494,18.276-3.415,37.21-3.217Z" transform="translate(-1008.354 -244.641)"/>
    <path id="Path_432" data-name="Path 432" class="cls-18" d="M1052.3,247.614a1.328,1.328,0,0,1,1.43,1.168v18.347c0,.635-.651,1.009-1.422,1.152-11.064,2.025-36.821,3.677-36.821,1.136V250.783c-.016-2.454,18.085-3.36,36.813-3.169Z" transform="translate(-1008.461 -244.684)"/>
    <path id="Path_433" data-name="Path 433" class="cls-19" d="M1052.428,247.834a1.3,1.3,0,0,1,1.414,1.144v18.045c0,.627-.643.993-1.406,1.136-10.937,1.993-36.416,3.614-36.416,1.12V250.955c-.024-2.422,17.878-3.312,36.408-3.121Z" transform="translate(-1008.57 -244.73)"/>
    <path id="Path_434" data-name="Path 434" class="cls-20" d="M1052.549,248.044a1.288,1.288,0,0,1,1.4,1.128v17.743c0,.612-.635.977-1.39,1.12-10.818,1.954-36.027,3.558-36.027,1.1V251.117c-.016-2.375,17.7-3.264,36.019-3.074Z" transform="translate(-1008.675 -244.773)"/>
    <path id="Path_435" data-name="Path 435" class="cls-21" d="M1052.674,248.254a1.277,1.277,0,0,1,1.382,1.112v17.45c0,.6-.628.961-1.374,1.1-10.7,1.922-35.622,3.5-35.622,1.088V251.28c-.024-2.335,17.489-3.209,35.614-3.026Z" transform="translate(-1008.784 -244.816)"/>
    <path id="Path_436" data-name="Path 436" class="cls-22" d="M1052.8,248.474a1.255,1.255,0,0,1,1.366,1.088V266.71c0,.6-.628.945-1.358,1.08-10.579,1.89-35.225,3.447-35.225,1.072V251.444c-.024-2.3,17.3-3.153,35.217-2.97Z" transform="translate(-1008.891 -244.862)"/>
    <path id="Path_437" data-name="Path 437" class="cls-23" d="M1052.92,248.684a1.238,1.238,0,0,1,1.35,1.072V266.6c0,.58-.612.929-1.342,1.056-10.46,1.859-34.828,3.384-34.828,1.048V251.6c-.024-2.248,17.1-3.09,34.82-2.915Z" transform="translate(-1008.998 -244.905)"/>
    <path id="Path_438" data-name="Path 438" class="cls-24" d="M1053.043,248.9a1.227,1.227,0,0,1,1.334,1.048V266.5c0,.572-.612.913-1.326,1.04-10.341,1.835-34.431,3.328-34.431,1.04V251.779c-.024-2.216,16.9-3.05,34.423-2.875Z" transform="translate(-1009.105 -244.95)"/>
    <path id="Path_439" data-name="Path 439" class="cls-25" d="M1053.155,249.115a1.211,1.211,0,0,1,1.319,1.033V266.4c0,.564-.6.9-1.311,1.017-10.222,1.8-34.033,3.272-34.033,1.025v-16.5c-.008-2.168,16.719-2.986,34.025-2.82Z" transform="translate(-1009.21 -244.994)"/>
  </g>
  <path id="Path_440" data-name="Path 440" class="cls-26" d="M1013.047,271.7c12.978-1.43,25.956,4.908,38.942,3.479a2.029,2.029,0,0,1,1.033.072c-4.384,3.026-37.846.786-40.975-2.923-.008-.008-.016-.381-.016-.389C1012.062,271.87,1012.252,271.83,1013.047,271.7Z" transform="translate(-1007.749 -244.468)"/>
  <g id="Group_67" data-name="Group 67" transform="translate(4.273)">
    <path id="Path_441" data-name="Path 441" class="cls-27" d="M1012.02,265.356c13.669-2.732,27.33,5.623,40.991,2.891v-27.33c-13.661,2.732-27.33-5.623-40.991-2.891v27.33Z" transform="translate(-1012.02 -237.469)"/>
    <path id="Path_442" data-name="Path 442" class="cls-28" d="M1057.49,272.209a29,29,0,0,0,4.877-.54V254.1a29.182,29.182,0,0,1-4.877.54v17.569Z" transform="translate(-1021.376 -240.891)"/>
    <path id="Path_443" data-name="Path 443" class="cls-29" d="M1051.34,272.129a38.621,38.621,0,0,0,4.885.175V254.735a40.161,40.161,0,0,1-4.885-.175v17.569Z" transform="translate(-1020.11 -240.986)"/>
    <path id="Path_444" data-name="Path 444" class="cls-30" d="M1045.2,271.289c1.628.278,3.256.516,4.877.667V254.387c-1.628-.151-3.256-.389-4.877-.667v17.569Z" transform="translate(-1018.847 -240.813)"/>
    <g id="Group_66" data-name="Group 66" transform="translate(27.163 5.647)">
      <path id="Path_445" data-name="Path 445" class="cls-31" d="M1051.414,246.4a1.267,1.267,0,0,1,.349-.627.825.825,0,0,1,1.056.008,1.316,1.316,0,0,1,.286.056c.151.056.23.151.159.246s-.119.1-.119.1a.129.129,0,0,0-.119-.159s0,.04-.111.048-.183.008-.238.087-.1.2.032.437a2.17,2.17,0,0,1,.786-.079c.508.024.643.032.643.032s.429-.111.723-.214a4.272,4.272,0,0,1,.548-.151,5.955,5.955,0,0,0,1.048-.334c.2-.111.23-.143.278-.1s-.032.143-.063.183-.167.175-.167.175.532-.254.8-.389.834-.445.906-.492.135-.1.143-.079a.647.647,0,0,1-.159.246c-.079.1-.484.453-.476.445s.1-.056.365-.222.453-.31.564-.381.23-.167.278-.135-.072.326-.246.492a3.863,3.863,0,0,1-.516.429,5.181,5.181,0,0,0,.453-.278c.27-.183.58-.437.612-.405s-.111.27-.246.413-.413.389-.413.389.206-.119.326-.183.167-.071.175-.048a1.658,1.658,0,0,1-.357.445,4.744,4.744,0,0,1-.405.357s.349-.262.4-.222-.206.326-.341.461a3.1,3.1,0,0,1-.81.492,7.959,7.959,0,0,1-.881.27s.024.04-.064.1a1.817,1.817,0,0,1-.54.246,4.154,4.154,0,0,1-.437.072s.222.048.207.1a.868.868,0,0,1-.437.111s.159.04.127.079a.527.527,0,0,1-.326.1.751.751,0,0,1-.246-.04s.357.214.294.31-.437,0-.564-.056-.413-.2-.413-.2a.47.47,0,0,0,.127.143,1.414,1.414,0,0,0,.278.167c.063.048.1.119-.008.143a.654.654,0,0,1-.373-.064,1.283,1.283,0,0,1-.2-.119s.079.087.04.127-.183-.024-.23-.04a1.333,1.333,0,0,1-.254-.175.408.408,0,0,0,.111.2c.079.079.175.1.167.127s-.1.008-.159-.04-.143-.127-.167-.1.032.159.063.214.191.294.191.294a.66.66,0,0,1-.326-.119.643.643,0,0,0,0,.127c.008.04.032.056.1.064s.246-.008.27.159c0,0,.008.032-.032.008a.646.646,0,0,0-.143-.079.093.093,0,0,0-.087.04c-.016.032.024.048.04.056a.19.19,0,0,1,.111.23c-.032.175-.127.175-.151.183s-.032-.008-.016-.032.032-.064.016-.087-.032-.008-.063-.016a.131.131,0,0,1-.127-.079c-.032-.064-.024-.127-.072-.119s-.056.024-.056.056.024.167-.024.23-.1.071-.111.1a.134.134,0,0,0,.008.111c.016.032.008.032-.032.024a.116.116,0,0,1-.079-.111.167.167,0,0,0-.024-.111.264.264,0,0,1,0-.206c.032-.056,0-.04-.008-.032a.244.244,0,0,1-.1.1.306.306,0,0,1-.143.008.3.3,0,0,0,0,.087c.008.032,0,.048-.016.04a.179.179,0,0,1-.063-.1c-.008-.04-.016-.207-.016-.207s-.055.04-.071.048,0,.024.008.048a.326.326,0,0,1,.04.119.186.186,0,0,1-.072.167.087.087,0,0,0-.032.1.271.271,0,0,0,.032.079c.008.008.008.032-.024.008a.294.294,0,0,1-.071-.079.312.312,0,0,1-.016-.048.366.366,0,0,1-.143-.246c0-.008-.016-.016-.016,0a.307.307,0,0,1-.048.135.477.477,0,0,1-.167.079.141.141,0,0,0-.016.087c.016.048-.032.024-.048.008s-.056-.048-.048-.167a.161.161,0,0,1-.008-.191c.071-.087.063-.079.04-.071a.822.822,0,0,1-.2.064,1.254,1.254,0,0,1-.183,0,.316.316,0,0,0-.056.072c-.008.024-.024,0-.024-.024a.378.378,0,0,1,.04-.2.277.277,0,0,1,.222-.151c.088-.008.23.024.31-.056a.313.313,0,0,0,.111-.222s-.1.056-.079-.024.032-.23.04-.27-.016-.048-.04-.008a.574.574,0,0,1-.143.167c-.047.024-.04.008-.04-.024s.056-.334.072-.381.056-.159.063-.191-.016-.032-.032-.008-.087.071-.079.032.024-.127.024-.127a.672.672,0,0,1-.413.032.488.488,0,0,1-.333-.167c-.048-.064.055-.119.1-.143s.088-.048.111-.064-.016-.008-.04,0-.278.056-.365.079a.585.585,0,0,1-.349.008c-.071-.048-.04-.1.008-.119s.214-.127.262-.159-.008-.016-.032-.008a1.423,1.423,0,0,1-.278.111.986.986,0,0,1-.357.04c-.111-.016-.159-.04-.127-.064s.143-.079.167-.1,0-.016-.016-.008a1.315,1.315,0,0,1-.381.024c-.175-.024-.2-.048-.215-.064s-.008-.032.016-.048.119-.064.135-.071.024-.032-.024-.016a1.442,1.442,0,0,1-.365.024.731.731,0,0,1-.342-.127c-.056-.048-.087-.072-.056-.087s.175-.032.214-.04a1.606,1.606,0,0,0,.262-.072c.04-.016.024-.032-.008-.024s-.214.024-.349.032a1.945,1.945,0,0,1-.572-.056.669.669,0,0,1-.318-.167c-.024-.024,0-.032.04-.024a.575.575,0,0,0,.2-.008l.214-.056c.032-.008.048-.032.024-.032s-.2.016-.23.016-.182,0-.294-.008a1.147,1.147,0,0,1-.373-.1.732.732,0,0,1-.207-.135c-.024-.024-.024-.048.016-.048h.246a1.741,1.741,0,0,0,.214-.032c.04-.008.024-.024,0-.024s-.246-.032-.334-.04a1.28,1.28,0,0,1-.373-.119.346.346,0,0,1-.135-.111c-.016-.032-.016-.048.032-.048h.23c.024,0-.079-.04-.183-.079s-.373-.159-.556-.262a2.321,2.321,0,0,1-.437-.318.889.889,0,0,1-.214-.262c-.064-.119-.048-.143-.04-.159s.056.016.127.087a.792.792,0,0,0,.159.135c.079.048.087.04.079.024s-.087-.1-.127-.151a1.8,1.8,0,0,1-.151-.222c-.032-.048-.064-.135-.04-.159s.119.064.159.1.254.214.286.246.056.008.008-.04a1.375,1.375,0,0,1-.246-.357c-.079-.191-.071-.262-.063-.294s.04-.008.087.04.238.246.286.294a1.827,1.827,0,0,0,.151.111,1.89,1.89,0,0,0,.262.167,1.426,1.426,0,0,0,.238.127c.048.008-.008-.048-.04-.079s-.207-.222-.278-.31a1.124,1.124,0,0,1-.175-.278.243.243,0,0,1-.032-.151c.008-.04.016-.056.056-.024s.2.135.318.222.6.342.723.405.349.2.445.262.334.214.381.238.048-.008,0-.056-.23-.254-.294-.342-.079-.119-.071-.143.064-.008.119.024.374.207.6.342.349.2.477.254.365.175.477.207.365.079.588.135c.223.1.437.167.683.254Zm1.374,3.2a.241.241,0,0,1,.183-.048h.183s.048-.04.048-.056-.016-.191-.016-.214-.016-.008-.04.024-.072.056-.064,0a.946.946,0,0,0-.008-.365,2.8,2.8,0,0,0-.2-.484c-.056-.1-.08-.135-.087-.151s-.024,0-.024.04-.016.286-.024.381-.016.262-.016.262a1.985,1.985,0,0,1,.04.222c-.008.056-.032.024-.056,0a.421.421,0,0,1-.079-.1c-.008-.016-.024-.016-.024.008s-.008.135-.008.222-.016.119.048.151a1.359,1.359,0,0,0,.143.1Z" transform="translate(-1046.22 -244.579)"/>
      <g id="Group_65" data-name="Group 65" transform="translate(0.365 0.859)">
        <path id="Path_446" data-name="Path 446" d="M1054.5,246.28a.234.234,0,0,0,.119.04.029.029,0,0,1,.024.008.313.313,0,0,1,.087.024c-.008.008-.008.024-.016.032a.207.207,0,0,0-.079-.024c-.008,0-.016-.008-.024-.008a.392.392,0,0,1-.135-.048c.008,0,.016-.008.024-.024Z" transform="translate(-1048.285 -245.788)"/>
        <path id="Path_447" data-name="Path 447" d="M1053.706,246.063h0a.774.774,0,0,0,.222.04.148.148,0,0,0,.063-.016.042.042,0,0,0,.024-.032c-.008-.016-.008-.024-.024-.032a.09.09,0,0,0-.063-.024.269.269,0,0,0-.079.008.444.444,0,0,0-.143.056Zm0,.032a.061.061,0,0,0-.032-.008c-.008,0-.016-.008-.024-.008.008-.008.008-.016.016-.024a.359.359,0,0,1,.183-.087.387.387,0,0,1,.1-.008.237.237,0,0,1,.079.032.129.129,0,0,1,.032.056h0v.008a.093.093,0,0,1-.04.056.233.233,0,0,1-.08.024.738.738,0,0,1-.23-.04Z" transform="translate(-1048.114 -245.722)"/>
        <path id="Path_448" data-name="Path 448" d="M1054.154,246.82a.721.721,0,0,0,.071.127.743.743,0,0,0,.111.111.214.214,0,0,1,.048.04,1.453,1.453,0,0,1,.254.23,1.806,1.806,0,0,1,.167.214.473.473,0,0,0,.064.087,4.055,4.055,0,0,0,.476.453l.008.008h0l.024.024c.071.056.214.175.326.246.064.04.119.072.175.1a1.284,1.284,0,0,0,.143.079.462.462,0,0,0,.167.048c.079.016.159.024.23.032a.659.659,0,0,0,.19-.008h0c.016,0,.024-.008.04-.008h.008a.132.132,0,0,0-.048-.024c-.032-.016-.175-.087-.31-.159s-.254-.143-.3-.175-.215-.143-.365-.238c-.127-.079-.246-.159-.286-.183a.944.944,0,0,1-.127-.1c.008-.008.008-.016.016-.024s.04.024.127.087c.04.024.159.1.286.183.151.1.318.2.365.238s.175.1.3.175c.143.071.278.143.31.159a.149.149,0,0,1,.063.032c.008.008.008.008.008.016a.029.029,0,0,1-.008.024.059.059,0,0,1-.04.008.346.346,0,0,0-.04.008h0a1.3,1.3,0,0,1-.2.008,1.235,1.235,0,0,1-.23-.032.9.9,0,0,1-.174-.056,1.278,1.278,0,0,1-.143-.079,1.433,1.433,0,0,1-.175-.1c-.111-.072-.254-.191-.326-.246-.016-.016-.024-.016-.024-.024h0l-.008-.008a3.2,3.2,0,0,1-.485-.461c-.024-.04-.048-.064-.064-.087a1.794,1.794,0,0,0-.167-.214,1.34,1.34,0,0,0-.246-.222c-.016-.008-.024-.024-.048-.032a.371.371,0,0,1-.111-.111.494.494,0,0,1-.079-.135c.008-.008.016-.008.024-.016Z" transform="translate(-1048.213 -245.899)"/>
        <path id="Path_449" data-name="Path 449" d="M1056.091,248.2s.373.167.6.262c.111.048.222.087.333.127a1.855,1.855,0,0,0,.365.064c.246.016.318-.056.357-.1h0c.016-.016.024-.024.016-.032a.126.126,0,0,0-.064-.024.864.864,0,0,0-.135-.024,4.282,4.282,0,0,1-.476-.111,2.656,2.656,0,0,1-.326-.127,1.8,1.8,0,0,1-.246-.119,2.182,2.182,0,0,1-.2-.119c-.079-.048-.143-.1-.182-.119-.072-.056-.191-.167-.191-.167l.024-.024a2.1,2.1,0,0,0,.19.159,1.889,1.889,0,0,0,.183.119,1.185,1.185,0,0,0,.2.111,1.772,1.772,0,0,0,.246.111c.127.056.246.1.326.127.1.032.318.079.469.111.064.008.111.024.135.024a.149.149,0,0,1,.088.04c.008.024.008.04-.024.071h0c-.04.048-.127.135-.389.111a1.934,1.934,0,0,1-.373-.064,1.765,1.765,0,0,1-.342-.127c-.222-.1-.6-.262-.6-.262s.008-.008.016-.016Z" transform="translate(-1048.585 -246.076)"/>
        <path id="Path_450" data-name="Path 450" d="M1056.942,249.08a.368.368,0,0,0,.056.032.8.8,0,0,0,.238.1,3.126,3.126,0,0,0,.389.056.048.048,0,0,1-.008.032s-.214-.024-.389-.056a.779.779,0,0,1-.246-.1.731.731,0,0,1-.071-.04c.008-.008.024-.016.032-.024Z" transform="translate(-1048.785 -246.364)"/>
        <path id="Path_451" data-name="Path 451" d="M1057.428,248.94a2.1,2.1,0,0,0,.262.064c.1.016.207.024.294.032a.048.048,0,0,0-.008.032,1.963,1.963,0,0,1-.286-.032c-.119-.024-.222-.048-.27-.064,0-.016.008-.024.008-.032Z" transform="translate(-1048.89 -246.335)"/>
        <path id="Path_452" data-name="Path 452" d="M1058.24,248.663a3.832,3.832,0,0,1,.484-.079h.032c.135-.016.389-.064.389-.064s.008.024.008.032-.254.048-.4.064a.048.048,0,0,0-.032.008,2.78,2.78,0,0,0-.476.071c0-.008-.008-.024-.008-.032Z" transform="translate(-1049.058 -246.248)"/>
        <path id="Path_453" data-name="Path 453" d="M1057.538,247.995a3.439,3.439,0,0,0,.421.056,3.744,3.744,0,0,0,.6.008,4.1,4.1,0,0,0,.612-.1,4.026,4.026,0,0,0,.628-.214c.127-.056.31-.159.476-.254s.31-.191.389-.246c.008.008.008.016.016.024-.079.056-.23.159-.389.254-.175.1-.357.2-.485.254a4.026,4.026,0,0,1-.628.214,2.736,2.736,0,0,1-.612.1,3.837,3.837,0,0,1-.611-.008c-.175-.016-.318-.04-.429-.056,0-.016.008-.024.008-.032Z" transform="translate(-1048.913 -245.985)"/>
        <path id="Path_454" data-name="Path 454" d="M1060.02,247.29s.667-.294.985-.484a3.582,3.582,0,0,0,.429-.286c.008.008.016.016.016.024a2.911,2.911,0,0,1-.429.294c-.318.191-.985.485-.985.485-.008-.016-.016-.024-.016-.032Z" transform="translate(-1049.425 -245.837)"/>
        <path id="Path_455" data-name="Path 455" d="M1058.47,247.418s.635-.222,1.072-.413a10.9,10.9,0,0,0,1.159-.635c.008.008.008.024.016.032a10.468,10.468,0,0,1-1.168.635c-.437.191-1.072.413-1.072.413s-.008-.016-.008-.032Z" transform="translate(-1049.106 -245.806)"/>
        <path id="Path_456" data-name="Path 456" d="M1058.85,246.83a4.3,4.3,0,0,0,.85-.326,3.447,3.447,0,0,0,.7-.445l.024.024a3.116,3.116,0,0,1-.707.445,4.1,4.1,0,0,1-.85.334.042.042,0,0,1-.016-.032Z" transform="translate(-1049.184 -245.742)"/>
        <path id="Path_457" data-name="Path 457" d="M1056.086,247.643a2.024,2.024,0,0,0,.532.214.917.917,0,0,0,.556-.016c-.1-.056-.413-.214-.477-.254-.032-.024-.048-.032-.056-.04a.015.015,0,0,1,0-.024c0-.008.008-.008.016-.016a.047.047,0,0,1,.031.008.291.291,0,0,0,.1.04,1.763,1.763,0,0,0,.262.056c.119.016.23.024.326.032h.262a.332.332,0,0,0,.143-.024c.008-.008.008-.008.016-.008h0a.109.109,0,0,0-.032-.024,1.458,1.458,0,0,0-.191-.056c-.087-.024-.175-.04-.223-.056a.347.347,0,0,1-.04-.008c-.032-.016-.024-.024,0-.032h.016a.565.565,0,0,1,.111.008c.032.008.111.016.191.024a1.1,1.1,0,0,0,.222.008.362.362,0,0,0,.119-.032.028.028,0,0,0,.016-.008h0a.086.086,0,0,0-.04-.024.88.88,0,0,0-.183-.056c-.016,0-.032-.008-.048-.008s-.024-.008-.032-.016h0a.015.015,0,0,1,0-.024c.008,0,.008-.008.016-.008a.136.136,0,0,1,.056.008.732.732,0,0,0,.207.024,1.414,1.414,0,0,0,.246-.016.587.587,0,0,0,.27-.1.68.68,0,0,0,.1-.1.025.025,0,0,0,.008-.016c-.008-.008-.04,0-.1.008a1.653,1.653,0,0,1-.231.016c-.143,0-.3-.016-.389-.024a.117.117,0,0,1-.056-.008.849.849,0,0,1-.381-.079l.024-.024a1.177,1.177,0,0,0,.365.072c.016,0,.04.008.055.008.088.008.246.024.389.024a.846.846,0,0,0,.223-.016.242.242,0,0,1,.127-.008c.024.016.024.04,0,.063a.46.46,0,0,1-.111.111.722.722,0,0,1-.286.1,1.5,1.5,0,0,1-.254.016.3.3,0,0,1-.088-.008.547.547,0,0,1,.079.032.452.452,0,0,0,.056.032.037.037,0,0,1,0,.04l-.024.024a.481.481,0,0,1-.135.032,1.188,1.188,0,0,1-.23-.008.386.386,0,0,0-.1-.008.071.071,0,0,0,.04.008,1.061,1.061,0,0,1,.19.064.125.125,0,0,1,.048.032.024.024,0,0,1,0,.032l-.024.024a.389.389,0,0,1-.159.024c-.08,0-.167.008-.262,0s-.206-.016-.326-.032a1.045,1.045,0,0,1-.262-.064h-.008c.143.079.453.238.461.238s.024.008.032.016c-.008.008-.024.008-.032.016a1,1,0,0,1-.611.032,2.169,2.169,0,0,1-.54-.222c.008-.016.008-.024.016-.032Z" transform="translate(-1048.612 -245.936)"/>
        <path id="Path_458" data-name="Path 458" d="M1054.968,247.471a.4.4,0,0,0,.127.04,1.186,1.186,0,0,0,.175.016.648.648,0,0,0,.143-.016.01.01,0,1,0,0-.016c-.056-.032-.063-.048-.056-.056s.016-.008.032-.008h0a.06.06,0,0,1,.032.008,1.255,1.255,0,0,0,.215.024h.159c.04-.008.072-.008.072-.016,0-.024-.064-.056-.1-.071l-.008-.008c-.008,0-.008-.008-.016-.008-.016-.016-.008-.024.016-.032h.016a.361.361,0,0,1,.087.024,1.033,1.033,0,0,0,.135.016c.1.008.207.008.262.008a.213.213,0,0,0,.087-.016l.008-.008h0c0-.008-.008-.008-.024-.016a.34.34,0,0,1-.079-.048.069.069,0,0,1-.032-.056c.008-.024.04-.024.135-.016h.016a1.521,1.521,0,0,0,.191,0,.565.565,0,0,0,.206-.048c.024-.016.04-.024.048-.04a.029.029,0,0,0,.008-.024c0-.008-.008-.016-.008-.024s-.016-.008-.024-.016-.024-.008-.024-.016-.008-.008-.008-.016h0a.017.017,0,0,1,.016-.016c.008-.008.016-.008.04-.008s.071-.008.127-.016a1.192,1.192,0,0,0,.143-.032c.04-.016.1-.024.143-.04.119-.032.246-.064.349-.1.064-.024.207-.079.342-.135.175-.079.365-.159.413-.183.008.008.008.024.016.032-.056.024-.238.111-.421.183-.143.056-.278.111-.342.135-.1.04-.238.072-.349.1-.056.016-.1.024-.143.04-.056.016-.111.024-.151.032a1.1,1.1,0,0,1-.127.016c.008.008.016.008.024.016a.061.061,0,0,1,.016.04.1.1,0,0,1-.008.048.215.215,0,0,1-.063.048.568.568,0,0,1-.215.056,1.648,1.648,0,0,1-.2,0h-.016c-.072-.008-.1-.008-.1-.008l.016.016a.226.226,0,0,0,.079.048.172.172,0,0,1,.04.032.025.025,0,0,1,0,.032c-.008.008-.008.016-.024.024a.283.283,0,0,1-.1.024c-.056,0-.175,0-.27-.008-.056,0-.111-.008-.135-.008.024.016.048.04.048.064s-.048.04-.1.048a.532.532,0,0,1-.159,0,1.221,1.221,0,0,1-.191-.016l.024.024a.02.02,0,0,1-.008.032c-.008.008-.016.016-.024.016a.392.392,0,0,1-.159.024,1.1,1.1,0,0,1-.175-.016.46.46,0,0,1-.111-.032c-.008-.008-.024-.008-.032-.016-.016-.048-.008-.056,0-.064Zm.453.024Zm0,0Z" transform="translate(-1048.383 -245.835)"/>
        <path id="Path_459" data-name="Path 459" d="M1057.5,248.032c.048,0,.143,0,.246-.008a1.913,1.913,0,0,0,.223-.024v.032l-.223.024c-.1.008-.2.008-.246.008-.008-.008-.008-.016,0-.032Z" transform="translate(-1048.905 -246.141)"/>
        <path id="Path_460" data-name="Path 460" d="M1057.1,249.429c-.032-.016-.064-.04-.1-.056a1.3,1.3,0,0,1-.135-.087c-.079-.056-.254-.222-.254-.222l.024-.024a2.806,2.806,0,0,0,.246.222c.04.032.1.056.135.087s.071.04.1.056a.034.034,0,0,0-.008.024Z" transform="translate(-1048.723 -246.355)"/>
        <path id="Path_461" data-name="Path 461" d="M1055.427,249.606a1.587,1.587,0,0,1-.064-.159,1.091,1.091,0,0,0-.048-.127,1.5,1.5,0,0,1-.079-.159.67.67,0,0,0-.048-.087.579.579,0,0,0-.071-.087.3.3,0,0,0-.063-.071,1.056,1.056,0,0,1-.1-.111l.024-.024s.071.079.1.111a.777.777,0,0,1,.071.079c.024.032.056.064.072.087a.563.563,0,0,1,.055.087,1.45,1.45,0,0,1,.079.159,1.07,1.07,0,0,1,.048.127c.024.056.04.111.056.151a.111.111,0,0,1-.032.024Z" transform="translate(-1048.381 -246.302)"/>
        <path id="Path_462" data-name="Path 462" d="M1055.23,249.057c.016.008.087.056.143.087s.1.056.135.079a.989.989,0,0,0,.238.1c.056.016.1.016.119,0,.04-.04-.222-.326-.222-.326l.024-.024s.286.31.222.373a.184.184,0,0,1-.151.008,1.616,1.616,0,0,1-.246-.1c-.04-.024-.087-.056-.135-.079a1.178,1.178,0,0,0-.127-.079c0-.016,0-.032,0-.04Z" transform="translate(-1048.439 -246.341)"/>
        <path id="Path_463" data-name="Path 463" d="M1055.456,248.62a.487.487,0,0,0,.071.1,1.175,1.175,0,0,0,.111.127c.016.008.04.032.071.056a.511.511,0,0,0,.1.056c.032.016.079.048.135.079a2.278,2.278,0,0,0,.246.143.491.491,0,0,0,.127.032h0c.072.008.135.016.167.016a.03.03,0,0,0,.024-.008h0v-.008c-.008-.008-.016-.024-.024-.032-.024-.016-.063-.056-.111-.1s-.119-.1-.143-.119a.241.241,0,0,1-.064-.064.5.5,0,0,1-.048-.079.048.048,0,0,1,.032-.008c.008.016.024.04.04.072a.368.368,0,0,0,.056.056c.032.024.087.071.143.119s.1.079.111.1l.04.04a.029.029,0,0,1,.008.024c0,.008-.008.016-.016.024a.059.059,0,0,1-.04.008c-.032,0-.1-.008-.175-.016h0c-.048-.008-.1-.024-.135-.032a2.368,2.368,0,0,1-.246-.143c-.055-.032-.1-.064-.127-.079a1.039,1.039,0,0,1-.1-.056c-.032-.024-.063-.04-.071-.056a1.317,1.317,0,0,1-.119-.135.368.368,0,0,1-.071-.111c-.016,0-.008,0,.008-.008Z" transform="translate(-1048.482 -246.269)"/>
        <path id="Path_464" data-name="Path 464" d="M1055.32,250.445a.51.51,0,0,1-.159-.167c-.024-.032-.032-.064-.048-.087s-.024-.048-.032-.048l.008.008c0,.008-.008.024-.008.032-.008.024-.008.04-.016.071a.008.008,0,0,1-.008.008.679.679,0,0,1-.063.159c-.008-.008-.016-.008-.024-.016a.608.608,0,0,0,.063-.151v-.008c.008-.024.008-.04.016-.064s.008-.024.008-.04.016-.032.04-.024.024.024.048.064c.008.024.024.048.04.087a.553.553,0,0,0,.151.159c-.008,0-.008.008-.016.016Z" transform="translate(-1048.386 -246.577)"/>
        <path id="Path_465" data-name="Path 465" d="M1055.115,248.452c-.008-.064-.016-.135-.024-.207a1.25,1.25,0,0,0-.04-.183,1.115,1.115,0,0,1-.032-.214v-.008h.032v.008a.977.977,0,0,0,.032.206c.016.056.024.119.04.183a2.028,2.028,0,0,1,.024.207.046.046,0,0,1-.031.008Z" transform="translate(-1048.396 -246.109)"/>
        <path id="Path_466" data-name="Path 466" d="M1054.252,248.33a1.37,1.37,0,0,0,.064.159c.032.048.071.1.1.135a.171.171,0,0,0,.04.032.516.516,0,0,1,.191.294.048.048,0,0,1-.032.008.526.526,0,0,0-.175-.278c-.016-.008-.024-.024-.04-.032a.692.692,0,0,1-.111-.143.7.7,0,0,1-.071-.159c.016-.008.024-.016.032-.016Z" transform="translate(-1048.231 -246.209)"/>
        <path id="Path_467" data-name="Path 467" d="M1054.255,249.112h0a.311.311,0,0,0-.151-.254.794.794,0,0,0-.167-.079c-.048-.024-.1-.04-.159-.071a.9.9,0,0,1-.191-.143.65.65,0,0,0-.055.23.048.048,0,0,1-.032-.008.848.848,0,0,1,.071-.262c0-.008.008-.016.008-.024l.016.016a.976.976,0,0,0,.207.151c.056.032.1.048.151.072s.111.048.175.079a.328.328,0,0,1,.167.27h0a.043.043,0,0,1-.04.024Z" transform="translate(-1048.083 -246.244)"/>
        <path id="Path_468" data-name="Path 468" d="M1053.34,249a.338.338,0,0,0,.04-.127.263.263,0,0,0-.008-.135.994.994,0,0,0-.071-.2c-.008-.008-.008-.016-.016-.032-.016-.032-.04-.079-.063-.119a1.055,1.055,0,0,0-.111-.159,1,1,0,0,0-.1-.127.68.68,0,0,1-.286.143,1.14,1.14,0,0,1-.143.008.075.075,0,0,1-.055-.016.062.062,0,0,1-.032-.032.1.1,0,0,1,.024-.056c.016-.024.055-.064.087-.1s.087-.1.111-.127a1.056,1.056,0,0,1,.079-.087.616.616,0,0,1-.135-.191.358.358,0,0,1-.04-.151.518.518,0,0,1,0-.159c.008-.032.024-.079.04-.127s.04-.111.032-.127h.032a.457.457,0,0,1-.04.135c-.016.048-.032.1-.04.127a.555.555,0,0,0,.04.294.577.577,0,0,0,.143.191c.008,0,.008.008.016.008l-.008.008a.9.9,0,0,1-.1.1c-.024.024-.072.079-.111.127a.756.756,0,0,0-.087.1c-.016.024-.016.032-.016.04a.008.008,0,0,1,.008.008.288.288,0,0,0,.048.008,1.044,1.044,0,0,0,.135-.008.63.63,0,0,0,.278-.143l.008-.008.008.008s.071.079.119.143c.024.04.071.1.111.167a.475.475,0,0,1,.063.127c.008.008.008.024.016.032a.916.916,0,0,1,.072.207.434.434,0,0,1,.008.143.5.5,0,0,1-.04.135c.008-.016-.008-.024-.016-.024Z" transform="translate(-1047.875 -245.952)"/>
        <path id="Path_469" data-name="Path 469" d="M1052.46,247.68c-.008,0-.024.016-.04.024a2.158,2.158,0,0,1-.405.254.923.923,0,0,1-.365.087.86.86,0,0,1-.206-.032.364.364,0,0,1-.08-.04c-.008-.008-.016-.008-.016-.016a.024.024,0,0,1,0-.032.058.058,0,0,1,.024-.016c.024-.008.175-.1.326-.175.119-.072.23-.135.27-.159.016-.008.024-.016.04-.024a2.024,2.024,0,0,0,.286-.222c.111-.111.159-.151.159-.151.008.016.008.024.016.04,0,0-.04.032-.151.135a2.853,2.853,0,0,1-.286.222c-.016.008-.024.024-.04.024l-.278.167c-.151.087-.3.167-.326.183h-.008l.008.008a.316.316,0,0,0,.071.032.456.456,0,0,0,.191.032.89.89,0,0,0,.357-.087,1.7,1.7,0,0,0,.4-.254.218.218,0,0,0,.04-.032c0,.008.008.016.016.032Z" transform="translate(-1047.639 -245.973)"/>
        <path id="Path_470" data-name="Path 470" d="M1052.875,246.937s-.1-.008-.135-.072c.008-.008.016-.008.024-.016.024.04.1.048.1.048a.1.1,0,0,1,.008.04Z" transform="translate(-1047.927 -245.905)"/>
        <path id="Path_471" data-name="Path 471" d="M1055.954,249.76a.523.523,0,0,0,.111.087c.024.016.04.032.055.04l-.024.024a.512.512,0,0,0-.056-.04.5.5,0,0,1-.111-.1c.008-.008.016-.016.024-.016Z" transform="translate(-1048.583 -246.504)"/>
        <path id="Path_472" data-name="Path 472" d="M1056.264,249.48c.024.016.1.071.1.071l-.024.024a.705.705,0,0,0-.1-.072l.024-.024Z" transform="translate(-1048.647 -246.446)"/>
        <path id="Path_473" data-name="Path 473" d="M1057.372,247.49a.308.308,0,0,0,.071.032c.056.016.119.024.143.032,0,.008-.008.024-.008.032-.031-.008-.1-.016-.151-.032a.18.18,0,0,1-.087-.04.113.113,0,0,0,.032-.024Z" transform="translate(-1048.873 -246.036)"/>
        <path id="Path_474" data-name="Path 474" d="M1057.886,247.32a.54.54,0,0,0,.1.024c.048.016.111.024.135.032,0,.008-.008.024-.008.032-.032-.008-.087-.016-.143-.032a.43.43,0,0,1-.1-.032c.008-.008.008-.016.016-.024Z" transform="translate(-1048.982 -246.002)"/>
        <path id="Path_475" data-name="Path 475" d="M1055.338,247.61l.079.024a.39.39,0,0,1,.056.024l-.024.024c-.008-.008-.024-.008-.04-.016s-.048-.016-.079-.024c.008-.008.008-.016.008-.032Z" transform="translate(-1048.46 -246.061)"/>
        <path id="Path_476" data-name="Path 476" d="M1055.8,247.45a1.035,1.035,0,0,0,.127.056.048.048,0,0,0-.008.032.588.588,0,0,1-.135-.064c.008-.008.008-.016.016-.024Z" transform="translate(-1048.552 -246.028)"/>
        <path id="Path_477" data-name="Path 477" d="M1056.442,247.32a.209.209,0,0,0,.071.04.048.048,0,0,1-.008.032.222.222,0,0,1-.1-.048c.024-.008.032-.008.032-.024Z" transform="translate(-1048.682 -246.002)"/>
        <path id="Path_478" data-name="Path 478" d="M1057.05,247.109a.649.649,0,0,1,.143.008v.032s-.1-.008-.143-.008c.008-.016.008-.024,0-.032Z" transform="translate(-1048.814 -245.958)"/>
        <path id="Path_479" data-name="Path 479" d="M1054.37,251.055a.294.294,0,0,1,.008-.087.175.175,0,0,1,.071-.087c.008.008.008.024.016.032a.123.123,0,0,0-.063.064.267.267,0,0,0-.008.079c0,.008-.008.008-.024,0Z" transform="translate(-1048.262 -246.734)"/>
        <path id="Path_480" data-name="Path 480" d="M1053.83,250.432a1.013,1.013,0,0,0,.119-.159.47.47,0,0,0,.071-.151.068.068,0,0,1,.016-.048l.016-.016c.008-.008.016,0,.024,0a.059.059,0,0,1,.016.024c.008.016.024.04.04.072s.04.064.056.079c-.008.008-.016.008-.024.016a.787.787,0,0,0-.056-.079.687.687,0,0,1-.04-.071v-.008c0,.008-.008.016-.008.032a.723.723,0,0,1-.08.159,1.862,1.862,0,0,1-.119.167.041.041,0,0,1-.032-.016Z" transform="translate(-1048.151 -246.564)"/>
        <path id="Path_481" data-name="Path 481" d="M1053.839,249.65a.752.752,0,0,1-.008.183.8.8,0,0,1-.04.215c-.008-.008-.024-.008-.032-.016a1.264,1.264,0,0,0,.032-.2,1.5,1.5,0,0,0,.008-.175.107.107,0,0,1,.04-.008Z" transform="translate(-1048.137 -246.481)"/>
        <path id="Path_482" data-name="Path 482" d="M1053.741,249.478a.453.453,0,0,1-.047.119c-.008-.008-.016-.008-.024-.016a.345.345,0,0,0,.04-.1.024.024,0,0,1,.032,0Z" transform="translate(-1048.118 -246.444)"/>
        <path id="Path_483" data-name="Path 483" d="M1053.138,248.952a1.284,1.284,0,0,1-.167.071.628.628,0,0,1-.1.032.047.047,0,0,0-.008-.032c.008,0,.048-.016.1-.032a1.294,1.294,0,0,0,.167-.071.06.06,0,0,1,.016.032Z" transform="translate(-1047.951 -246.331)"/>
        <path id="Path_484" data-name="Path 484" d="M1052.524,248.692l-.238.119c-.008-.008-.008-.024-.016-.032l.238-.119a.042.042,0,0,1,.016.032Z" transform="translate(-1047.83 -246.277)"/>
        <path id="Path_485" data-name="Path 485" d="M1051.48,248.659c.1-.04.27-.119.389-.175a.465.465,0,0,0,.063-.032c.056-.024.135-.064.214-.1s.175-.087.207-.1c.048-.024.119-.056.119-.056s.008.016.016.032c0,0-.063.032-.119.056-.024.016-.111.056-.206.1-.08.04-.167.079-.214.1a.451.451,0,0,0-.063.032c-.119.056-.294.135-.389.175-.008-.008-.008-.024-.016-.032Z" transform="translate(-1047.667 -246.181)"/>
        <path id="Path_486" data-name="Path 486" d="M1050.91,248.48l.127-.048a1.125,1.125,0,0,0,.143-.064.878.878,0,0,0,.127-.079.322.322,0,0,0,.072-.079c.008.008.016.008.024.016a.351.351,0,0,1-.071.087.88.88,0,0,1-.127.087,1.107,1.107,0,0,1-.143.064c-.048.016-.087.032-.127.048-.016-.008-.016-.016-.024-.032Z" transform="translate(-1047.55 -246.185)"/>
        <path id="Path_487" data-name="Path 487" d="M1050.54,248.13a.343.343,0,0,0,.079-.04c.008.008.008.016.016.032a.414.414,0,0,1-.1.04c.008-.008,0-.024,0-.032Z" transform="translate(-1047.474 -246.16)"/>
        <path id="Path_488" data-name="Path 488" d="M1049.55,247.749a.1.1,0,0,0,.048-.008,2.125,2.125,0,0,0,.365-.071c.008.008.008.024.016.032a2.407,2.407,0,0,1-.373.072.279.279,0,0,0-.048.008c0-.008-.008-.016-.008-.032Z" transform="translate(-1047.271 -246.074)"/>
        <path id="Path_489" data-name="Path 489" d="M1048.79,247.319c.055,0,.5-.079.5-.079a.047.047,0,0,1,.008.032,4.961,4.961,0,0,1-.508.079v-.032Z" transform="translate(-1047.114 -245.985)"/>
        <path id="Path_490" data-name="Path 490" d="M1048.018,246.926a2.161,2.161,0,0,0,.516-.016c0,.008.008.024.008.032a2.283,2.283,0,0,1-.278.016,1.89,1.89,0,0,1-.254-.008c.008,0,.008-.016.008-.024Z" transform="translate(-1046.954 -245.917)"/>
        <path id="Path_491" data-name="Path 491" d="M1047.778,245.71c.063.04.206.127.342.2.04.024.079.04.111.064.159.087.54.3.54.3s-.008.024-.016.032-.373-.214-.532-.31a.722.722,0,0,0-.111-.056c-.143-.079-.286-.159-.342-.2a.059.059,0,0,1,.008-.032Z" transform="translate(-1046.904 -245.67)"/>
        <path id="Path_492" data-name="Path 492" d="M1046.888,245.66c.056.04.111.079.175.119s.127.071.182.111c.04.024.207.111.405.214.349.183.786.405.85.437a.048.048,0,0,0-.008.032c-.064-.032-.508-.254-.85-.437-.2-.1-.365-.191-.405-.214-.055-.032-.119-.072-.182-.111s-.119-.079-.175-.119c0-.016.008-.024.008-.032Z" transform="translate(-1046.721 -245.66)"/>
        <path id="Path_493" data-name="Path 493" d="M1046.7,245.88a1.083,1.083,0,0,0,.143.1c.087.048.2.1.262.135s.215.111.349.191c.111.056.207.111.262.143.127.064.262.127.262.127s-.008.024-.008.032-.143-.064-.262-.127a2.409,2.409,0,0,1-.262-.143c-.135-.071-.278-.151-.349-.183s-.175-.087-.27-.143a.633.633,0,0,1-.143-.1.042.042,0,0,1,.016-.032Z" transform="translate(-1046.68 -245.705)"/>
        <path id="Path_494" data-name="Path 494" d="M1049.542,246.08a.679.679,0,0,0,.111.079c.056.032.135.079.2.111a2.082,2.082,0,0,0,.23.111c.072.032.135.064.191.087.072.024.135.04.175.056.024.008.04.008.048.016s.024.008.024.016a.029.029,0,0,1,.008.024c0,.008-.008.016-.008.024a.175.175,0,0,1-.04.024c-.016.008-.032.008-.04.016a.04.04,0,0,1-.024.008c0,.008.008,0,.024.008a.309.309,0,0,0,.1.04,1.29,1.29,0,0,0,.143.04.486.486,0,0,0,.1.008h.08c.04,0,.056.008.048.032s-.016.024-.032.04a.17.17,0,0,1-.04.032c-.024.016-.04.024-.04.032a.316.316,0,0,0,.127.024h.016a.561.561,0,0,0,.167,0c.048-.008.1-.008.135-.016s.048-.008.055.008-.016.04-.04.064l-.024.024-.024.024a.107.107,0,0,0-.016.024.008.008,0,0,1,.008-.008c.056.008.175.016.175.016v.032l-.175-.024c-.032-.008-.04-.016-.04-.032s.008-.024.024-.04.016-.016.016-.024a.109.109,0,0,0,.024-.032c.008-.008.016-.024.024-.024a.008.008,0,0,1-.008.008c-.032.008-.087.016-.143.024a.619.619,0,0,1-.175,0h-.016c-.048-.008-.151-.024-.159-.056s.024-.04.055-.064c.008-.008.024-.016.032-.024a.059.059,0,0,0,.024-.024c0-.008-.008.008-.016.008h-.087c-.032,0-.072-.008-.111-.008s-.095-.024-.151-.04a.775.775,0,0,1-.111-.048c-.032-.024-.04-.032-.04-.048a.175.175,0,0,1,.04-.024.351.351,0,0,1,.04-.008.11.11,0,0,0,.032-.024h0l-.008-.008a.317.317,0,0,1-.048-.016,1.016,1.016,0,0,1-.175-.056l-.2-.087a2.075,2.075,0,0,1-.23-.111c-.071-.04-.143-.071-.207-.111a1.027,1.027,0,0,1-.127-.087.513.513,0,0,0,.072-.016Zm1.739.818Z" transform="translate(-1047.254 -245.746)"/>
        <path id="Path_495" data-name="Path 495" d="M1049.853,246.348a.519.519,0,0,1-.111.048,1.1,1.1,0,0,1-.135.032,1.024,1.024,0,0,1-.143.008h-.024c0,.008.008.016.008.024a.2.2,0,0,0,.056.04.23.23,0,0,0,.087.024.645.645,0,0,0,.127.008c.064,0,.119-.008.151-.008h.04c.008.008.016.008.016.024s0,.016,0,.024-.016.024-.032.04a.279.279,0,0,1-.087.056c-.032.024-.064.04-.087.056a.178.178,0,0,1-.079.024c-.024.008-.04.008-.048.016h0a.008.008,0,0,0,.008.008c.008.008.024.008.04.016s.048.008.071.016a.8.8,0,0,0,.151.016,1.3,1.3,0,0,0,.159.008,1.172,1.172,0,0,0,.127-.008c0,.008.008.024.008.032s-.071.008-.143.008c-.032,0-.1-.008-.159-.008s-.111-.016-.151-.024c-.024-.008-.056-.008-.079-.016a.13.13,0,0,1-.047-.024.044.044,0,0,1-.024-.04h0v-.008c.008-.032.032-.032.071-.04a.248.248,0,0,0,.071-.024c.024-.016.056-.032.087-.056s.064-.04.079-.056l.024-.024h-.024a.862.862,0,0,1-.159.008.681.681,0,0,1-.127-.008.807.807,0,0,1-.1-.024.112.112,0,0,1-.063-.056.131.131,0,0,1-.016-.04V246.4c0-.008.008-.008.008-.016s.008-.008.016-.008h.024a1.011,1.011,0,0,0,.143-.008.741.741,0,0,0,.127-.032.96.96,0,0,0,.1-.04c.024.024.024.04.032.048Z" transform="translate(-1047.24 -245.792)"/>
        <path id="Path_496" data-name="Path 496" d="M1050.5,246.778c-.032,0-.04.008-.064.04l-.016.016a.476.476,0,0,1-.063.056.477.477,0,0,0-.064.064.174.174,0,0,1-.071.056c-.024.016-.04.032-.064.048a.5.5,0,0,1-.1.072c-.032.016-.056.04-.063.04.008,0,.008.008.016.008a.06.06,0,0,0,.04.008c.024,0,.1.008.159.008.04,0,.072.008.1.008.048,0,.167-.008.167-.008a.048.048,0,0,0,.008.032,1.206,1.206,0,0,1-.175,0,.459.459,0,0,1-.1-.008c-.063,0-.135-.008-.159-.008a.143.143,0,0,1-.072-.024c-.008-.008-.016-.016-.016-.024v-.008c0-.016.04-.04.079-.064s.071-.048.1-.064.04-.04.063-.056.048-.04.063-.056a.654.654,0,0,1,.072-.064c.024-.024.048-.04.063-.056l.016-.016a.113.113,0,0,1,.1-.048.068.068,0,0,0-.016.048Z" transform="translate(-1047.357 -245.88)"/>
        <path id="Path_497" data-name="Path 497" d="M1050.973,247.084a.474.474,0,0,0-.063.032c-.048.024-.1.048-.143.072a1.776,1.776,0,0,0-.167.1.073.073,0,0,1-.04.024.464.464,0,0,1-.064.032.9.9,0,0,0-.087.048c-.016.008-.024.016-.04.016s-.024.008-.024.016h0a.024.024,0,0,1-.016.008h0c0,.008.024.008.056.016a1.193,1.193,0,0,0,.151.008,2.345,2.345,0,0,0,.246-.024,1.228,1.228,0,0,0,.151-.024.482.482,0,0,0,.127-.04.2.2,0,0,1,.056-.016h.016c.008.008.008.016.008.032s-.008.008-.016.016a.513.513,0,0,1-.119.079.8.8,0,0,0-.143.072.546.546,0,0,1-.1.048c-.008.008-.024.008-.04.016-.04.008-.087.024-.087.032s.032.016.064.024a.555.555,0,0,1,.064.024.953.953,0,0,0,.222.024,1.248,1.248,0,0,0,.254-.008c.071-.016.206-.056.341-.1a1.186,1.186,0,0,0,.214-.087c.008.008.008.016.016.032a1.856,1.856,0,0,1-.222.087c-.127.04-.27.079-.342.1a1.3,1.3,0,0,1-.262.008,1.141,1.141,0,0,1-.238-.024c-.016-.008-.04-.016-.056-.024-.04-.016-.087-.032-.087-.056s.056-.048.111-.064a.086.086,0,0,1,.04-.008.948.948,0,0,0,.1-.048c.055-.024.111-.056.151-.071a.422.422,0,0,0,.08-.048,1.239,1.239,0,0,0-.135.04,1.4,1.4,0,0,1-.159.024c-.111.008-.23.024-.254.024a1.257,1.257,0,0,1-.151-.008c-.04-.008-.079-.016-.087-.032h0c-.016-.024,0-.04.024-.056h0c.008-.008.016-.008.032-.016s.024-.008.04-.016a.882.882,0,0,1,.087-.048.465.465,0,0,1,.064-.032.171.171,0,0,1,.04-.024.948.948,0,0,1,.175-.1c.04-.016.1-.048.143-.071a.46.46,0,0,1,.063-.032.061.061,0,0,0,.008.024Z" transform="translate(-1047.423 -245.948)"/>
        <path id="Path_498" data-name="Path 498" d="M1051.5,247.352a.446.446,0,0,1-.063.032,1.267,1.267,0,0,1-.135.056c-.008-.008-.008-.024-.016-.032.016-.008.079-.032.127-.056a.451.451,0,0,0,.064-.032c.016.016.016.024.024.032Z" transform="translate(-1047.628 -246.002)"/>
      </g>
    </g>
  </g>
</svg>
